<svg width="387" height="361" viewBox="0 0 387 361" fill="none" xmlns="http://www.w3.org/2000/svg">
<path d="M305.567 23.9415L304.376 24.2159C299.461 25.3123 294.962 27.6405 291.363 30.949C287.765 34.2574 285.204 38.4203 283.957 42.9879C283.649 44.1752 283.431 45.3816 283.307 46.5979C282.937 51.0569 283.754 55.5322 285.685 59.6258C287.616 63.7195 290.601 67.3047 294.375 70.0629C298.849 73.2902 304.507 75.4634 307.41 79.9615C311.194 85.8169 308.903 93.2318 306.527 99.6432C304.151 106.055 301.883 113.484 305.691 119.325C308.075 122.978 312.464 125.195 316.938 126.249C328.78 129.05 341.706 124.494 350.096 116.365C358.486 108.235 362.72 97.0368 363.95 85.8386C365.676 70.1495 361.59 53.5724 350.862 41.2117C340.134 28.8511 322.417 21.4217 305.567 23.9415Z" fill="#F5F5F5"/>
<path d="M60.7435 123.982L61.8813 124.415C66.5514 126.222 71.6622 126.802 76.6607 126.095C81.6593 125.387 86.3552 123.418 90.2406 120.401C91.2433 119.604 92.1823 118.74 93.0502 117.816C96.1597 114.411 98.3194 110.343 99.3375 105.972C100.356 101.602 100.201 97.0639 98.8862 92.7626C97.2918 87.7086 94.0874 82.8351 94.5673 77.6006C95.1942 70.7921 101.719 66.0486 107.679 62.157C113.639 58.2654 120.156 53.493 120.752 46.6918C121.123 42.4247 118.972 38.2299 116.015 34.9232C108.197 26.1725 94.8614 22.7647 82.9573 24.7502C71.0532 26.7357 60.5732 33.4792 52.5236 41.876C41.2464 53.6157 34.1101 69.2687 35.0002 85.1455C35.8903 101.022 45.5189 116.784 60.7435 123.982Z" fill="#F5F5F5"/>
<path d="M324.569 179.46C334.999 179.46 343.455 171.573 343.455 161.843C343.455 152.114 334.999 144.227 324.569 144.227C314.139 144.227 305.684 152.114 305.684 161.843C305.684 171.573 314.139 179.46 324.569 179.46Z" fill="#F5F5F5"/>
<path d="M369.012 333.564C369.012 333.665 290.428 333.752 193.508 333.752C96.5875 333.752 17.9878 333.629 17.9878 333.564C17.9878 333.499 96.5565 333.376 193.508 333.376C290.459 333.376 369.012 333.42 369.012 333.564Z" fill="#263238"/>
<path d="M262.928 333.311L158.09 332.842C152.033 332.815 146.236 330.546 141.973 326.533C137.71 322.52 135.33 317.091 135.357 311.442L136.464 66.2796C136.477 63.4783 137.082 60.7068 138.245 58.1237C139.407 55.5407 141.104 53.1967 143.238 51.2259C145.372 49.2551 147.902 47.6961 150.683 46.6381C153.464 45.5801 156.441 45.0439 159.444 45.06L264.251 45.486C270.306 45.5128 276.102 47.7812 280.365 51.7928C284.628 55.8043 287.008 61.2306 286.984 66.8789L285.877 312.07C285.869 314.871 285.268 317.644 284.11 320.228C282.952 322.813 281.258 325.159 279.126 327.132C276.995 329.105 274.467 330.666 271.687 331.727C268.907 332.787 265.931 333.326 262.928 333.311V333.311Z" fill="#263238"/>
<path d="M264.182 53.9767L243.888 53.89L184.514 53.6301H177.37L159.568 53.5579C157.467 53.5484 155.385 53.9251 153.441 54.6664C151.496 55.4077 149.728 56.4991 148.235 57.8783C146.743 59.2575 145.557 60.8974 144.744 62.7044C143.932 64.5114 143.509 66.45 143.5 68.4095L142.416 307.738C142.407 309.697 142.812 311.638 143.607 313.451C144.402 315.264 145.572 316.913 147.05 318.305C148.529 319.696 150.287 320.802 152.223 321.559C154.16 322.317 156.237 322.711 158.337 322.72L262.974 323.167C265.075 323.174 267.156 322.794 269.1 322.05C271.043 321.306 272.81 320.213 274.3 318.831C275.79 317.45 276.974 315.809 277.784 314.001C278.593 312.193 279.013 310.253 279.019 308.294L280.103 68.9654C280.113 67.0059 279.709 65.0638 278.915 63.2499C278.12 61.436 276.95 59.786 275.471 58.3941C273.993 57.0021 272.235 55.8956 270.298 55.1376C268.361 54.3797 266.282 53.9852 264.182 53.9767V53.9767Z" fill="#FAFAFA"/>
<path d="M264.878 75.7234C264.878 75.965 264.801 76.2012 264.657 76.402C264.513 76.6028 264.309 76.7592 264.069 76.8513C263.83 76.9435 263.566 76.9672 263.312 76.9196C263.058 76.8719 262.825 76.755 262.643 76.5836C262.46 76.4122 262.336 76.1941 262.286 75.957C262.237 75.7198 262.264 75.4742 262.364 75.2514C262.464 75.0286 262.633 74.8385 262.849 74.7053C263.065 74.5721 263.319 74.5018 263.578 74.5032C263.924 74.5051 264.254 74.6345 264.498 74.8631C264.742 75.0917 264.878 75.401 264.878 75.7234V75.7234Z" fill="#263238"/>
<path d="M264.863 80.1419C264.861 80.383 264.783 80.6182 264.638 80.8179C264.494 81.0176 264.289 81.1728 264.05 81.2641C263.811 81.3553 263.548 81.3785 263.295 81.3306C263.042 81.2827 262.809 81.1659 262.627 80.995C262.445 80.824 262.321 80.6066 262.271 80.3701C262.221 80.1336 262.248 79.8887 262.347 79.6661C262.446 79.4436 262.614 79.2535 262.829 79.1197C263.044 78.9859 263.296 78.9146 263.555 78.9146C263.902 78.9165 264.235 79.0466 264.48 79.2766C264.725 79.5066 264.863 79.8177 264.863 80.1419Z" fill="#263238"/>
<path d="M264.847 84.5101C264.849 84.7535 264.773 84.9918 264.629 85.1947C264.485 85.3977 264.279 85.5561 264.039 85.6499C263.798 85.7437 263.533 85.7686 263.277 85.7215C263.021 85.6744 262.786 85.5573 262.601 85.3852C262.417 85.2131 262.291 84.9938 262.241 84.755C262.19 84.5162 262.217 84.2689 262.317 84.0443C262.418 83.8197 262.588 83.6281 262.805 83.4938C263.023 83.3595 263.278 83.2885 263.539 83.2899C263.886 83.2918 264.217 83.421 264.462 83.6494C264.707 83.8778 264.845 84.1871 264.847 84.5101V84.5101Z" fill="#263238"/>
<path d="M179.165 201.308H163.802C160.048 201.308 157.006 204.146 157.006 207.647V221.979C157.006 225.48 160.048 228.318 163.802 228.318H179.165C182.919 228.318 185.961 225.48 185.961 221.979V207.647C185.961 204.146 182.919 201.308 179.165 201.308Z" fill="#2536A8"/>
<path d="M174.344 218.946H168.012C167.929 218.947 167.848 218.92 167.784 218.872C167.719 218.823 167.674 218.755 167.656 218.679L165.334 210.015H163.136C163.033 210.015 162.935 209.977 162.862 209.91C162.79 209.842 162.749 209.75 162.749 209.654C162.749 209.559 162.79 209.467 162.862 209.399C162.935 209.331 163.033 209.293 163.136 209.293H165.636C165.72 209.294 165.801 209.321 165.867 209.369C165.933 209.417 165.979 209.485 166 209.56L168.322 218.224H174.359C174.462 218.224 174.56 218.263 174.633 218.33C174.705 218.398 174.746 218.49 174.746 218.585C174.746 218.681 174.705 218.773 174.633 218.841C174.56 218.908 174.462 218.946 174.359 218.946H174.344Z" fill="white"/>
<path d="M169.212 221.719C169.866 221.719 170.396 221.224 170.396 220.614C170.396 220.004 169.866 219.51 169.212 219.51C168.558 219.51 168.028 220.004 168.028 220.614C168.028 221.224 168.558 221.719 169.212 221.719Z" fill="#FF725E"/>
<path d="M169.212 222.065C168.906 222.065 168.606 221.981 168.352 221.822C168.097 221.663 167.899 221.438 167.782 221.174C167.664 220.91 167.634 220.62 167.694 220.34C167.753 220.06 167.901 219.802 168.117 219.6C168.334 219.398 168.61 219.261 168.91 219.205C169.21 219.15 169.521 219.178 169.804 219.287C170.087 219.397 170.329 219.582 170.499 219.819C170.669 220.057 170.76 220.336 170.76 220.621C170.76 221.004 170.597 221.372 170.306 221.643C170.016 221.913 169.622 222.065 169.212 222.065ZM169.212 219.856C169.06 219.856 168.912 219.898 168.786 219.976C168.66 220.054 168.561 220.164 168.501 220.294C168.442 220.424 168.424 220.567 168.451 220.706C168.478 220.845 168.548 220.974 168.652 221.076C168.757 221.178 168.891 221.25 169.038 221.282C169.186 221.313 169.34 221.304 169.482 221.255C169.624 221.206 169.747 221.119 169.837 221.005C169.926 220.891 169.978 220.755 169.986 220.614C169.984 220.42 169.903 220.233 169.76 220.092C169.616 219.952 169.42 219.867 169.212 219.856V219.856Z" fill="white"/>
<path d="M175.799 221.719C176.453 221.719 176.983 221.224 176.983 220.614C176.983 220.004 176.453 219.51 175.799 219.51C175.145 219.51 174.615 220.004 174.615 220.614C174.615 221.224 175.145 221.719 175.799 221.719Z" fill="#FF725E"/>
<path d="M175.798 222.065C175.492 222.065 175.193 221.981 174.938 221.822C174.684 221.663 174.485 221.438 174.368 221.174C174.251 220.91 174.221 220.62 174.28 220.34C174.34 220.06 174.487 219.802 174.704 219.6C174.92 219.398 175.196 219.261 175.496 219.205C175.797 219.15 176.108 219.178 176.391 219.287C176.674 219.397 176.916 219.582 177.086 219.819C177.256 220.057 177.346 220.336 177.346 220.621C177.346 221.004 177.183 221.372 176.893 221.643C176.603 221.913 176.209 222.065 175.798 222.065ZM175.798 219.856C175.649 219.863 175.505 219.911 175.384 219.993C175.263 220.075 175.169 220.188 175.116 220.318C175.062 220.448 175.05 220.591 175.081 220.727C175.112 220.864 175.185 220.989 175.291 221.088C175.397 221.186 175.531 221.254 175.677 221.283C175.824 221.312 175.976 221.301 176.116 221.251C176.256 221.201 176.377 221.114 176.465 221.001C176.553 220.888 176.604 220.754 176.611 220.614C176.617 220.513 176.6 220.412 176.561 220.318C176.522 220.224 176.462 220.138 176.386 220.067C176.309 219.995 176.217 219.94 176.116 219.903C176.015 219.867 175.907 219.851 175.798 219.856V219.856Z" fill="white"/>
<path d="M176.813 217.322H167.803C167.754 217.323 167.705 217.315 167.659 217.298C167.613 217.281 167.571 217.255 167.535 217.223C167.5 217.191 167.472 217.152 167.453 217.11C167.434 217.067 167.424 217.022 167.424 216.975C167.426 216.883 167.467 216.795 167.538 216.73C167.609 216.665 167.704 216.629 167.803 216.629H176.472L177.463 211.423H166.124C166.021 211.423 165.922 211.385 165.85 211.318C165.777 211.25 165.737 211.158 165.737 211.062C165.737 210.967 165.777 210.875 165.85 210.807C165.922 210.739 166.021 210.701 166.124 210.701H177.943C177.997 210.702 178.05 210.713 178.1 210.734C178.149 210.755 178.193 210.786 178.229 210.824C178.265 210.864 178.29 210.91 178.303 210.96C178.317 211.01 178.318 211.062 178.306 211.113L177.184 217.012C177.174 217.097 177.131 217.176 177.062 217.234C176.994 217.291 176.905 217.323 176.813 217.322V217.322Z" fill="white"/>
<path d="M251.388 206.052H198.485C196.873 206.052 195.567 207.27 195.567 208.774V209.849C195.567 211.353 196.873 212.571 198.485 212.571H251.388C252.999 212.571 254.306 211.353 254.306 209.849V208.774C254.306 207.27 252.999 206.052 251.388 206.052Z" fill="#E0E0E0"/>
<path d="M222.339 218.867H198.485C196.873 218.867 195.567 220.086 195.567 221.589V222.665C195.567 224.168 196.873 225.387 198.485 225.387H222.339C223.951 225.387 225.257 224.168 225.257 222.665V221.589C225.257 220.086 223.951 218.867 222.339 218.867Z" fill="#E0E0E0"/>
<path d="M278.71 191.135C278.71 191.236 248.144 191.323 210.451 191.323C172.757 191.323 142.176 191.236 142.176 191.135C142.176 191.034 172.741 190.947 210.451 190.947C248.16 190.947 278.71 191.034 278.71 191.135Z" fill="#E0E0E0"/>
<path d="M243.144 239.141H179.196C172.267 239.141 166.65 244.381 166.65 250.844V255.444C166.65 261.907 172.267 267.147 179.196 267.147H243.144C250.074 267.147 255.691 261.907 255.691 255.444V250.844C255.691 244.381 250.074 239.141 243.144 239.141Z" fill="#2536A8"/>
<path d="M209.414 251.819C209.414 253.263 208.283 254.101 206.472 254.101H205.311V255.718H203.438V249.53H206.472C208.283 249.53 209.414 250.411 209.414 251.819ZM207.525 251.819C207.525 251.249 207.13 250.909 206.356 250.909H205.311V252.7H206.356C207.13 252.7 207.525 252.39 207.525 251.819Z" fill="white"/>
<path d="M214.437 254.519H211.635L211.109 255.718H209.197L212.122 249.53H213.972L216.906 255.718H214.955L214.437 254.519ZM213.887 253.227L213.036 251.249L212.184 253.227H213.887Z" fill="white"/>
<path d="M220.59 253.501V255.718H218.717V253.473L216.186 249.53H218.167L219.715 251.992L221.263 249.53H223.082L220.59 253.501Z" fill="white"/>
<path d="M164.415 83.3343C165.151 80.4359 163.229 77.5295 160.122 76.8428C157.015 76.156 153.899 77.9489 153.163 80.8473C152.427 83.7457 154.349 86.6521 157.456 87.3388C160.563 88.0256 163.679 86.2327 164.415 83.3343Z" fill="#2536A8"/>
<path d="M229.971 79.3118H190.915C189.744 79.3118 188.794 80.1975 188.794 81.29V82.0626C188.794 83.1552 189.744 84.0409 190.915 84.0409H229.971C231.142 84.0409 232.092 83.1552 232.092 82.0626V81.29C232.092 80.1975 231.142 79.3118 229.971 79.3118Z" fill="#E0E0E0"/>
<path d="M259.739 275.226H171.356V280.735H259.739V275.226Z" fill="#263238"/>
<path d="M175.543 277.97C176.317 278.215 186.673 278.215 186.673 297.283C186.673 316.351 186.155 340.011 197.022 340.733C207.889 341.455 265.08 340.733 265.08 340.733V292.879C265.08 289.044 263.451 285.364 260.55 282.646C257.649 279.927 253.711 278.391 249.6 278.374L175.543 277.97Z" fill="#FAFAFA"/>
<path d="M175.543 277.97L218.531 278.093L240.343 278.165H246.318C248.387 278.087 250.459 278.181 252.51 278.446C254.651 278.829 256.682 279.627 258.472 280.789C260.261 281.95 261.769 283.45 262.897 285.19C264.091 286.98 264.854 288.99 265.134 291.081C265.25 292.139 265.296 293.203 265.273 294.266V297.464C265.273 301.753 265.273 306.128 265.273 310.604V340.928H265.072C245.072 341.152 226.054 341.318 208.763 341.188C206.604 341.188 204.475 341.138 202.37 341.102C200.265 341.066 198.198 341.051 196.124 340.784C195.103 340.576 194.145 340.157 193.322 339.557C192.541 338.944 191.863 338.226 191.31 337.427C190.278 335.855 189.496 334.153 188.988 332.373C188.034 329.023 187.418 325.598 187.145 322.142C186.828 318.835 186.689 315.644 186.611 312.604C186.441 306.518 186.611 301.016 186.495 296.193C186.379 291.37 185.597 287.219 184.003 284.172C183.309 282.818 182.372 281.585 181.232 280.526C180.375 279.774 179.389 279.161 178.314 278.714C177.411 278.385 176.475 278.144 175.52 277.992L176.255 278.1C176.973 278.213 177.674 278.402 178.345 278.663C179.438 279.104 180.442 279.715 181.317 280.468C182.477 281.528 183.433 282.766 184.142 284.129C185.776 287.19 186.596 291.385 186.72 296.208C186.844 301.031 186.72 306.54 186.898 312.619C186.983 315.651 187.13 318.835 187.455 322.142C187.736 325.576 188.355 328.979 189.305 332.308C189.805 334.054 190.571 335.725 191.581 337.268C192.115 338.037 192.77 338.729 193.523 339.318C194.307 339.881 195.213 340.277 196.178 340.481C198.16 340.726 200.273 340.712 202.37 340.777C204.468 340.842 206.604 340.849 208.763 340.863C226.039 340.972 245.064 340.791 265.064 340.567L264.863 340.755V310.59C264.863 306.128 264.863 301.738 264.863 297.45V294.244C264.892 293.196 264.851 292.147 264.739 291.103C264.341 288.103 262.932 285.299 260.717 283.093C258.501 280.888 255.592 279.395 252.409 278.829C250.389 278.568 248.348 278.471 246.31 278.54L240.358 278.504L218.686 278.345L175.543 277.97Z" fill="#263238"/>
<path d="M197.285 340.741C197.285 340.741 206.232 340.741 208.121 328.431C210.404 313.76 208.121 300.908 220.28 300.424C232.44 299.94 265.049 300.424 265.049 300.424V340.741H197.285Z" fill="#E0E0E0"/>
<path d="M218.787 300.569C218.787 300.569 228.593 299.464 228.593 314.669C228.593 329.875 228.849 339.939 239.716 341.058C250.583 342.177 317.356 341.058 317.356 341.058C317.356 341.058 306.744 336.394 305.97 322.633C305.196 308.872 302.1 300.482 291.473 300.215C280.846 299.948 218.787 300.569 218.787 300.569Z" fill="#FAFAFA"/>
<path d="M218.786 300.569H219.444H221.372L228.81 300.46L256.171 300.186L275.087 300.063H285.637C287.448 300.063 289.29 300.063 291.155 300.114C293.073 300.126 294.973 300.466 296.759 301.117C298.569 301.864 300.138 303.039 301.31 304.525C302.483 306.045 303.39 307.729 303.996 309.514C305.146 313.196 305.829 316.991 306.032 320.821C306.101 321.795 306.156 322.77 306.272 323.709L306.427 325.153L306.721 326.597L306.86 327.319L307.077 328.041L307.51 329.485C307.862 330.421 308.273 331.337 308.741 332.228C310.615 335.898 313.652 338.942 317.441 340.95L318.114 341.297H317.34H315.49C297.572 341.571 280.505 341.751 264.979 341.744C257.239 341.744 249.832 341.744 242.928 341.441C241.223 341.399 239.525 341.227 237.85 340.928C236.224 340.581 234.712 339.87 233.446 338.856C232.263 337.856 231.332 336.623 230.722 335.246C230.127 333.948 229.688 332.592 229.413 331.203C228.918 328.633 228.638 326.031 228.578 323.42C228.477 320.951 228.469 318.626 228.469 316.445C228.469 315.362 228.469 314.279 228.415 313.305C228.415 312.799 228.415 312.308 228.338 311.825C228.26 311.341 228.214 310.872 228.152 310.417L228.059 309.731C228.013 309.507 227.958 309.29 227.904 309.074C227.804 308.641 227.695 308.215 227.602 307.803L227.169 306.633L226.96 306.077L226.681 305.558C226.101 304.317 225.222 303.217 224.112 302.345C223.312 301.688 222.373 301.196 221.356 300.901C220.735 300.714 220.089 300.604 219.437 300.576C219.212 300.576 219.05 300.576 218.934 300.576H218.771C218.825 300.573 218.879 300.573 218.934 300.576C219.101 300.567 219.269 300.567 219.437 300.576C220.096 300.592 220.749 300.692 221.379 300.872C222.413 301.148 223.371 301.628 224.189 302.28C225.323 303.155 226.227 304.261 226.828 305.514C228.376 308.28 228.709 312.142 228.694 316.467C228.694 318.633 228.694 320.972 228.833 323.434C228.909 326.031 229.196 328.618 229.692 331.174C229.967 332.543 230.403 333.88 230.992 335.16C231.602 336.482 232.516 337.663 233.67 338.618C234.897 339.6 236.365 340.285 237.943 340.611C239.597 340.905 241.275 341.069 242.958 341.102C249.855 341.369 257.231 341.376 264.994 341.376C280.513 341.376 297.58 341.167 315.498 340.9L317.348 340.863L317.263 341.224C313.392 339.18 310.29 336.075 308.377 332.329C307.904 331.421 307.488 330.488 307.131 329.535L306.69 328.091L306.473 327.369L306.326 326.647L306.032 325.203L305.877 323.759C305.761 322.77 305.707 321.803 305.637 320.871C305.441 317.068 304.765 313.3 303.625 309.644C303.044 307.871 302.16 306.196 301.009 304.684C299.878 303.243 298.362 302.103 296.612 301.377C294.87 300.742 293.018 300.407 291.148 300.388C289.282 300.388 287.448 300.345 285.637 300.33H275.087L256.171 300.403L228.81 300.561L221.372 300.598H219.437L218.786 300.569Z" fill="#263238"/>
<path d="M221.364 300.547C221.364 300.59 220.59 300.547 219.197 300.699C217.237 300.953 215.414 301.779 213.988 303.06C212.169 304.641 210.807 307.233 210.118 310.229C209.429 313.225 209.344 316.669 209.212 320.243C209.161 323.622 208.741 326.987 207.958 330.286C207.565 331.718 207.028 333.113 206.356 334.452C205.805 335.638 205.095 336.754 204.243 337.773C203.524 338.61 202.638 339.308 201.635 339.831C200.863 340.199 200.04 340.464 199.189 340.618C198.655 340.705 198.114 340.751 197.571 340.755C197.383 340.771 197.194 340.771 197.006 340.755C197.192 340.715 197.381 340.693 197.571 340.69C198.092 340.659 198.609 340.591 199.119 340.488C199.944 340.315 200.739 340.036 201.48 339.658C202.451 339.136 203.303 338.442 203.988 337.614C204.804 336.603 205.485 335.502 206.016 334.337C206.66 333.007 207.178 331.628 207.564 330.214C208.317 326.933 208.722 323.591 208.771 320.236C208.934 316.676 208.988 313.233 209.715 310.171C210.443 307.11 211.844 304.489 213.748 302.879C215.223 301.582 217.112 300.771 219.127 300.569C219.438 300.528 219.75 300.506 220.064 300.504C220.293 300.492 220.523 300.492 220.753 300.504C220.958 300.498 221.162 300.513 221.364 300.547V300.547Z" fill="#263238"/>
<path d="M253.934 289.031C253.934 289.132 241.395 289.219 225.931 289.219C210.466 289.219 197.927 289.132 197.927 289.031C197.927 288.93 210.458 288.843 225.931 288.843C241.403 288.843 253.934 288.923 253.934 289.031Z" fill="#E0E0E0"/>
<path d="M255.095 296.8C255.095 296.901 242.966 296.987 228.005 296.987C213.043 296.987 200.915 296.901 200.915 296.8C200.915 296.699 213.036 296.612 228.005 296.612C242.974 296.612 255.095 296.699 255.095 296.8Z" fill="#E0E0E0"/>
<path d="M293.276 311.904C293.276 312.012 280.738 312.092 265.273 312.092C249.809 312.092 237.27 312.012 237.27 311.904C237.27 311.796 249.809 311.716 265.273 311.716C280.738 311.716 293.276 311.81 293.276 311.904Z" fill="#E0E0E0"/>
<path d="M293.973 320.98C293.973 321.081 282.471 321.167 268.284 321.167C254.096 321.167 242.595 321.081 242.595 320.98C242.595 320.879 254.096 320.792 268.284 320.792C282.471 320.792 293.973 320.879 293.973 320.98Z" fill="#E0E0E0"/>
<path d="M56.3861 108.163L51.2699 107.585C47.1873 110.13 42.2321 111.158 37.3783 110.467C32.5244 109.776 28.1231 107.417 25.0393 103.853C21.9556 100.289 20.4126 95.7778 20.7135 91.2063C21.0145 86.6348 23.1376 82.3336 26.6657 79.1483C30.1938 75.9629 34.8715 74.1237 39.7795 73.9923C44.6874 73.8609 49.4706 75.4467 53.1887 78.438C56.9069 81.4293 59.2911 85.6097 59.8727 90.1576C60.4544 94.7054 59.1913 99.2917 56.3319 103.015V103.015L56.3861 108.163Z" fill="white"/>
<path d="M56.386 108.163C56.386 108.163 56.386 108.04 56.386 107.809C56.386 107.578 56.386 107.246 56.386 106.813C56.386 105.932 56.3395 104.647 56.3086 103.008L56.4247 103.058C56.4182 103.065 56.4104 103.07 56.4017 103.073C56.3931 103.077 56.3838 103.078 56.3744 103.078C56.365 103.078 56.3556 103.077 56.347 103.073C56.3384 103.07 56.3305 103.065 56.324 103.058C56.315 103.045 56.3103 103.03 56.3103 103.015C56.3103 103 56.315 102.985 56.324 102.972C58.1691 100.555 59.3517 97.7541 59.7683 94.8131C60.0391 92.8917 59.9843 90.9425 59.6058 89.0371C59.1637 86.8731 58.3063 84.8014 57.0748 82.9217C55.6956 80.8511 53.8943 79.0531 51.7729 77.6294C49.4869 76.0767 46.8587 75.0186 44.0794 74.5321C41.1219 74.0197 38.0784 74.1407 35.1784 74.8859C32.1313 75.6802 29.3438 77.1688 27.0668 79.2179C25.8871 80.2429 24.8473 81.3996 23.9708 82.6618C23.5761 83.3044 23.1968 83.9397 22.8253 84.5967L22.3609 85.6076L22.1365 86.1057L21.9584 86.6256C21.0226 89.3214 20.7579 92.1808 21.1844 94.9863C21.5895 97.6249 22.6265 100.144 24.2185 102.358C26.9936 106.303 31.2988 109.093 36.231 110.141L37.8564 110.401C38.3905 110.48 38.9245 110.488 39.4044 110.538C40.4054 110.599 41.4101 110.58 42.4075 110.48C45.5611 110.199 48.5943 109.208 51.2466 107.592H51.293L55.0624 108.055L56.0531 108.184L56.4014 108.235H56.0764L55.1011 108.141L51.2776 107.751H51.324C48.6704 109.425 45.6163 110.464 42.4307 110.776C41.4211 110.885 40.4032 110.909 39.3889 110.849C38.8626 110.805 38.3285 110.798 37.7867 110.726L36.1381 110.466C33.7825 109.978 31.5423 109.092 29.5282 107.852C27.289 106.443 25.3735 104.632 23.8934 102.524C22.2701 100.278 21.2118 97.7182 20.7974 95.0369C20.3548 92.1815 20.6196 89.2695 21.5714 86.5245L21.7495 85.9974L21.9817 85.4848C22.1442 85.1455 22.299 84.7628 22.4538 84.4596C22.8021 83.7809 23.2278 83.1383 23.6148 82.4813C24.4924 81.2002 25.5318 80.0221 26.7108 78.9724C29.0291 76.8976 31.8646 75.394 34.9616 74.5971C37.9416 73.8142 41.075 73.6833 44.1181 74.2144C46.9454 74.7118 49.6169 75.7949 51.9355 77.384C54.0781 78.8342 55.893 80.6645 57.2761 82.7701C58.5223 84.6809 59.3852 86.7874 59.8225 88.9865C60.1922 90.9201 60.2366 92.8956 59.9541 94.8419C59.51 97.8088 58.2899 100.628 56.4014 103.051L56.2931 102.964C56.2996 102.958 56.3074 102.953 56.316 102.95C56.3247 102.946 56.334 102.944 56.3434 102.944C56.3528 102.944 56.3621 102.946 56.3707 102.95C56.3794 102.953 56.3872 102.958 56.3937 102.964C56.3971 102.971 56.3989 102.979 56.3989 102.986C56.3989 102.994 56.3971 103.001 56.3937 103.008V106.856C56.3937 107.275 56.3937 107.578 56.3937 107.838C56.3937 108.098 56.386 108.163 56.386 108.163Z" fill="#263238"/>
<path d="M31.7109 93.4629L34.1645 91.0081L39.2265 94.9285L48.5532 85.9685L50.999 88.2645L39.033 99.5204L31.7109 93.4629Z" fill="#2536A8"/>
<path d="M75.0084 84.7989C75.5781 81.3579 77.5158 78.2432 80.4359 76.0745C83.356 73.9058 87.0443 72.8422 90.767 73.0953L91.541 73.1458C99.7764 74.1566 103.453 81.2539 102.145 88.9071L99.2733 116.069L99.134 121.679L79.5131 123.339L79.9388 111.484C79.9388 111.484 72.0749 109.795 72.5548 102.372C72.756 98.784 73.9093 91.4341 75.0084 84.7989Z" fill="#FFBF9D"/>
<path d="M79.8691 111.47C83.5661 111.717 87.2612 110.965 90.5116 109.304C90.5116 109.304 87.7485 114.661 79.8691 113.455V111.47Z" fill="#FF9A6C"/>
<path d="M78.0889 92.1994C78.065 92.4753 78.1577 92.749 78.3471 92.9622C78.5365 93.1753 78.8077 93.3109 79.1028 93.3401C79.2462 93.3595 79.3923 93.3523 79.5326 93.3188C79.673 93.2853 79.8049 93.2263 79.9207 93.1451C80.0365 93.0639 80.1339 92.9621 80.2074 92.8457C80.2809 92.7292 80.329 92.6004 80.349 92.4665C80.375 92.1894 80.2833 91.9138 80.0937 91.6991C79.904 91.4844 79.6316 91.3478 79.335 91.3186C79.1911 91.2992 79.0445 91.3068 78.9037 91.3407C78.7629 91.3746 78.6307 91.4343 78.5148 91.5162C78.3989 91.5981 78.3015 91.7007 78.2284 91.818C78.1553 91.9353 78.1079 92.0649 78.0889 92.1994V92.1994Z" fill="#263238"/>
<path d="M76.4326 88.5461C76.5642 88.6905 77.4697 88.1562 78.6927 88.2428C79.9156 88.3295 80.767 88.9648 80.9063 88.8277C81.0456 88.6905 80.8521 88.51 80.4883 88.2212C79.9847 87.8432 79.3686 87.6188 78.7236 87.5786C78.0889 87.539 77.4565 87.6826 76.9125 87.9901C76.5177 88.2356 76.3707 88.4811 76.4326 88.5461Z" fill="#263238"/>
<path d="M89.5442 93.2174C89.5182 93.4927 89.609 93.7664 89.7972 93.9797C89.9854 94.1931 90.2558 94.329 90.5504 94.3582C90.694 94.3796 90.8408 94.3738 90.982 94.3411C91.1232 94.3084 91.2559 94.2496 91.3722 94.1681C91.4885 94.0865 91.586 93.984 91.6589 93.8666C91.7318 93.7492 91.7786 93.6192 91.7965 93.4846C91.8206 93.209 91.7292 92.9354 91.5416 92.7213C91.354 92.5072 91.0847 92.3693 90.7903 92.3366C90.6461 92.3152 90.4987 92.3213 90.357 92.3544C90.2154 92.3875 90.0824 92.447 89.966 92.5293C89.8496 92.6115 89.7522 92.7149 89.6797 92.8332C89.6072 92.9514 89.5611 93.0821 89.5442 93.2174V93.2174Z" fill="#263238"/>
<path d="M88.4297 89.5714C88.5612 89.723 89.4668 89.1887 90.6897 89.2681C91.9127 89.3475 92.7641 89.9901 92.9034 89.8602C93.0427 89.7302 92.8492 89.5425 92.4777 89.2465C91.977 88.8695 91.3629 88.6474 90.7207 88.6111C90.0852 88.563 89.4501 88.7074 88.9095 89.0226C88.5148 89.2681 88.3677 89.528 88.4297 89.5714Z" fill="#263238"/>
<path d="M83.3366 97.7227C82.707 97.4917 82.0493 97.334 81.3784 97.2534C81.0688 97.2028 80.7746 97.1234 80.7359 96.9212C80.7364 96.62 80.8334 96.3258 81.0146 96.0765L82.1137 93.9105C83.6617 90.842 84.7685 88.3078 84.6369 88.25C84.5053 88.1923 83.1586 90.6398 81.626 93.7083C81.2623 94.4303 80.9062 95.1523 80.5734 95.8743C80.3477 96.2123 80.2573 96.6138 80.318 97.0079C80.3553 97.1129 80.4179 97.2086 80.5011 97.2875C80.5843 97.3663 80.6859 97.4263 80.7979 97.4627C80.9678 97.5191 81.1446 97.5555 81.3242 97.571C81.9854 97.7009 82.6616 97.7518 83.3366 97.7227V97.7227Z" fill="#263238"/>
<path d="M86.8661 98.7551C86.6726 98.7551 86.572 99.9681 85.3723 100.77C84.1726 101.571 82.7639 101.34 82.7407 101.492C82.7175 101.643 83.0348 101.751 83.6308 101.809C84.4074 101.872 85.183 101.678 85.8212 101.26C86.4329 100.859 86.8522 100.25 86.99 99.5638C87.0828 99.0728 86.959 98.7551 86.8661 98.7551Z" fill="#263238"/>
<path d="M88.4605 85.0877C88.5611 85.4053 89.7918 85.3404 91.2082 85.6003C92.6246 85.8602 93.7624 86.3223 93.9791 86.0335C94.072 85.9035 93.894 85.6003 93.4451 85.2682C92.8494 84.8606 92.1627 84.5839 91.4362 84.4589C90.7097 84.3339 89.9623 84.3637 89.25 84.5462C88.7082 84.705 88.4218 84.936 88.4605 85.0877Z" fill="#263238"/>
<path d="M77.1448 85.2754C77.3383 85.5498 78.1974 85.3404 79.2114 85.3909C80.2253 85.4415 81.069 85.6942 81.2857 85.4342C81.3863 85.3115 81.2857 85.0444 80.9142 84.77C80.4319 84.4449 79.8578 84.2592 79.2633 84.2361C78.6687 84.213 78.0801 84.3535 77.5705 84.64C77.199 84.8855 77.0596 85.1454 77.1448 85.2754Z" fill="#263238"/>
<path d="M100.303 96.026C100.333 95.7548 100.422 95.4921 100.564 95.2539C100.707 95.0158 100.9 94.8073 101.132 94.6411C101.363 94.4749 101.629 94.3545 101.912 94.2872C102.196 94.22 102.491 94.2073 102.78 94.2499C104.258 94.481 105.876 95.3762 105.52 98.2281C104.955 103.282 99.6217 101.708 99.6294 101.564C99.6371 101.419 100.04 98.1487 100.303 96.026Z" fill="#FFBF9D"/>
<path d="M101.03 99.7803C101.03 99.7803 101.116 99.8525 101.27 99.9392C101.485 100.049 101.738 100.078 101.975 100.019C102.349 99.8478 102.668 99.5861 102.897 99.2609C103.125 98.9356 103.256 98.5589 103.275 98.1703C103.334 97.7386 103.292 97.3001 103.151 96.8851C103.114 96.7265 103.037 96.5783 102.927 96.4528C102.817 96.3273 102.676 96.228 102.516 96.1631C102.41 96.1271 102.294 96.126 102.187 96.1602C102.08 96.1943 101.989 96.2616 101.928 96.3508C101.843 96.488 101.866 96.5891 101.835 96.5963C101.804 96.6035 101.727 96.5025 101.835 96.3003C101.875 96.1763 101.964 96.0707 102.083 96.0043C102.163 95.9579 102.252 95.927 102.345 95.9134C102.438 95.8997 102.533 95.9036 102.625 95.9249C102.828 95.9874 103.013 96.0949 103.163 96.2382C103.312 96.3815 103.422 96.5563 103.484 96.7479C103.665 97.2093 103.721 97.7055 103.647 98.1919C103.499 99.2027 102.873 100.105 102.029 100.235C101.879 100.262 101.724 100.257 101.576 100.219C101.428 100.182 101.292 100.113 101.177 100.019C101.023 99.9103 101.007 99.7948 101.03 99.7803Z" fill="#FF9A6C"/>
<path d="M104.645 90.8781C104.196 92.3221 104.359 94.7408 102.973 94.4087C100.21 93.7589 100.876 99.0367 99.552 98.5169C98.2285 97.997 97.0907 96.5097 97.0056 93.2607C96.905 89.1453 98.6774 86.1707 96.9436 81.4488C96.3883 80.508 95.5822 79.7168 94.6033 79.1514C93.6244 78.5861 92.5057 78.2658 91.3554 78.2215C90.1959 78.1977 89.0492 78.4506 88.0239 78.956C86.9985 79.4614 86.1285 80.2026 85.4962 81.1095C85.2485 79.6655 84.4977 77.4995 83.1278 76.7775C82.4411 76.4265 81.6591 76.2716 80.8788 76.3319C80.0985 76.3923 79.3545 76.6652 78.7392 77.1168C78.151 77.5979 77.769 78.2612 77.6638 78.9843C77.5585 79.7074 77.737 80.4417 78.1664 81.0517C77.8492 81.1412 77.5096 81.1334 77.1975 81.0294C76.8854 80.9255 76.6173 80.7308 76.4327 80.4741C76.4036 80.8099 76.4498 81.1477 76.5684 81.4659C76.687 81.7842 76.8754 82.0758 77.1215 82.3224C76.5511 82.189 76.0527 81.8654 75.7206 81.4127C75.8599 82.012 75.9915 82.604 76.1308 83.196C73.8088 83.2538 71.5332 81.1528 70.8831 79.29C69.9078 76.4526 70.6586 73.5934 72.3614 71.0737C73.1935 69.8 74.3554 68.7418 75.7403 67.9962C77.1251 67.2506 78.6886 66.8416 80.2872 66.8066C83.4761 66.8066 86.1463 68.2506 87.377 70.987C89.4513 69.6224 93.6464 69.1459 95.9529 70.1278C97.1068 70.6309 98.1032 71.4014 98.8471 72.3658C99.5909 73.3302 100.057 74.4563 100.202 75.6367C100.945 75.3941 101.743 75.3398 102.515 75.4793C103.288 75.6189 104.007 75.9473 104.599 76.4309L104.893 76.6692C105.704 77.3909 106.306 78.2924 106.643 79.2897C106.98 80.2871 107.041 81.3478 106.82 82.373C106.65 83.2033 106.34 84.0552 106.162 84.7195C105.628 86.7194 104.645 90.8781 104.645 90.8781Z" fill="#263238"/>
<path d="M76.0688 80.373C76.0688 80.373 75.9992 80.373 75.8831 80.2358C75.7148 80.0963 75.5618 79.9415 75.4264 79.7737C74.9158 79.143 74.6 78.3939 74.5131 77.6077C74.436 77.0266 74.4929 76.4368 74.6797 75.8777C74.8666 75.3187 75.1792 74.8033 75.5967 74.366C76.1106 73.8292 76.7569 73.4173 77.4797 73.1657C78.2025 72.9141 78.9801 72.8305 79.7453 72.922C80.5336 73.0348 81.2848 73.3111 81.9435 73.7306C82.565 74.1008 83.1211 74.5587 83.5921 75.088C84.9142 76.6031 85.6018 78.5145 85.5271 80.4669C85.5271 80.7412 85.5271 80.9506 85.4574 81.095C85.4518 81.1687 85.4362 81.2415 85.411 81.3116C85.4866 80.2651 85.3794 79.2142 85.0937 78.1998C84.7648 77.1082 84.1954 76.0926 83.4218 75.2179C82.5101 74.1226 81.1991 73.3775 79.7376 73.1241C79.008 73.0407 78.2677 73.1224 77.5792 73.3625C76.8908 73.6025 76.2744 73.9938 75.7824 74.5031C75.3809 74.9191 75.0776 75.4092 74.8923 75.9415C74.707 76.4739 74.6437 77.0367 74.7066 77.5933C74.7784 78.353 75.0612 79.0821 75.527 79.7088C75.8521 80.142 76.0843 80.3586 76.0688 80.373Z" fill="#455A64"/>
<path d="M75.0007 82.6402C74.9362 82.5647 74.8816 82.4823 74.8381 82.3947C74.7375 82.2286 74.5905 81.9831 74.4124 81.6727C73.8926 80.7687 73.465 79.8211 73.1353 78.8424C72.9176 78.1599 72.7979 77.4534 72.7793 76.7414C72.751 75.9178 72.912 75.098 73.2514 74.3372C73.6424 73.491 74.291 72.7706 75.1168 72.265C75.9991 71.7295 77.015 71.4161 78.0657 71.3553C79.1205 71.3025 80.1754 71.4575 81.1617 71.8102C82.0673 72.1382 82.9152 72.5909 83.6772 73.1531C85.0093 74.0713 85.976 75.3769 86.4249 76.8642C86.7085 77.8711 86.6517 78.9352 86.2624 79.911C86.1575 80.1649 86.0225 80.4071 85.8599 80.633C85.8084 80.7187 85.7431 80.7966 85.6664 80.864C85.8699 80.5451 86.041 80.2092 86.1772 79.8605C86.5208 78.8987 86.5504 77.8634 86.2624 76.8858C85.8013 75.4372 84.8444 74.1692 83.5379 73.2758C82.0103 72.1155 80.0894 71.5011 78.1199 71.543C77.1081 71.6007 76.1295 71.9017 75.2793 72.4166C74.4926 72.8965 73.8716 73.5786 73.4914 74.3805C73.1615 75.1161 73.0007 75.9081 73.0192 76.7053C73.0268 77.4013 73.1335 78.0933 73.3366 78.763C73.6455 79.7378 74.047 80.685 74.5363 81.5933L74.9233 82.3153C74.9632 82.4202 74.9892 82.5293 75.0007 82.6402V82.6402Z" fill="#455A64"/>
<path d="M102.725 87.6002C102.725 87.6002 103.228 87.2176 103.894 86.4884C104.752 85.5341 105.347 84.399 105.628 83.1816C105.892 81.9611 105.828 80.6985 105.442 79.5066C105.148 78.5897 104.815 78.0626 104.854 78.0626C104.957 78.1659 105.043 78.2827 105.109 78.4092C105.306 78.7469 105.472 79.0996 105.605 79.4633C106.051 80.6757 106.139 81.9778 105.86 83.2329C105.581 84.4881 104.944 85.65 104.018 86.5967C103.74 86.8824 103.437 87.1456 103.112 87.3836C102.996 87.4738 102.865 87.5468 102.725 87.6002V87.6002Z" fill="#455A64"/>
<path d="M97.7795 87.4559C97.7795 87.4559 98.0504 87.3404 98.4839 87.066C99.0836 86.6808 99.5577 86.1486 99.8539 85.5281L100.078 85.0444L100.032 85.5715C99.9622 86.2935 99.8848 87.1093 99.7997 87.9974L99.6217 87.8963C100.399 87.4011 101.063 86.7671 101.576 86.031C102.089 85.2948 102.44 84.4712 102.609 83.6076C102.758 82.8195 102.758 82.0132 102.609 81.225C102.439 80.5014 102.18 79.7988 101.835 79.1312C101.835 79.1312 101.874 79.1673 101.936 79.254C102.025 79.3791 102.105 79.5094 102.176 79.6438C102.447 80.1347 102.647 80.6566 102.772 81.1961C103.06 82.493 102.926 83.8405 102.388 85.0662C101.85 86.2919 100.933 87.3401 99.7532 88.0768L99.552 88.1995V87.9757C99.6526 87.0877 99.7455 86.2646 99.8306 85.557L100.009 85.6003C99.6836 86.2403 99.1677 86.7793 98.5226 87.1526C98.346 87.2489 98.1624 87.3333 97.973 87.4053C97.9122 87.4326 97.8467 87.4497 97.7795 87.4559V87.4559Z" fill="#455A64"/>
<path d="M96.2702 76.7847C95.957 76.2318 95.5311 75.7413 95.0163 75.3407C94.4454 74.917 93.7739 74.6274 93.0581 74.496C92.1839 74.3408 91.2807 74.4158 90.4497 74.7126C89.6115 75.0051 88.8605 75.4804 88.2593 76.0988C87.7672 76.6052 87.3672 77.1832 87.075 77.81C86.8274 78.3984 86.6306 79.0044 86.4868 79.6222C86.4705 79.4505 86.4835 79.2774 86.5255 79.1096C86.6029 78.6425 86.7353 78.1849 86.9202 77.745C87.1982 77.0907 87.5934 76.4852 88.089 75.9544C88.7104 75.3077 89.4915 74.8121 90.3645 74.5104C91.2385 74.2013 92.1883 74.1287 93.1045 74.301C93.8498 74.4477 94.5441 74.7653 95.1246 75.2252C95.513 75.5349 95.8358 75.9096 96.0767 76.3299C96.138 76.4448 96.1922 76.5629 96.2392 76.6836C96.2702 76.7342 96.2779 76.7775 96.2702 76.7847Z" fill="#455A64"/>
<path d="M95.0009 72.922C94.5249 72.6928 94.0241 72.5112 93.5071 72.3805C92.2404 72.1277 90.9187 72.3016 89.7764 72.8714C88.6518 73.4726 87.7358 74.3622 87.1371 75.4345C86.6649 76.2576 86.5101 76.828 86.4714 76.8135C86.4734 76.6757 86.4996 76.5392 86.5488 76.4092C86.6596 76.0489 86.8046 75.6985 86.9823 75.3623C87.561 74.2336 88.4953 73.2965 89.6603 72.6765C90.8442 72.0789 92.2258 71.9191 93.5303 72.2288C93.9202 72.3248 94.293 72.4732 94.6371 72.6693C94.7724 72.7343 94.8954 72.8197 95.0009 72.922V72.922Z" fill="#455A64"/>
<path d="M77.5318 311.998L78.0813 325.882C78.0813 325.882 63.1354 331.066 62.9651 333.643H91.8663L91.9669 311.983L77.5318 311.998Z" fill="#263238"/>
<path d="M87.0132 324.712C87.2924 324.79 87.5309 324.961 87.6825 325.193C87.834 325.425 87.8879 325.702 87.8337 325.969C87.7586 326.231 87.5789 326.456 87.3313 326.598C87.0837 326.741 86.7871 326.789 86.5024 326.734C86.2088 326.648 85.9594 326.465 85.8022 326.218C85.6451 325.972 85.5912 325.68 85.651 325.398C85.756 325.132 85.9685 324.914 86.2432 324.791C86.5178 324.668 86.833 324.65 87.1216 324.741" fill="#E0E0E0"/>
<path d="M91.8662 333.622L91.7888 331.456L64.1106 332.293C64.1106 332.293 62.818 332.82 62.965 333.665L91.8662 333.622Z" fill="#263238"/>
<path d="M77.609 325.752C77.609 325.882 78.3211 325.94 79.0177 326.358C79.7143 326.777 80.078 327.34 80.2096 327.283C80.3412 327.225 80.1322 326.474 79.2808 325.976C78.4294 325.478 77.578 325.622 77.609 325.752Z" fill="white"/>
<path d="M74.5828 326.922C74.5828 327.052 75.1633 327.268 75.6431 327.831C76.123 328.394 76.2623 328.972 76.4171 328.965C76.5719 328.958 76.6416 328.243 76.0379 327.521C75.4342 326.799 74.5828 326.792 74.5828 326.922Z" fill="white"/>
<path d="M72.8645 330.308C72.9884 330.308 73.1896 329.672 72.8645 328.958C72.5394 328.243 71.8428 327.947 71.7809 328.055C71.719 328.163 72.1292 328.553 72.4156 329.145C72.702 329.737 72.7562 330.293 72.8645 330.308Z" fill="white"/>
<path d="M77.8646 322.568C77.9265 322.691 78.569 322.51 79.3662 322.568C80.1634 322.626 80.7903 322.85 80.86 322.734C80.9297 322.618 80.3337 322.156 79.3971 322.106C78.4606 322.055 77.795 322.467 77.8646 322.568Z" fill="white"/>
<path d="M110.682 313.269L111.828 330.048L108.639 343.564C108.585 343.795 108.583 344.035 108.633 344.267C108.683 344.499 108.784 344.72 108.929 344.914C109.075 345.108 109.261 345.273 109.477 345.397C109.694 345.521 109.935 345.602 110.187 345.636V345.636C110.476 345.677 110.773 345.653 111.05 345.565C111.328 345.477 111.578 345.328 111.781 345.13C114.421 342.567 124.088 333.087 123.925 331.867C123.747 330.423 123.972 314.099 123.972 314.099L110.682 313.269Z" fill="#263238"/>
<path d="M110.187 345.636L123.879 330.734V331.456C123.906 332.071 123.697 332.675 123.291 333.16C122.207 334.452 119.119 337.975 111.804 345.138C111.595 345.342 111.335 345.495 111.048 345.583C110.76 345.671 110.454 345.692 110.156 345.643L110.187 345.636Z" fill="#263238"/>
<g opacity="0.6">
<path d="M119.97 325.456C119.753 325.615 119.607 325.843 119.562 326.097C119.516 326.351 119.573 326.611 119.723 326.828C119.887 327.033 120.129 327.172 120.399 327.217C120.67 327.261 120.948 327.207 121.178 327.066C121.402 326.896 121.551 326.654 121.597 326.388C121.643 326.122 121.582 325.849 121.425 325.622C121.232 325.42 120.961 325.297 120.672 325.28C120.382 325.262 120.097 325.351 119.877 325.528" fill="white"/>
</g>
<path d="M113.979 338.141C113.521 337.633 112.964 337.21 112.339 336.892C111.668 336.673 110.959 336.574 110.249 336.604C110.249 336.56 110.458 336.423 110.876 336.351C111.428 336.272 111.992 336.342 112.502 336.553C113.013 336.764 113.448 337.107 113.755 337.542C113.979 337.896 114.018 338.12 113.979 338.141Z" fill="white"/>
<path d="M112.795 340.437C112.267 340.187 111.725 339.965 111.17 339.773C110.582 339.697 109.99 339.649 109.397 339.629C109.669 339.459 109.979 339.352 110.303 339.316C110.627 339.279 110.956 339.315 111.263 339.419C112.338 339.665 112.888 340.387 112.795 340.437Z" fill="white"/>
<path d="M116.24 335.167C115.459 334.717 114.644 334.321 113.801 333.983C112.917 333.765 112.017 333.606 111.108 333.506C112.044 333.297 113.025 333.342 113.934 333.636C114.844 333.931 115.644 334.462 116.24 335.167V335.167Z" fill="white"/>
<path d="M116.348 330.041C116.301 330.142 115.287 329.788 114.026 329.795C112.764 329.802 111.704 330.135 111.704 330.026C112.415 329.629 113.228 329.42 114.057 329.42C114.886 329.42 115.699 329.629 116.41 330.026L116.348 330.041Z" fill="white"/>
<path d="M116.139 325.102C115.345 324.898 114.525 324.794 113.701 324.792C112.886 324.909 112.092 325.128 111.34 325.441C111.34 325.441 111.495 325.189 111.897 324.951C112.436 324.649 113.043 324.469 113.67 324.423C114.296 324.377 114.925 324.472 115.504 324.698C115.945 324.9 116.162 325.066 116.139 325.102Z" fill="white"/>
<path d="M113.693 323.853C113.623 323.648 113.604 323.431 113.639 323.218C113.676 322.634 113.833 322.063 114.103 321.536C114.271 321.136 114.572 320.796 114.962 320.568C115.1 320.509 115.254 320.489 115.404 320.511C115.554 320.533 115.694 320.595 115.806 320.691C116.005 320.886 116.118 321.144 116.123 321.413C116.108 321.979 115.882 322.522 115.483 322.949C115.085 323.376 114.539 323.66 113.941 323.752C113.346 323.83 112.74 323.742 112.198 323.499C111.657 323.257 111.205 322.87 110.899 322.387C110.825 322.266 110.779 322.131 110.765 321.992C110.75 321.852 110.767 321.712 110.814 321.579C110.885 321.448 110.997 321.341 111.136 321.271C111.274 321.202 111.432 321.173 111.588 321.189C112.033 321.261 112.45 321.443 112.795 321.716C113.301 322.063 113.736 322.49 114.08 322.98C114.328 323.319 114.405 323.535 114.382 323.543C113.888 322.928 113.298 322.385 112.633 321.933C112.321 321.705 111.954 321.554 111.565 321.492C111.482 321.482 111.399 321.497 111.326 321.535C111.254 321.573 111.196 321.631 111.162 321.702C111.115 321.883 111.146 322.075 111.247 322.236C111.524 322.644 111.921 322.969 112.39 323.172C112.859 323.376 113.382 323.449 113.894 323.384C114.4 323.306 114.863 323.07 115.206 322.714C115.549 322.359 115.753 321.905 115.783 321.427C115.786 321.235 115.714 321.048 115.582 320.9C115.525 320.843 115.45 320.804 115.367 320.789C115.285 320.775 115.2 320.786 115.125 320.821C114.783 321.008 114.512 321.291 114.351 321.629C113.991 322.328 113.768 323.081 113.693 323.853V323.853Z" fill="white"/>
<path d="M64.8691 194.644C63.3356 200.366 62.7201 206.269 63.0424 212.16C63.2514 215.9 76.123 323.853 76.123 323.853L92.4854 322.481L89.6603 221.546L90.3414 222.116C90.3414 222.116 100.094 264.584 100.744 271.299C101.324 277.327 109.103 325.803 109.103 325.803L124.986 325.081L121.387 263.797L116.572 208.203L114.645 192.001L64.8691 194.644Z" fill="#263238"/>
<path d="M92.8105 212.846C92.5689 213 92.3092 213.128 92.0365 213.228C91.3151 213.553 90.5494 213.783 89.7609 213.914C89.2052 214.004 88.6371 214.004 88.0814 213.914C87.4323 213.796 86.8317 213.511 86.3476 213.091C85.8521 212.594 85.5005 211.988 85.3259 211.329C85.1324 210.665 85.0241 209.972 84.8925 209.272C84.3816 206.463 84.0488 203.9 83.8631 202.052C83.7702 201.127 83.716 200.369 83.685 199.85C83.6502 199.579 83.6502 199.305 83.685 199.034C83.7656 199.295 83.8174 199.564 83.8398 199.835C83.9172 200.427 84.0179 201.164 84.134 202.001C84.3894 203.857 84.7609 206.405 85.2717 209.221C85.5272 210.607 85.6974 212.015 86.603 212.831C87.021 213.175 87.5155 213.427 88.0509 213.571C88.5863 213.715 89.1493 213.745 89.699 213.661C90.4722 213.551 91.2301 213.363 91.9591 213.098C92.2301 212.98 92.5162 212.895 92.8105 212.846V212.846Z" fill="#455A64"/>
<path d="M87.6478 199.575C87.6478 199.575 87.7716 199.489 88.0271 199.474C88.3948 199.479 88.7508 199.595 89.041 199.806C89.2638 199.961 89.4458 200.161 89.5732 200.391C89.7006 200.621 89.7701 200.876 89.7763 201.135C89.7414 201.454 89.6097 201.758 89.3965 202.01C89.1834 202.262 88.8976 202.452 88.5728 202.558C88.2479 202.664 87.8973 202.682 87.5622 202.609C87.227 202.536 86.9211 202.375 86.6803 202.146C86.5157 201.942 86.4024 201.706 86.3488 201.456C86.2952 201.206 86.3027 200.948 86.3707 200.702C86.4477 200.365 86.6508 200.066 86.9435 199.857C87.1524 199.712 87.2918 199.698 87.2995 199.712C86.9615 199.982 86.7276 200.347 86.6339 200.752C86.5885 200.961 86.5934 201.177 86.6483 201.385C86.7032 201.592 86.8066 201.785 86.9512 201.951C87.14 202.136 87.3846 202.263 87.6527 202.316C87.9208 202.369 88.1997 202.345 88.4528 202.247C88.7133 202.174 88.9449 202.031 89.1184 201.836C89.292 201.64 89.3997 201.401 89.428 201.149C89.4265 200.935 89.376 200.724 89.2799 200.53C89.1837 200.336 89.0442 200.163 88.8707 200.023C88.5261 199.754 88.0968 199.596 87.6478 199.575V199.575Z" fill="#455A64"/>
<path d="M116.348 207.214C116.144 207.267 115.933 207.292 115.721 207.286C115.151 207.325 114.58 207.325 114.01 207.286C110.214 207 106.639 205.504 103.886 203.048C103.472 202.68 103.086 202.284 102.733 201.864C102.485 201.568 102.362 201.395 102.385 201.38C102.408 201.366 103.004 201.98 104.072 202.86C106.864 205.163 110.341 206.618 114.041 207.034C115.45 207.149 116.34 207.127 116.348 207.214Z" fill="#455A64"/>
<path d="M72.2299 199.554C71.9713 200.163 71.6278 200.739 71.2082 201.265C70.2858 202.587 69.1942 203.799 67.9574 204.875C66.7242 205.947 65.3542 206.873 63.8784 207.633C63.2843 207.975 62.644 208.242 61.9744 208.427C62.543 208.061 63.132 207.724 63.7391 207.416C65.148 206.599 66.4721 205.661 67.6942 204.615C68.9057 203.557 70.0071 202.394 70.9837 201.142C71.3652 200.59 71.7813 200.06 72.2299 199.554V199.554Z" fill="#455A64"/>
<path d="M55.9835 138.573C53.5532 145.194 53.8241 144.624 49.2729 164.407C48.437 168.06 49.9154 173.793 53.4448 175.525C56.9743 177.258 63.2436 175.352 65.3412 172.175L68.7158 142.321L55.9835 138.573Z" fill="#FFBF9D"/>
<path d="M114.653 174.45L114.552 158.717L114.622 157.172L131.735 153.447C131.735 153.447 128.376 143.122 125.295 132.025C123.515 125.613 117.594 122.393 116.162 121.7L115.845 121.563L99.3741 115.065C96.0459 118.372 91.2007 121.029 86.5334 119.758C83.8758 118.948 81.5228 117.445 79.7532 115.426L68.6618 118.986C65.4557 120.012 62.7381 122.056 60.9837 124.762C58.6617 128.624 51.239 146.205 51.0842 146.566L64.8305 147.714C64.8305 147.714 62.3924 189.316 63.2825 196.745C63.2825 196.745 66.6261 198.911 75.0473 199.272C92.1372 199.994 117.563 198.889 117.563 198.889C117.161 196.492 116.743 192.485 116.51 190.456L114.653 174.45Z" fill="#2536A8"/>
<path d="M65.3257 132.256C65.3954 132.256 65.0316 142.176 64.513 154.407C63.9944 166.638 63.5145 176.558 63.4681 176.558C63.4217 176.558 63.7622 166.638 64.2421 154.4C64.722 142.162 65.256 132.249 65.3257 132.256Z" fill="#263238"/>
<path d="M112.772 135.014C112.656 135.014 112.996 143.822 113.546 154.674C114.095 165.526 114.637 174.32 114.761 174.312C114.885 174.305 114.537 165.511 113.987 154.652C113.438 143.794 112.896 135.014 112.772 135.014Z" fill="#263238"/>
<path d="M131.82 160.934C131.263 157.028 130.798 153.577 130.798 153.577L117.114 156.544L117.702 158.602L107.122 148.573L105.442 148.71L100.117 153.873C100.117 153.873 104.761 163.02 107.462 166.58C110.976 171.215 116.495 178.276 124.057 177.684C131.046 177.135 132.818 167.937 131.82 160.934Z" fill="#FFBF9D"/>
<path d="M124.405 163.273C123.575 162.255 122.558 161.383 121.402 160.695C120.33 159.896 119.121 159.271 117.826 158.847C117.764 158.955 119.374 159.807 121.139 161.013C122.904 162.219 124.32 163.36 124.405 163.273Z" fill="#FF9A6C"/>
<path d="M88.6462 135.491L93.3522 133.252L99.4513 135.057L102.47 137.657L107.114 148.573L110.837 152.97L104.266 160.912L100.109 153.837C100.109 153.837 96.5875 152.393 95.1711 150.328C93.7546 148.263 93.1277 147.122 93.1277 147.122C93.1277 147.122 91.0921 146.212 90.7128 145.331C90.4895 144.84 90.3687 144.313 90.3568 143.779L91.3862 142.371C91.3208 141.759 91.4276 141.142 91.6958 140.581C91.8907 140.319 92.1583 140.112 92.4698 139.981C92.4698 139.981 92.1679 138.797 92.6401 138.371C93.5322 137.882 94.4764 137.48 95.4574 137.173L93.4063 136.083C93.4063 136.083 88.9017 137.433 88.6462 135.491Z" fill="#FFBF9D"/>
<path d="M95.6277 139.454C95.6277 139.512 94.9079 139.527 94.0797 139.7C93.2516 139.873 92.5317 140.119 92.5317 140.068C92.9967 139.778 93.5259 139.591 94.0797 139.519C94.5841 139.39 95.113 139.368 95.6277 139.454V139.454Z" fill="#FF9A6C"/>
<path d="M94.2193 141.902C93.7688 141.981 93.314 142.036 92.857 142.068C92.4131 142.165 91.9634 142.237 91.5103 142.284C91.9085 142.055 92.3594 141.916 92.8261 141.88C93.2862 141.789 93.7627 141.796 94.2193 141.902V141.902Z" fill="#FF9A6C"/>
<path d="M92.2299 145.743C92.1757 145.743 92.137 145.49 92.1448 145.18C92.1525 144.869 92.199 144.624 92.2531 144.624C92.3073 144.624 92.346 144.876 92.346 145.187C92.346 145.497 92.2841 145.743 92.2299 145.743Z" fill="#FF9A6C"/>
<path d="M93.1277 146.927C93.0662 146.564 92.918 146.219 92.6943 145.916C92.4289 145.645 92.1078 145.427 91.75 145.274C91.75 145.274 91.8971 145.238 92.1215 145.274C92.4276 145.359 92.698 145.53 92.8955 145.765C93.0836 145.99 93.1991 146.26 93.2283 146.544C93.2051 146.797 93.1509 146.927 93.1277 146.927Z" fill="#FF9A6C"/>
<path d="M96.8044 143.425C96.5849 143.136 96.306 142.891 95.9839 142.703C95.6331 142.553 95.255 142.464 94.8694 142.443C94.8694 142.443 94.9932 142.364 95.2254 142.35C95.5258 142.336 95.8241 142.401 96.0868 142.538C96.3494 142.674 96.5658 142.877 96.7115 143.122C96.8199 143.288 96.8276 143.418 96.8044 143.425Z" fill="#FF9A6C"/>
<path d="M98.9482 140.999C98.894 140.999 98.7083 140.566 98.1742 140.277C97.8511 140.119 97.504 140.007 97.1448 139.945C97.1448 139.945 97.2686 139.88 97.4853 139.88C97.7607 139.898 98.0269 139.98 98.2593 140.119C98.5 140.257 98.6954 140.454 98.8244 140.689C98.9637 140.869 98.9714 140.992 98.9482 140.999Z" fill="#FF9A6C"/>
<path d="M100.388 139.808C100.388 139.808 100.388 139.656 100.334 139.433C100.295 139.143 100.178 138.867 99.9932 138.631C99.8036 138.396 99.5533 138.21 99.2656 138.09C99.0411 137.996 98.8863 137.967 98.8941 137.938C98.9018 137.909 99.0644 137.895 99.312 137.938C99.6495 138.031 99.9456 138.224 100.156 138.487C100.362 138.751 100.473 139.07 100.473 139.397C100.473 139.671 100.411 139.815 100.388 139.808Z" fill="#FF9A6C"/>
<path d="M98.3911 136.956C98.3911 137.021 97.4081 137.036 96.2239 137.202C95.0396 137.368 94.1418 137.765 94.1108 137.714C94.7362 137.328 95.4486 137.081 96.1929 136.992C96.7048 136.917 97.2226 136.88 97.7409 136.884C97.9605 136.872 98.1806 136.897 98.3911 136.956V136.956Z" fill="#FF9A6C"/>
<g opacity="0.3">
<path d="M85.0009 161.605C84.9368 160.331 84.5381 159.092 83.8399 157.995C82.4622 156.183 79.7609 155.829 77.3925 155.909C75.024 155.988 72.5472 156.45 70.3181 155.692L63.6462 174.161C66.1481 173.575 68.3059 172.101 69.6602 170.053C70.3413 169.02 70.8367 167.822 71.8661 167.085C73.2903 166.067 75.2562 166.212 77.0519 166.197C78.9247 166.177 80.7861 165.922 82.586 165.439C83.3726 165.294 84.0872 164.914 84.6216 164.356C85.2331 163.591 85.1402 162.551 85.0009 161.605Z" fill="black"/>
</g>
<path d="M67.8257 139.989L69.9 160.544C69.9055 161.011 70.0324 161.47 70.2696 161.881C70.5069 162.292 70.8475 162.643 71.2622 162.905L84.6292 162.645C85.4298 161.642 85.7948 160.394 85.6509 159.15L84.1648 139.476C84.0797 138.292 83.6075 137.44 83.0348 137.425L68.9557 137.122C68.2359 137.108 67.6786 138.523 67.8257 139.989Z" fill="#263238"/>
<path d="M65.883 144.118C65.6221 143.797 65.4849 143.402 65.4933 142.999C65.5017 142.596 65.6553 142.207 65.9294 141.895C66.2164 141.585 66.5736 141.339 66.9753 141.174C67.3769 141.009 67.8128 140.93 68.2514 140.942C69.1177 140.964 69.9704 141.148 70.7592 141.483C71.7287 141.863 72.6566 142.33 73.5301 142.877C73.8665 143.035 74.1636 143.258 74.4022 143.53C74.6409 143.803 74.8157 144.119 74.9156 144.458C75.0239 145.18 74.1957 145.902 73.5533 145.562C74.0085 145.754 74.4085 146.044 74.7206 146.408C75.0327 146.772 75.248 147.2 75.349 147.656C75.4651 148.53 74.9465 148.992 74.0332 149.223C74.3763 149.357 74.6493 149.612 74.794 149.931C74.9387 150.251 74.9434 150.611 74.8072 150.934C74.5915 151.238 74.2653 151.46 73.8885 151.558C73.5117 151.656 73.1097 151.624 72.7561 151.468C72.0552 151.131 71.4564 150.634 71.0146 150.024C71.4542 151.017 71.5384 152.116 71.2545 153.158C69.2576 152.436 67.2917 150.407 67.8876 148.443C67.3983 148.068 67.0566 147.551 66.9165 146.975C66.7764 146.398 66.8457 145.795 67.1136 145.259C66.6555 145.06 66.2638 144.749 65.9803 144.358C65.6967 143.968 65.5321 143.513 65.5037 143.043" fill="#FFBF9D"/>
<path d="M65.6663 142.328L65.5038 151.115L63.0579 154.544L51.8582 163.894C51.8582 163.894 53.5145 176.594 58.5765 175.208C63.6384 173.822 64.8536 172.919 67.8645 167.8C69.4589 165.049 70.4496 160.58 71.3707 158.031C71.9125 156.53 71.4404 151.692 71.4404 151.692L65.6663 142.328Z" fill="#FFBF9D"/>
<path d="M74.0333 149.237C73.7296 149.044 73.4424 148.829 73.1741 148.595C72.5207 148.063 71.7487 147.673 70.914 147.454C70.4554 147.357 69.9795 147.357 69.5208 147.454C69.1454 147.531 68.7935 147.687 68.4914 147.909C68.2228 148.126 67.9929 148.382 67.8103 148.667C67.8103 148.667 67.8103 148.566 67.8954 148.4C68.014 148.168 68.1826 147.962 68.3908 147.793C68.7022 147.54 69.0736 147.36 69.4744 147.266C69.963 147.158 70.4719 147.158 70.9605 147.266C71.8329 147.491 72.6312 147.915 73.2825 148.501C73.5651 148.716 73.8173 148.963 74.0333 149.237V149.237Z" fill="#FF9A6C"/>
<path d="M73.8939 145.656C73.5278 145.553 73.1768 145.407 72.849 145.223C72.5394 145.079 72.1678 144.898 71.7421 144.739C71.2734 144.58 70.7921 144.454 70.3025 144.364C69.819 144.269 69.3216 144.252 68.8319 144.313C68.4396 144.377 68.067 144.52 67.7406 144.732C67.429 144.938 67.1656 145.201 66.9666 145.505C66.9775 145.408 67.0091 145.315 67.0594 145.23C67.1908 144.992 67.3756 144.783 67.6012 144.617C67.9402 144.37 68.3388 144.203 68.7622 144.133C69.2733 144.039 69.7992 144.039 70.3102 144.133C70.8129 144.225 71.3052 144.36 71.7808 144.537C72.1639 144.691 72.5362 144.867 72.8954 145.064C73.2421 145.24 73.5757 145.438 73.8939 145.656Z" fill="#FF9A6C"/>
<path d="M53.0656 168.948C52.7896 167.877 52.7423 166.766 52.9263 165.677C53.149 164.503 53.5974 163.375 54.2499 162.349C55.0677 161.103 56.0623 159.967 57.2065 158.97C58.414 157.88 59.6524 156.934 60.7592 156.082C61.7483 155.297 62.6938 154.466 63.592 153.591C64.1913 152.975 64.7374 152.316 65.2252 151.62C65.411 151.375 65.5668 151.111 65.6896 150.833C65.4776 151.06 65.2836 151.302 65.1091 151.555C64.5816 152.198 64.0102 152.808 63.3985 153.382C62.6245 154.104 61.657 154.927 60.5347 155.8C59.4124 156.674 58.2127 157.62 56.9511 158.688C55.7812 159.708 54.7726 160.877 53.9557 162.161C53.2839 163.228 52.8348 164.404 52.6322 165.627C52.504 166.444 52.5355 167.275 52.7251 168.082C52.7755 168.3 52.8427 168.515 52.9263 168.724C53.0192 168.869 53.0502 168.948 53.0656 168.948Z" fill="#FF9A6C"/>
<path d="M234.736 124.899C234.238 123.286 233.467 121.758 232.452 120.372C231.398 119.002 230.17 117.755 228.796 116.659C223.314 112.21 215.76 110.487 208.618 110.944C205.355 111.128 202.156 111.87 199.181 113.133C197.731 113.764 196.387 114.587 195.19 115.577C194.081 116.495 192.833 117.626 192.318 118.944C192.301 118.991 192.302 119.042 192.319 119.09C192.336 119.137 192.369 119.177 192.413 119.206C192.458 119.234 192.51 119.248 192.564 119.246C192.617 119.244 192.668 119.225 192.71 119.194C193.365 118.713 193.916 118.107 194.54 117.578C195.17 117.053 195.838 116.571 196.541 116.135C197.921 115.287 199.39 114.572 200.924 113.999C207.055 111.69 214.331 111.748 220.519 113.835C223.52 114.857 226.29 116.392 228.688 118.362C229.817 119.293 230.853 120.319 231.782 121.426C232.777 122.55 233.695 123.733 234.53 124.966C234.623 125.034 234.783 125.005 234.736 124.899Z" fill="#263238"/>
<path d="M230.214 115.798C229.594 114.875 228.815 114.054 227.909 113.369C226.959 112.718 225.956 112.139 224.908 111.637C221.069 109.705 216.867 108.484 212.532 108.039C210.44 107.824 208.325 107.922 206.266 108.328C205.291 108.531 204.328 108.787 203.384 109.092C202.422 109.357 201.508 109.755 200.671 110.271C200.652 110.288 200.638 110.311 200.633 110.336C200.628 110.36 200.632 110.386 200.643 110.409C200.655 110.432 200.673 110.451 200.697 110.463C200.721 110.476 200.748 110.481 200.775 110.478C201.878 110.266 202.935 109.886 204.044 109.689C205.153 109.492 206.189 109.453 207.272 109.357C219.942 108.26 229.105 115.567 230.002 116.005C230.033 116.025 230.07 116.034 230.107 116.031C230.144 116.028 230.179 116.012 230.205 115.987C230.23 115.962 230.245 115.929 230.247 115.894C230.249 115.859 230.237 115.825 230.214 115.798V115.798Z" fill="#263238"/>
<path d="M186.377 153.207C188.956 154.761 192.008 153.625 194.03 151.802C196.134 149.907 197.567 147.425 198.671 144.928C199.702 142.648 200.429 140.267 201.249 137.915C202.069 135.563 202.796 133.105 204.095 130.955C205.311 128.898 207.351 127.375 209.768 126.717C212.386 126.06 215.17 126.293 217.621 127.376C218.919 127.91 220.097 128.669 221.092 129.613C222.003 130.536 222.712 131.616 223.18 132.792C224.268 135.332 224.815 138.035 225.475 140.686C226.016 142.879 227.141 144.856 229.342 145.939C231.219 146.862 233.53 147.141 235.438 146.145C235.466 146.133 235.489 146.111 235.501 146.084C235.513 146.057 235.514 146.026 235.504 145.998C235.494 145.97 235.473 145.947 235.446 145.932C235.418 145.918 235.386 145.913 235.355 145.919C234.153 146.138 232.914 146.094 231.733 145.792C230.553 145.49 229.463 144.938 228.548 144.178C227.606 143.288 226.953 142.167 226.666 140.946C226.254 139.503 225.944 138.016 225.521 136.564C224.82 134.158 224.124 131.527 222.427 129.526C220.699 127.588 218.37 126.196 215.76 125.543C213.247 124.861 210.563 124.969 208.123 125.851C205.696 126.787 203.717 128.514 202.554 130.71C200.12 135.039 199.336 139.974 197.459 144.505C196.595 146.755 195.306 148.842 193.653 150.667C191.936 152.456 189.177 153.784 186.609 152.788C186.55 152.762 186.482 152.758 186.42 152.778C186.358 152.797 186.306 152.838 186.276 152.893C186.246 152.947 186.24 153.01 186.258 153.069C186.277 153.128 186.32 153.177 186.377 153.207V153.207Z" fill="#263238"/>
<path d="M185.815 145.621C187.001 145.77 188.089 144.938 188.641 144.024C189.391 142.709 189.966 141.313 190.353 139.868C191.17 136.878 192.204 133.944 193.447 131.085C195.51 126.606 198.722 122.287 203.348 119.805C205.64 118.56 208.196 117.797 210.837 117.57C213.478 117.344 216.14 117.658 218.637 118.492C221.015 119.301 223.188 120.558 225.021 122.186C226.907 123.917 228.426 125.965 229.497 128.223C230.567 130.563 231.446 132.975 232.127 135.438C232.431 136.424 232.859 137.622 233.88 138.156C234.261 138.378 234.714 138.468 235.159 138.408C235.604 138.348 236.011 138.143 236.309 137.829C236.366 137.766 236.273 137.699 236.211 137.737C235.922 137.916 235.576 138 235.23 137.973C234.884 137.947 234.558 137.813 234.303 137.593C233.752 137.157 233.386 136.551 233.272 135.885C232.926 134.558 232.648 133.221 232.24 131.898C231.478 129.21 230.277 126.648 228.677 124.302C227.236 122.29 225.383 120.563 223.224 119.221C221.065 117.88 218.643 116.95 216.097 116.485C213.551 116.02 210.932 116.029 208.39 116.512C205.847 116.995 203.433 117.943 201.285 119.3C196.83 122.119 193.813 126.462 191.817 131.046C190.786 133.559 189.925 136.129 189.239 138.743C188.899 140.064 188.479 141.367 187.981 142.644C187.748 143.203 187.472 143.747 187.156 144.27C187.042 144.51 186.861 144.718 186.633 144.871C186.405 145.025 186.137 145.12 185.856 145.145C185.789 145.14 185.722 145.16 185.67 145.201C185.618 145.242 185.586 145.301 185.58 145.364C185.575 145.427 185.597 145.49 185.641 145.538C185.685 145.586 185.747 145.616 185.815 145.621V145.621Z" fill="#263238"/>
<path d="M187.254 155.285C187.246 155.338 187.26 155.392 187.294 155.436C187.327 155.48 187.378 155.51 187.434 155.521C187.853 155.613 188.279 155.675 188.708 155.703C188.9 155.713 189.093 155.713 189.285 155.703C191.56 155.598 193.926 154.395 196.309 152.129C198.323 150.212 199.982 147.997 201.218 145.573C202.193 143.496 202.943 141.334 203.456 139.118C203.621 138.497 203.791 137.872 203.972 137.256C204.534 135.284 205.555 132.446 207.86 130.657C208.638 130.052 209.551 129.618 210.533 129.387C211.515 129.155 212.54 129.132 213.532 129.319C215.073 129.611 216.533 130.195 217.822 131.035C219.111 131.875 220.201 132.953 221.025 134.202C222.316 136.21 222.782 138.588 222.334 140.893C221.786 143.384 220.49 145.678 218.596 147.507C216.624 149.4 214.286 150.929 211.707 152.014C210.613 152.495 209.164 153.135 207.679 153.645L206.828 153.938C205.745 154.309 204.632 154.684 203.564 155.121C203.495 155.153 203.44 155.206 203.41 155.272C203.379 155.338 203.375 155.411 203.399 155.48C203.422 155.548 203.471 155.606 203.536 155.644C203.601 155.681 203.679 155.696 203.755 155.684C204.503 155.535 205.24 155.343 205.926 155.155C210.902 153.823 217.1 151.668 220.88 146.805C222.589 144.697 223.58 142.16 223.727 139.522C223.794 137.101 222.988 134.73 221.437 132.788C219.486 130.286 216.564 128.594 213.295 128.074C212.219 127.908 211.118 127.951 210.061 128.2C209.003 128.448 208.012 128.896 207.148 129.517C205.24 130.897 203.838 133.095 202.863 136.251C202.595 137.107 202.347 137.983 202.126 138.829C201.634 140.878 200.943 142.881 200.063 144.813C198.817 147.333 197.097 149.624 194.984 151.576C193.256 153.164 190.564 155.054 187.537 155.059C187.468 155.055 187.399 155.076 187.346 155.118C187.294 155.161 187.26 155.22 187.254 155.285V155.285Z" fill="#263238"/>
<path d="M186.264 148.397C186.907 148.532 187.576 148.524 188.215 148.374C188.855 148.223 189.448 147.935 189.945 147.531C191.075 146.689 191.657 145.289 192.122 144.048C193.199 141.162 194.035 138.18 195.107 135.279C196.773 130.758 199.233 126.14 203.6 123.417C205.564 122.213 207.782 121.414 210.104 121.074C212.426 120.734 214.799 120.86 217.064 121.445C219.572 122.107 221.845 123.381 223.649 125.134C225.304 126.846 226.616 128.82 227.522 130.964C228.002 132.042 228.414 133.139 228.78 134.255C229.115 135.435 229.514 136.599 229.977 137.742C230.822 139.637 232.952 141.913 235.406 140.975C235.446 140.957 235.479 140.927 235.499 140.89C235.518 140.853 235.525 140.811 235.517 140.771C235.508 140.73 235.486 140.693 235.453 140.666C235.42 140.638 235.378 140.622 235.334 140.619C234.651 140.559 233.989 140.362 233.395 140.041C232.801 139.719 232.289 139.281 231.895 138.757C231.023 137.612 230.688 136.198 230.291 134.866C229.596 132.377 228.571 129.979 227.238 127.727C226.051 125.735 224.434 123.994 222.489 122.614C220.384 121.195 217.956 120.25 215.394 119.853C213.049 119.496 210.651 119.58 208.342 120.099C206.032 120.619 203.857 121.564 201.945 122.878C197.701 125.837 195.283 130.474 193.627 135.048C192.694 137.617 191.972 140.239 191.116 142.826C190.466 144.799 189.316 148.118 186.429 147.68C186.333 147.674 186.239 147.7 186.163 147.754C186.087 147.807 186.034 147.885 186.014 147.972C185.994 148.059 186.008 148.15 186.054 148.228C186.1 148.306 186.174 148.366 186.264 148.397V148.397Z" fill="#263238"/>
<path d="M186.052 150.282C186.392 150.639 186.801 150.931 187.259 151.143C188.208 151.586 189.595 151.442 190.544 151.086C191.71 150.588 192.689 149.775 193.354 148.753C194.081 147.66 194.696 146.505 195.19 145.304C195.783 143.971 196.299 142.6 196.804 141.234C197.835 138.488 198.758 135.717 199.898 133.004C200.888 130.599 202.12 128.304 204.193 126.554C206.039 124.974 208.33 123.92 210.797 123.515C213.264 123.11 215.804 123.371 218.116 124.269C220.489 125.198 222.506 126.772 223.907 128.786C225.454 130.984 226.156 133.548 226.836 136.054C227.445 138.286 227.935 140.696 229.466 142.567C230.74 144.13 233.452 145.366 235.242 143.74C235.26 143.725 235.273 143.704 235.276 143.681C235.279 143.658 235.273 143.634 235.26 143.615C235.246 143.595 235.225 143.581 235.2 143.575C235.176 143.569 235.151 143.571 235.128 143.582C233.849 144.173 232.349 143.769 231.281 142.961C230.298 142.158 229.561 141.125 229.146 139.969C228.089 137.415 227.672 134.678 226.702 132.076C225.909 129.769 224.525 127.677 222.67 125.981C220.889 124.394 218.718 123.238 216.348 122.614C213.942 122.032 211.416 122.041 209.015 122.639C206.614 123.238 204.42 124.406 202.646 126.029C200.682 127.872 199.449 130.195 198.454 132.595C197.371 135.226 196.494 137.93 195.515 140.599C194.999 141.965 194.483 143.322 193.911 144.674C193.476 145.838 192.932 146.965 192.287 148.041C191.692 149.043 190.761 149.836 189.636 150.297C189.112 150.513 188.536 150.595 187.967 150.535C187.398 150.475 186.857 150.275 186.398 149.955C186.161 149.787 185.877 150.1 186.052 150.282Z" fill="#263238"/>
<path d="M235.85 136.4C235.889 135.775 235.889 135.149 235.85 134.524C235.314 129.367 232.956 124.523 229.146 120.752C225.618 117.186 220.917 114.817 215.786 114.018C210.743 113.301 205.586 114.039 201.007 116.135C196.45 118.233 192.698 121.593 190.265 125.755C187.763 129.858 186.633 134.565 187.022 139.272C187.022 139.373 187.197 139.353 187.202 139.272C187.529 134.193 189.296 129.286 192.323 125.053C195.015 121.359 198.803 118.477 203.224 116.76C207.635 115.072 212.496 114.692 217.147 115.673C221.937 116.782 226.204 119.329 229.291 122.922C230.921 124.827 232.235 126.949 233.189 129.218C234.132 131.566 234.879 133.978 235.422 136.434C235.499 136.616 235.835 136.616 235.85 136.4Z" fill="#263238"/>
<path d="M227.976 153.751C228.543 152.971 229.76 153.659 230.389 153.986C231.333 154.467 232.349 155.126 233.483 154.948C233.502 154.943 233.522 154.944 233.539 154.952C233.557 154.96 233.57 154.974 233.576 154.992C233.582 155.009 233.581 155.028 233.572 155.044C233.563 155.06 233.548 155.072 233.53 155.078C233.162 155.248 232.758 155.339 232.347 155.344C231.937 155.349 231.53 155.268 231.157 155.107C230.756 154.953 230.364 154.78 229.982 154.587C229.62 154.393 229.234 154.241 228.832 154.135C228.758 154.126 228.684 154.126 228.61 154.135C228.533 154.135 228.553 154.135 228.543 154.159C228.471 154.284 228.584 154.549 228.626 154.674C228.721 154.999 228.854 155.314 229.023 155.612C229.381 156.226 229.834 156.787 230.369 157.276C230.669 157.563 230.988 157.833 231.322 158.085C231.663 158.339 232.065 158.532 232.39 158.801C232.417 158.815 232.436 158.837 232.445 158.864C232.454 158.891 232.451 158.921 232.436 158.946C232.422 158.97 232.398 158.989 232.369 158.997C232.34 159.005 232.308 159.002 232.282 158.989C231.889 158.875 231.515 158.713 231.168 158.508C230.805 158.31 230.46 158.084 230.136 157.834C229.482 157.332 228.932 156.722 228.512 156.035C228.301 155.693 228.129 155.332 227.996 154.958C227.892 154.772 227.835 154.566 227.832 154.356C227.828 154.147 227.878 153.939 227.976 153.751Z" fill="#263238"/>
<path d="M229.703 155.242C230.319 155.505 230.893 155.845 231.41 156.252C231.64 156.431 231.878 156.6 232.122 156.757C232.24 156.834 232.369 156.906 232.493 156.973C232.62 157.034 232.751 157.087 232.885 157.132C232.911 157.139 232.933 157.154 232.949 157.174C232.965 157.194 232.973 157.218 232.973 157.243C232.973 157.268 232.965 157.292 232.949 157.312C232.933 157.332 232.911 157.346 232.885 157.353C232.271 157.493 231.627 157.118 231.163 156.791C230.577 156.394 230.056 155.921 229.616 155.386C229.543 155.338 229.605 155.242 229.703 155.242Z" fill="#263238"/>
<path d="M189.394 157.007C189.391 157.018 189.391 157.03 189.394 157.041C189.397 157.08 189.414 157.117 189.442 157.146C189.47 157.176 189.507 157.196 189.548 157.204C189.7 157.241 189.856 157.263 190.013 157.272C190.558 157.28 191.101 157.215 191.627 157.079C192.362 156.916 193.078 156.683 193.761 156.382C195.098 155.779 196.334 155 197.433 154.068C201.172 151.018 203.801 146.675 205.25 141.148C205.343 140.782 205.441 140.412 205.534 140.046C206.05 138.05 206.565 135.991 207.751 134.274C208.375 133.366 209.224 132.612 210.227 132.076C211.271 131.587 212.432 131.355 213.599 131.402C213.659 131.4 213.717 131.379 213.763 131.343C213.809 131.306 213.841 131.257 213.854 131.202C213.867 131.148 213.86 131.09 213.834 131.039C213.809 130.989 213.766 130.947 213.712 130.921C212.377 130.31 210.716 130.888 210.067 131.162C208.915 131.672 207.905 132.424 207.117 133.36C205.57 135.145 204.993 137.434 204.436 139.647L204.291 140.2C203.696 142.7 202.777 145.123 201.553 147.415C200.295 149.665 198.609 151.683 196.577 153.37C195.593 154.213 194.498 154.934 193.318 155.516C192.712 155.8 192.085 156.043 191.441 156.242C191.224 156.31 191.003 156.362 190.781 156.42C190.345 156.515 189.921 156.654 189.517 156.834C189.482 156.85 189.452 156.874 189.43 156.904C189.408 156.935 189.396 156.97 189.394 157.007Z" fill="#263238"/>
<path d="M202.332 154.28C202.329 154.317 202.337 154.354 202.355 154.387C202.373 154.42 202.401 154.448 202.435 154.467C202.465 154.488 202.501 154.499 202.538 154.501C202.576 154.502 202.613 154.495 202.647 154.479C202.68 154.463 202.708 154.439 202.729 154.41C203.181 153.889 203.776 153.493 204.451 153.265C205.06 153 205.694 152.784 206.308 152.548L206.586 152.442C208.272 151.826 209.644 151.278 210.902 150.715C216.482 148.219 219.808 144.986 220.803 141.095C221.368 139.02 221.089 136.823 220.019 134.928C219.534 134.026 218.852 133.229 218.017 132.587C217.182 131.945 216.213 131.473 215.172 131.2C215.11 131.185 215.045 131.192 214.988 131.218C214.931 131.245 214.887 131.29 214.863 131.345C214.838 131.395 214.834 131.452 214.853 131.504C214.871 131.557 214.909 131.601 214.961 131.628C216.959 132.708 218.521 134.371 219.406 136.362C220.535 139.152 219.988 143.712 214.718 147.401C212.748 148.699 210.625 149.784 208.391 150.634C207.277 151.09 206.019 151.596 204.812 152.206C204.313 152.441 203.836 152.716 203.389 153.029C202.978 153.353 202.629 153.74 202.358 154.174C202.337 154.206 202.328 154.243 202.332 154.28V154.28Z" fill="#263238"/>
<path d="M187.744 157.983C188.501 158.408 189.361 158.65 190.245 158.686C191.862 158.709 193.459 158.348 194.886 157.637C197.008 156.59 198.933 155.227 200.584 153.601C200.743 153.447 200.893 153.289 201.048 153.12L201.187 152.981C201.224 152.964 201.257 152.942 201.285 152.913C202.59 151.701 204.379 151.028 206.096 150.374C206.694 150.148 207.318 149.893 207.901 149.662C210.784 148.411 212.748 147.17 214.264 145.631C215.802 144.145 216.771 142.228 217.023 140.176C217.204 138.396 216.755 135.914 214.914 134.76C213.073 133.605 210.742 134.428 209.376 135.818C207.787 137.439 206.978 139.729 206.323 141.59L206.096 142.24C205.5 144.1 204.738 145.91 203.817 147.651C202.798 149.45 201.523 151.112 200.027 152.591C198.538 154.062 196.841 155.338 194.984 156.382C192.539 157.743 190.157 158.157 187.914 157.627H187.872C187.826 157.626 187.78 157.637 187.74 157.66C187.701 157.684 187.669 157.717 187.651 157.757C187.636 157.799 187.637 157.845 187.654 157.886C187.671 157.927 187.703 157.961 187.744 157.983V157.983ZM203.368 150.431C203.74 149.95 204.064 149.469 204.353 148.988C205.43 147.204 206.294 145.315 206.931 143.356C207.04 143.043 207.143 142.73 207.256 142.394C207.849 140.643 208.463 138.829 209.551 137.3C210.072 136.483 210.852 135.837 211.784 135.452C212.208 135.296 212.664 135.226 213.119 135.246C213.664 135.265 214.183 135.464 214.584 135.808C216.131 137.155 216.229 139.623 215.615 141.47C214.917 143.325 213.64 144.943 211.949 146.117C210.036 147.536 207.772 148.483 205.761 149.32L205.57 149.397C204.853 149.748 204.085 150.071 203.368 150.431Z" fill="#263238"/>
<path d="M206.725 147.228C206.713 147.27 206.714 147.315 206.729 147.357C206.743 147.399 206.771 147.436 206.808 147.464C206.846 147.493 206.893 147.51 206.942 147.512C206.975 147.514 207.007 147.509 207.038 147.497C207.068 147.485 207.095 147.467 207.117 147.444C207.231 147.339 208.066 146.781 208.468 146.526C208.597 146.444 208.731 146.367 208.86 146.28C209.133 146.112 209.417 145.939 209.685 145.746C210.489 145.179 211.244 144.553 211.944 143.875C213.295 142.552 213.929 141.23 213.816 139.936C213.814 139.616 213.716 139.304 213.534 139.034C213.352 138.763 213.092 138.546 212.784 138.406C212.41 138.289 212.005 138.286 211.629 138.397C211.253 138.509 210.924 138.729 210.691 139.026C210.222 139.61 209.856 140.259 209.608 140.951C209.371 141.509 209.159 142.091 208.948 142.649L208.778 143.101C208.198 144.447 207.521 145.755 206.751 147.016C206.727 147.046 206.711 147.081 206.707 147.119C206.702 147.156 206.709 147.194 206.725 147.228V147.228ZM209.36 143.899C209.847 142.713 210.419 141.559 211.072 140.445L211.103 140.397C211.279 140.109 211.696 139.435 212.099 139.358H212.186C212.271 139.365 212.352 139.395 212.418 139.445C212.769 139.7 212.717 140.407 212.552 140.941C212.171 142.22 211.005 143.255 210.098 144.087L209.376 144.731C209.128 144.948 208.886 145.169 208.644 145.39C208.953 144.856 209.175 144.332 209.36 143.899V143.899Z" fill="#263238"/>
<path d="M209.984 168.932C209.094 170.582 208.295 172.274 207.592 174.002C207.59 174.013 207.592 174.024 207.598 174.034C207.604 174.044 207.613 174.052 207.624 174.057C207.634 174.062 207.647 174.063 207.659 174.061C207.671 174.059 207.681 174.053 207.69 174.045C208.695 172.65 209.531 171.159 210.474 169.716C211.093 168.787 212.212 166.618 213.723 166.969C214.357 167.113 214.811 167.767 215.162 168.234C215.621 168.879 216.121 169.499 216.657 170.091C217.482 170.966 219.029 172.111 220.38 171.803C220.442 171.803 220.478 171.697 220.416 171.669C220.055 171.491 219.674 171.38 219.318 171.188C218.926 170.981 218.562 170.731 218.235 170.442C217.604 169.841 217.047 169.177 216.575 168.46C215.801 167.344 214.899 165.872 213.218 166.055C211.66 166.223 210.598 167.748 209.984 168.932Z" fill="#263238"/>
<path d="M187.671 159.229C189.306 161.235 192.23 160.879 194.344 159.811C195.562 159.151 196.712 158.386 197.778 157.526C198.906 156.639 200.114 155.844 201.388 155.15C201.404 155.146 201.417 155.136 201.425 155.122C201.432 155.109 201.434 155.093 201.429 155.078C201.425 155.063 201.414 155.051 201.399 155.044C201.385 155.037 201.368 155.035 201.352 155.04C198.738 155.429 196.85 157.445 194.72 158.715C192.72 159.917 189.817 160.639 187.754 159.119C187.702 159.061 187.62 159.167 187.671 159.229Z" fill="#263238"/>
<path d="M230.245 163.029C230.41 163.029 230.477 162.799 230.307 162.76C227.666 162.149 225.583 160.302 224.304 158.104C223.148 156.1 222.48 153.883 222.35 151.61C222.231 149.901 222.501 148.188 223.144 146.583C223.314 146.048 223.61 145.555 224.01 145.14C224.101 145.033 224.215 144.945 224.346 144.882C224.476 144.819 224.619 144.783 224.765 144.775C224.912 144.768 225.058 144.79 225.195 144.84C225.331 144.889 225.455 144.966 225.557 145.063C225.839 145.429 226.093 145.813 226.315 146.213C226.922 147.062 227.73 147.77 228.677 148.281C229.619 148.792 230.682 149.078 231.771 149.113C232.927 149.141 234.069 148.866 235.066 148.32C235.133 148.281 235.102 148.161 235.02 148.185C233.645 148.577 232.178 148.58 230.801 148.195C229.425 147.81 228.201 147.053 227.285 146.021C226.656 145.265 226.315 144.096 225.114 144.01C223.912 143.923 223.077 144.818 222.603 145.746C221.546 147.971 221.199 150.433 221.602 152.837C222.236 157.074 224.969 162.803 230.245 163.029Z" fill="#263238"/>
<path d="M211.165 172.404C211 172.843 210.925 173.306 210.944 173.771C210.947 173.784 210.955 173.797 210.966 173.807C210.977 173.817 210.991 173.824 211.006 173.827C211.021 173.83 211.037 173.829 211.051 173.824C211.066 173.819 211.078 173.811 211.088 173.799C211.327 173.45 211.51 173.069 211.629 172.669C211.789 172.255 211.954 171.842 212.145 171.438C212.333 171.031 212.554 170.639 212.805 170.264C212.888 170.099 212.999 169.948 213.135 169.817L213.171 169.793L213.254 169.869C213.331 169.939 213.404 170.012 213.47 170.091C213.994 170.762 214.559 171.404 215.162 172.015C215.677 172.462 216.497 172.948 217.224 172.794C217.234 172.79 217.243 172.783 217.248 172.775C217.254 172.766 217.257 172.756 217.257 172.746C217.257 172.736 217.254 172.726 217.248 172.717C217.243 172.709 217.234 172.702 217.224 172.698C216.81 172.5 216.427 172.251 216.085 171.957C215.766 171.649 215.477 171.314 215.224 170.957C214.93 170.581 214.667 170.182 214.347 169.821C214.027 169.461 213.671 168.994 213.161 168.994C212.65 168.994 212.408 169.422 212.207 169.764C211.962 170.171 211.755 170.598 211.588 171.038C211.449 171.491 211.294 171.943 211.165 172.404Z" fill="#263238"/>
<path d="M231.477 160.437C231.497 160.442 231.518 160.441 231.537 160.434C231.557 160.426 231.572 160.412 231.581 160.395C231.591 160.378 231.593 160.358 231.588 160.339C231.583 160.32 231.571 160.304 231.554 160.292C230.921 159.793 230.334 159.245 229.801 158.652C229.294 158.035 228.822 157.393 228.388 156.728C227.525 155.584 226.786 154.363 226.181 153.082C225.869 152.46 225.707 151.782 225.707 151.095C225.805 150.133 226.841 150.836 227.29 151.196C227.789 151.652 228.323 152.074 228.889 152.457C230.011 153.131 231.344 153.434 232.673 153.318C233.313 153.211 233.928 153.005 234.494 152.707C234.623 152.654 234.53 152.49 234.401 152.529C233.895 152.644 233.374 152.69 232.854 152.663C232.426 152.671 231.999 152.647 231.575 152.591C230.694 152.463 229.857 152.149 229.126 151.673C228.249 151.09 226.64 149.138 225.413 150.08C224.351 150.893 225.171 152.784 225.599 153.707C226.307 155.109 227.171 156.438 228.177 157.671C229.002 158.729 230.095 159.994 231.477 160.437Z" fill="#263238"/>
<path d="M190.961 164.116C192.085 164.325 193.252 164.142 194.241 163.602C194.453 163.496 194.648 163.376 194.855 163.255C194.746 163.371 194.643 163.481 194.545 163.597C193.837 164.404 193.393 165.384 193.266 166.421C193.266 166.435 193.271 166.449 193.279 166.46C193.288 166.472 193.3 166.481 193.314 166.486C193.328 166.49 193.344 166.491 193.359 166.487C193.373 166.483 193.386 166.475 193.395 166.464C193.973 165.641 194.566 164.814 195.226 164.059C195.886 163.303 196.654 162.558 197.289 161.764C197.313 161.729 197.326 161.688 197.326 161.646C197.326 161.604 197.313 161.563 197.289 161.528C197.264 161.492 197.229 161.465 197.188 161.448C197.147 161.431 197.101 161.425 197.057 161.432C195.963 161.663 195.143 162.394 194.174 162.875C193.148 163.376 192.066 163.769 190.946 164.044C190.905 164.044 190.905 164.107 190.961 164.116Z" fill="#263238"/>
<path d="M202.93 168.619C202.343 169.638 201.827 170.69 201.383 171.769C201.369 171.796 201.366 171.826 201.376 171.854C201.385 171.882 201.406 171.905 201.434 171.919C201.463 171.932 201.495 171.934 201.525 171.925C201.555 171.916 201.58 171.897 201.594 171.871C202.471 170.769 203.177 169.547 203.992 168.402C204.807 167.258 205.617 166.219 206.503 165.175C207.914 163.476 209.622 162.012 211.557 160.846C212.053 160.55 212.57 160.287 213.104 160.057C213.655 159.766 214.271 159.601 214.904 159.576C216.048 159.633 216.791 160.658 217.302 161.452C218.534 163.376 219.586 165.406 221.494 166.873C222.33 167.551 223.338 168.019 224.423 168.229C224.885 168.354 225.377 168.341 225.831 168.191C225.97 168.109 226.058 167.989 225.918 167.873C225.872 167.84 225.8 167.873 225.831 167.941C225.862 168.008 225.165 167.878 225.134 167.868L224.691 167.753C224.38 167.663 224.077 167.548 223.789 167.407C223.238 167.139 222.719 166.816 222.242 166.445C221.223 165.596 220.369 164.59 219.715 163.472C219.122 162.534 218.596 161.548 217.936 160.648C217.422 159.836 216.638 159.203 215.703 158.844C214.527 158.489 213.336 158.883 212.274 159.325C211.249 159.758 210.279 160.295 209.381 160.927C207.549 162.223 205.978 163.811 204.74 165.617C204.081 166.588 203.477 167.59 202.93 168.619V168.619Z" fill="#263238"/>
<path d="M205.885 170.764C205.522 171.568 205.266 172.409 205.122 173.27C205.12 173.284 205.124 173.298 205.132 173.31C205.141 173.322 205.153 173.331 205.167 173.335C205.181 173.34 205.197 173.34 205.211 173.335C205.225 173.33 205.237 173.321 205.245 173.309C205.761 172.472 206.122 171.543 206.658 170.707C207.195 169.87 207.69 169.042 208.205 168.239C209.17 166.796 210.288 165.447 211.542 164.213C212.135 163.65 212.831 163.169 213.697 163.251C214.51 163.404 215.239 163.818 215.76 164.42C216.925 165.637 217.461 167.306 218.663 168.499C219.195 169.043 219.86 169.461 220.601 169.717C221.342 169.973 222.138 170.06 222.922 169.971C222.974 169.971 222.989 169.87 222.922 169.855C221.913 169.63 220.967 169.205 220.148 168.609C219.35 167.97 218.693 167.193 218.214 166.32C217.327 164.877 216.466 163.308 214.79 162.587C214.055 162.258 213.212 162.209 212.439 162.452C211.634 162.78 210.926 163.285 210.376 163.924C209.066 165.249 207.939 166.721 207.019 168.306C206.579 169.099 206.2 169.921 205.885 170.764Z" fill="#263238"/>
<path d="M198.423 169.951C198.411 169.99 198.414 170.031 198.432 170.067C198.45 170.104 198.482 170.133 198.521 170.149H198.588C198.617 170.149 198.646 170.142 198.672 170.13C198.698 170.117 198.721 170.099 198.738 170.076C199.518 168.938 200.363 167.84 201.269 166.786C202.222 165.706 203.24 164.676 204.317 163.703C206.103 162.002 208.01 160.415 210.025 158.955C211.02 158.248 212.1 157.653 213.243 157.18C214.331 156.738 215.822 156.136 216.853 156.993C217.452 157.572 217.926 158.253 218.25 158.998C218.395 159.277 218.539 159.547 218.689 159.802C219.315 160.888 220.053 161.916 220.891 162.871C221.704 163.802 222.678 164.6 223.773 165.232C224.82 165.848 226.014 166.211 227.249 166.291C227.291 166.295 227.333 166.284 227.367 166.26C227.4 166.235 227.423 166.2 227.429 166.161C227.44 166.123 227.435 166.083 227.415 166.049C227.395 166.015 227.361 165.989 227.321 165.978C223.892 164.857 221.69 162.409 220.452 160.552C220.107 160.033 219.792 159.47 219.498 158.931C219.204 158.392 218.9 157.849 218.549 157.329C217.802 156.199 216.843 155.622 215.718 155.588C214.367 155.554 212.965 156.103 211.897 156.574C210.724 157.103 209.616 157.748 208.592 158.498C206.52 160.07 204.587 161.794 202.811 163.655C200.97 165.507 199.155 167.556 198.423 169.951Z" fill="#263238"/>
<path d="M230.611 162.019C230.781 162.096 230.884 161.86 230.755 161.764C229.028 160.539 227.539 159.047 226.352 157.353C225.379 155.878 224.708 154.247 224.371 152.543C224.193 151.671 224.102 150.785 224.098 149.897C224.098 149.248 223.918 147.608 224.939 147.603C225.96 147.598 226.522 148.743 227.115 149.291C227.792 149.933 228.591 150.451 229.471 150.821C230.344 151.202 231.316 151.343 232.271 151.226C233.227 151.11 234.127 150.74 234.865 150.162C234.877 150.153 234.885 150.14 234.887 150.126C234.889 150.112 234.886 150.098 234.878 150.086C234.87 150.074 234.857 150.065 234.842 150.062C234.827 150.058 234.812 150.059 234.798 150.066C232.529 151.244 229.554 150.326 227.801 148.748C227.089 148.113 226.511 147.194 225.501 146.939C225.296 146.865 225.077 146.832 224.858 146.842C224.639 146.853 224.425 146.907 224.23 147C224.035 147.094 223.863 147.226 223.727 147.386C223.59 147.546 223.492 147.732 223.438 147.93C223.233 148.816 223.173 149.726 223.263 150.629C223.31 151.543 223.458 152.451 223.706 153.337C224.722 156.858 227.063 160.345 230.611 162.019Z" fill="#263238"/>
<path d="M196.969 166.531C196.556 167.195 196.249 167.911 196.056 168.657C196.036 168.746 196.049 168.838 196.093 168.919C196.137 168.999 196.21 169.063 196.298 169.1C196.337 169.112 196.377 169.12 196.417 169.124C196.481 169.127 196.544 169.113 196.6 169.085C196.656 169.057 196.704 169.016 196.737 168.965C197.041 168.527 197.33 168.08 197.619 167.638C198.233 166.643 198.923 165.69 199.681 164.785C200.811 163.511 202.038 162.315 203.353 161.206C206.009 159.136 208.789 157.209 211.681 155.434C215.806 152.875 218.637 151.523 219.287 151.802C219.73 151.995 219.751 152.683 219.772 153.245C219.772 153.406 219.78 153.567 219.797 153.726C219.903 154.514 220.055 155.296 220.251 156.069C220.597 157.549 221.194 158.968 222.02 160.273C222.779 161.46 223.809 162.477 225.036 163.251C225.707 163.659 227.445 164.578 229.043 164.294C229.085 164.279 229.121 164.253 229.147 164.219C229.173 164.185 229.188 164.145 229.19 164.103C229.193 164.062 229.182 164.02 229.159 163.984C229.137 163.948 229.104 163.919 229.064 163.9C228.801 163.804 228.548 163.717 228.285 163.631C227.732 163.455 227.193 163.245 226.671 163C225.918 162.621 225.224 162.147 224.608 161.591C223.358 160.417 222.417 158.987 221.86 157.416C221.34 155.884 220.995 154.306 220.829 152.707C220.824 152.366 220.737 152.03 220.574 151.725C220.41 151.42 220.175 151.154 219.885 150.946C219.277 150.576 218.23 150.831 217.714 151.038C214.754 152.221 205.245 157.887 201.455 161.168C200.276 162.213 199.214 163.367 198.284 164.612C197.808 165.229 197.369 165.869 196.969 166.531Z" fill="#263238"/>
<path d="M189.44 162.005C191.426 162.808 193.777 162.005 195.587 161.168C197.397 160.331 198.887 159.2 200.584 158.282C201.022 158.051 201.46 157.834 201.914 157.637C202.141 157.541 202.373 157.45 202.605 157.368C202.724 157.324 202.863 157.243 202.987 157.281C203.111 157.32 203.136 157.281 203.038 157.373C202.94 157.464 202.977 157.454 202.94 157.493C202.353 158.176 201.43 158.667 200.723 159.234C199.278 160.373 197.965 161.65 196.804 163.044C195.711 164.367 194.571 165.887 194.226 167.556C194.226 167.638 194.329 167.666 194.375 167.609C195.071 166.724 195.654 165.762 196.345 164.872C197.024 164.004 197.774 163.187 198.588 162.428C199.315 161.745 200.073 161.086 200.842 160.446C201.61 159.807 202.42 159.258 203.111 158.58C203.59 158.099 204.446 157.137 203.508 156.656C202.75 156.271 201.625 156.93 200.955 157.243C199.057 158.128 197.345 159.326 195.499 160.278C194.549 160.778 193.541 161.173 192.493 161.456C191.494 161.695 190.471 161.834 189.44 161.87C189.358 161.875 189.358 161.976 189.44 162.005Z" fill="#263238"/>
<path d="M213.12 171.385C213.119 171.367 213.119 171.349 213.12 171.332C213.126 171.315 213.136 171.3 213.15 171.288C213.163 171.275 213.179 171.266 213.197 171.26C213.215 171.255 213.234 171.253 213.253 171.256C213.272 171.258 213.29 171.264 213.305 171.274L213.346 171.298C213.527 171.361 213.646 171.606 213.713 171.75C213.78 171.895 213.883 172.111 213.97 172.284C214.141 172.631 214.29 172.986 214.486 173.328C214.497 173.343 214.501 173.361 214.498 173.378C214.495 173.396 214.486 173.412 214.471 173.423C214.456 173.435 214.437 173.441 214.418 173.44C214.399 173.439 214.381 173.432 214.367 173.419C214.002 173.188 213.69 172.89 213.45 172.544C213.342 172.376 213.247 172.2 213.166 172.02C213.115 171.906 213.082 171.786 213.068 171.664C213.053 171.568 213.071 171.47 213.12 171.385V171.385Z" fill="#263238"/>
<path d="M172.727 119.492H171.18V102.628H189.26V104.071H172.727V119.492Z" fill="#2536A8"/>
<path d="M250.665 176.767H232.586V175.324H249.118V159.903H250.665V176.767Z" fill="#2536A8"/>
<path d="M189.26 176.767H171.18V159.903H172.727V175.324H189.26V176.767Z" fill="#2536A8"/>
<path d="M250.665 119.492H249.118V104.071H232.586V102.628H250.665V119.492Z" fill="#2536A8"/>
<path d="M254.646 180.486H253.424V180.125H254.259V179.346H254.646V180.486Z" fill="#2536A8"/>
<path d="M251.351 180.486H249.288V180.125H251.351V180.486ZM247.226 180.486H245.163V180.125H247.226V180.486ZM243.1 180.486H241.038V180.125H243.1V180.486ZM238.975 180.486H236.912V180.125H238.975V180.486ZM234.85 180.486H232.787V180.125H234.85V180.486ZM230.724 180.486H228.662V180.125H230.724V180.486ZM226.599 180.486H224.536V180.125H226.599V180.486ZM222.474 180.486H220.411V180.125H222.474V180.486ZM218.348 180.486H216.286V180.125H218.348V180.486ZM214.223 180.486H212.16V180.125H214.223V180.486ZM210.098 180.486H208.035V180.125H210.098V180.486ZM205.972 180.486H203.91V180.125H205.972V180.486ZM201.847 180.486H199.784V180.125H201.847V180.486ZM197.722 180.486H195.659V180.125H197.722V180.486ZM193.596 180.486H191.534V180.125H193.596V180.486ZM189.471 180.486H187.409V180.125H189.471V180.486ZM185.346 180.486H183.283V180.125H185.346V180.486ZM181.221 180.486H179.158V180.125H181.221V180.486ZM177.095 180.486H175.033V180.125H177.095V180.486ZM172.97 180.486H170.907V180.125H172.97V180.486Z" fill="#2536A8"/>
<path d="M168.422 180.486H167.199V179.346H167.586V180.125H168.422V180.486Z" fill="#2536A8"/>
<path d="M167.586 177.407H167.184V175.483H167.571L167.586 177.407ZM167.586 173.559H167.184V171.635H167.571L167.586 173.559ZM167.586 169.711H167.184V167.787H167.571L167.586 169.711ZM167.586 165.863H167.184V163.939H167.571L167.586 165.863ZM167.586 162.014H167.184V160.09H167.571L167.586 162.014ZM167.586 158.166H167.184V156.242H167.571L167.586 158.166ZM167.586 154.318H167.184V152.394H167.571L167.586 154.318ZM167.586 150.47H167.184V148.546H167.571L167.586 150.47ZM167.586 146.622H167.184V144.698H167.571L167.586 146.622ZM167.586 142.774H167.184V140.849H167.571L167.586 142.774ZM167.586 138.925H167.184V137.001H167.571L167.586 138.925ZM167.586 135.077H167.184V133.153H167.571L167.586 135.077ZM167.586 131.229H167.184V129.305H167.571L167.586 131.229ZM167.586 127.381H167.184V125.457H167.571L167.586 127.381ZM167.586 123.533H167.184V121.609H167.571L167.586 123.533ZM167.586 119.661H167.184V117.736H167.571L167.586 119.661ZM167.586 115.812H167.184V113.888H167.571L167.586 115.812ZM167.586 111.964H167.184V110.04H167.571L167.586 111.964ZM167.586 108.116H167.184V106.192H167.571L167.586 108.116ZM167.586 104.268H167.184V102.344H167.571L167.586 104.268Z" fill="#2536A8"/>
<path d="M167.586 100.054H167.2V98.9141H168.422V99.2748H167.586V100.054Z" fill="#2536A8"/>
<path d="M251.351 99.2748H249.288V98.9141H251.351V99.2748ZM247.226 99.2748H245.163V98.9141H247.226V99.2748ZM243.1 99.2748H241.038V98.9141H243.1V99.2748ZM238.975 99.2748H236.912V98.9141H238.975V99.2748ZM234.85 99.2748H232.787V98.9141H234.85V99.2748ZM230.724 99.2748H228.662V98.9141H230.724V99.2748ZM226.599 99.2748H224.536V98.9141H226.599V99.2748ZM222.474 99.2748H220.411V98.9141H222.474V99.2748ZM218.348 99.2748H216.286V98.9141H218.348V99.2748ZM214.223 99.2748H212.16V98.9141H214.223V99.2748ZM210.098 99.2748H208.035V98.9141H210.098V99.2748ZM205.972 99.2748H203.91V98.9141H205.972V99.2748ZM201.847 99.2748H199.784V98.9141H201.847V99.2748ZM197.722 99.2748H195.659V98.9141H197.722V99.2748ZM193.596 99.2748H191.534V98.9141H193.596V99.2748ZM189.471 99.2748H187.409V98.9141H189.471V99.2748ZM185.346 99.2748H183.283V98.9141H185.346V99.2748ZM181.221 99.2748H179.158V98.9141H181.221V99.2748ZM177.095 99.2748H175.033V98.9141H177.095V99.2748ZM172.97 99.2748H170.907V98.9141H172.97V99.2748Z" fill="#2536A8"/>
<path d="M254.646 100.054H254.259V99.2748H253.424V98.9141H254.646V100.054Z" fill="#2536A8"/>
<path d="M254.646 177.407H254.259V175.483H254.646V177.407ZM254.646 173.559H254.259V171.635H254.646V173.559ZM254.646 169.711H254.259V167.787H254.646V169.711ZM254.646 165.863H254.259V163.939H254.646V165.863ZM254.646 162.014H254.259V160.09H254.646V162.014ZM254.646 158.166H254.259V156.242H254.646V158.166ZM254.646 154.318H254.259V152.394H254.646V154.318ZM254.646 150.47H254.259V148.546H254.646V150.47ZM254.646 146.622H254.259V144.698H254.646V146.622ZM254.646 142.774H254.259V140.849H254.646V142.774ZM254.646 138.925H254.259V137.001H254.646V138.925ZM254.646 135.077H254.259V133.153H254.646V135.077ZM254.646 131.229H254.259V129.305H254.646V131.229ZM254.646 127.381H254.259V125.457H254.646V127.381ZM254.646 123.533H254.259V121.609H254.646V123.533ZM254.646 119.661H254.259V117.736H254.646V119.661ZM254.646 115.812H254.259V113.888H254.646V115.812ZM254.646 111.964H254.259V110.04H254.646V111.964ZM254.646 108.116H254.259V106.192H254.646V108.116ZM254.646 104.268H254.259V102.344H254.646V104.268Z" fill="#2536A8"/>
</svg>
