<svg width="199" height="34" viewBox="0 0 199 34" fill="none" xmlns="http://www.w3.org/2000/svg">
<path fill-rule="evenodd" clip-rule="evenodd" d="M31.7163 3.99515L41.908 14.1845C44.7417 17.0176 44.9114 21.6987 42.2902 24.7295C39.748 27.669 35.4096 27.8804 32.6001 25.2015C32.5599 25.1632 32.5201 25.1243 32.4808 25.085L27.714 20.3193L27.7467 20.2838L22.7569 15.5567C22.6848 15.4825 22.6109 15.4094 22.535 15.3375L16.9627 10.0585L21.8988 4.351C23.1925 2.8551 24.9514 2.06571 26.7372 2.00418C28.4632 1.94258 30.2151 2.56097 31.597 3.87864C31.6372 3.91698 31.677 3.95582 31.7163 3.99515Z" fill="#2536A8"/>
<path fill-rule="evenodd" clip-rule="evenodd" d="M8.85658 23.4045L3.40574 18.2406C0.505632 15.4931 0.352515 10.9555 3.06082 8.01878L3.17041 7.89995C3.20885 7.85827 3.24779 7.81704 3.28722 7.77627C6.04208 4.9277 10.6069 4.82727 13.483 7.55197L24.2656 17.767C24.3415 17.8388 24.4154 17.9119 24.4875 17.9862L29.4773 22.7133L24.6244 27.9755C24.5946 28.0078 24.5644 28.0399 24.534 28.0717L24.5009 28.1076C24.4625 28.1493 24.4235 28.1905 24.3841 28.2313C21.6689 31.0389 17.1954 31.1768 14.3135 28.5714C14.2238 28.4942 14.1356 28.4145 14.0488 28.3323L8.85217 23.4093L8.85658 23.4045Z" fill="#2536A8"/>
<path d="M58.7179 15.256V25H54.7819V7.96H57.8539L65.7979 17.968V7.96H69.7339V25H66.5659L58.7179 15.256ZM78.0608 25.24C77.0048 25.24 76.0528 25.072 75.2048 24.736C74.3728 24.384 73.6608 23.912 73.0688 23.32C72.4928 22.728 72.0528 22.048 71.7488 21.28C71.4448 20.496 71.2928 19.68 71.2928 18.832C71.2928 17.92 71.4448 17.064 71.7488 16.264C72.0528 15.448 72.4928 14.736 73.0688 14.128C73.6448 13.52 74.3488 13.04 75.1808 12.688C76.0288 12.336 76.9888 12.16 78.0608 12.16C79.1328 12.16 80.0848 12.336 80.9168 12.688C81.7488 13.04 82.4528 13.52 83.0288 14.128C83.6048 14.72 84.0368 15.408 84.3248 16.192C84.6288 16.976 84.7808 17.8 84.7808 18.664C84.7808 18.888 84.7728 19.112 84.7568 19.336C84.7408 19.544 84.7168 19.728 84.6848 19.888H75.3728C75.4368 20.736 75.7408 21.384 76.2848 21.832C76.8448 22.264 77.4768 22.48 78.1808 22.48C78.7408 22.48 79.2768 22.344 79.7888 22.072C80.3168 21.8 80.6688 21.432 80.8448 20.968L84.1088 21.88C83.6128 22.872 82.8448 23.68 81.8048 24.304C80.7648 24.928 79.5168 25.24 78.0608 25.24ZM80.7248 17.512C80.6448 16.712 80.3568 16.08 79.8608 15.616C79.3648 15.152 78.7488 14.92 78.0128 14.92C77.2608 14.92 76.6368 15.16 76.1408 15.64C75.6608 16.104 75.3808 16.728 75.3008 17.512H80.7248ZM92.0652 25.24C91.0092 25.24 90.0572 25.072 89.2092 24.736C88.3772 24.384 87.6652 23.912 87.0732 23.32C86.4972 22.728 86.0572 22.048 85.7532 21.28C85.4492 20.496 85.2972 19.68 85.2972 18.832C85.2972 17.92 85.4492 17.064 85.7532 16.264C86.0572 15.448 86.4972 14.736 87.0732 14.128C87.6492 13.52 88.3532 13.04 89.1852 12.688C90.0332 12.336 90.9932 12.16 92.0652 12.16C93.1372 12.16 94.0892 12.336 94.9212 12.688C95.7532 13.04 96.4572 13.52 97.0332 14.128C97.6092 14.72 98.0412 15.408 98.3292 16.192C98.6332 16.976 98.7852 17.8 98.7852 18.664C98.7852 18.888 98.7772 19.112 98.7612 19.336C98.7452 19.544 98.7212 19.728 98.6892 19.888H89.3772C89.4412 20.736 89.7452 21.384 90.2892 21.832C90.8492 22.264 91.4812 22.48 92.1852 22.48C92.7452 22.48 93.2812 22.344 93.7932 22.072C94.3212 21.8 94.6732 21.432 94.8492 20.968L98.1132 21.88C97.6172 22.872 96.8492 23.68 95.8092 24.304C94.7692 24.928 93.5212 25.24 92.0652 25.24ZM94.7292 17.512C94.6492 16.712 94.3612 16.08 93.8652 15.616C93.3692 15.152 92.7532 14.92 92.0172 14.92C91.2652 14.92 90.6412 15.16 90.1452 15.64C89.6652 16.104 89.3852 16.728 89.3052 17.512H94.7292ZM119.966 25H116.126V17.92C116.126 17.088 115.974 16.488 115.67 16.12C115.366 15.736 114.974 15.544 114.494 15.544C114.238 15.544 113.974 15.6 113.702 15.712C113.446 15.824 113.206 15.984 112.982 16.192C112.758 16.384 112.55 16.616 112.358 16.888C112.182 17.16 112.038 17.456 111.926 17.776V25H108.086V17.92C108.086 17.088 107.934 16.488 107.63 16.12C107.326 15.736 106.934 15.544 106.454 15.544C105.942 15.544 105.438 15.752 104.942 16.168C104.462 16.568 104.11 17.104 103.886 17.776V25H100.046V12.4H103.502V14.512C103.966 13.744 104.59 13.16 105.374 12.76C106.174 12.36 107.102 12.16 108.158 12.16C108.686 12.16 109.142 12.224 109.526 12.352C109.926 12.48 110.27 12.656 110.558 12.88C110.846 13.104 111.078 13.368 111.254 13.672C111.43 13.96 111.558 14.272 111.638 14.608C112.118 13.824 112.75 13.224 113.534 12.808C114.318 12.376 115.214 12.16 116.222 12.16C117.022 12.16 117.662 12.312 118.142 12.616C118.638 12.904 119.022 13.288 119.294 13.768C119.566 14.232 119.742 14.744 119.822 15.304C119.918 15.864 119.966 16.408 119.966 16.936V25ZM129.555 25.24C128.595 25.24 127.755 25.04 127.035 24.64C126.315 24.224 125.747 23.648 125.331 22.912V25H121.995V7.48H125.835V14.464C126.251 13.744 126.803 13.184 127.491 12.784C128.195 12.368 129.019 12.16 129.963 12.16C130.763 12.16 131.499 12.336 132.171 12.688C132.843 13.024 133.419 13.488 133.899 14.08C134.379 14.672 134.755 15.376 135.027 16.192C135.299 16.992 135.435 17.848 135.435 18.76C135.435 19.672 135.283 20.528 134.979 21.328C134.691 22.112 134.283 22.8 133.755 23.392C133.227 23.968 132.603 24.424 131.883 24.76C131.163 25.08 130.387 25.24 129.555 25.24ZM128.475 22C128.923 22 129.331 21.92 129.699 21.76C130.067 21.584 130.379 21.352 130.635 21.064C130.907 20.776 131.115 20.44 131.259 20.056C131.419 19.656 131.499 19.224 131.499 18.76C131.499 18.312 131.427 17.888 131.283 17.488C131.139 17.072 130.939 16.712 130.683 16.408C130.443 16.104 130.147 15.864 129.795 15.688C129.443 15.512 129.067 15.424 128.667 15.424C128.059 15.424 127.499 15.632 126.987 16.048C126.491 16.464 126.107 16.984 125.835 17.608V20.248C126.091 20.792 126.459 21.224 126.939 21.544C127.435 21.848 127.947 22 128.475 22ZM136.819 7.48H140.659V20.512C140.659 21.472 141.067 21.952 141.883 21.952C142.075 21.952 142.283 21.928 142.507 21.88C142.747 21.816 142.963 21.728 143.155 21.616L143.659 24.496C143.179 24.72 142.627 24.896 142.003 25.024C141.379 25.152 140.795 25.216 140.251 25.216C139.147 25.216 138.299 24.928 137.707 24.352C137.115 23.776 136.819 22.944 136.819 21.856V7.48ZM150.45 25.24C149.394 25.24 148.442 25.072 147.594 24.736C146.762 24.384 146.05 23.912 145.458 23.32C144.882 22.728 144.442 22.048 144.138 21.28C143.834 20.496 143.682 19.68 143.682 18.832C143.682 17.92 143.834 17.064 144.138 16.264C144.442 15.448 144.882 14.736 145.458 14.128C146.034 13.52 146.738 13.04 147.57 12.688C148.418 12.336 149.378 12.16 150.45 12.16C151.522 12.16 152.474 12.336 153.306 12.688C154.138 13.04 154.842 13.52 155.418 14.128C155.994 14.72 156.426 15.408 156.714 16.192C157.018 16.976 157.17 17.8 157.17 18.664C157.17 18.888 157.162 19.112 157.146 19.336C157.13 19.544 157.106 19.728 157.074 19.888H147.762C147.826 20.736 148.13 21.384 148.674 21.832C149.234 22.264 149.866 22.48 150.57 22.48C151.13 22.48 151.666 22.344 152.178 22.072C152.706 21.8 153.058 21.432 153.234 20.968L156.498 21.88C156.002 22.872 155.234 23.68 154.194 24.304C153.154 24.928 151.906 25.24 150.45 25.24ZM153.114 17.512C153.034 16.712 152.746 16.08 152.25 15.616C151.754 15.152 151.138 14.92 150.402 14.92C149.65 14.92 149.026 15.16 148.53 15.64C148.05 16.104 147.77 16.728 147.69 17.512H153.114ZM158.625 25V7.96H165.897C166.713 7.96 167.457 8.128 168.129 8.464C168.817 8.8 169.401 9.24 169.881 9.784C170.377 10.328 170.761 10.944 171.033 11.632C171.321 12.32 171.465 13.016 171.465 13.72C171.465 14.472 171.329 15.192 171.057 15.88C170.801 16.568 170.433 17.184 169.953 17.728C169.489 18.272 168.921 18.704 168.249 19.024C167.577 19.344 166.833 19.504 166.017 19.504H162.561V25H158.625ZM162.561 16.072H165.777C166.241 16.072 166.641 15.872 166.977 15.472C167.313 15.072 167.481 14.488 167.481 13.72C167.481 13.32 167.425 12.976 167.313 12.688C167.217 12.4 167.081 12.16 166.905 11.968C166.729 11.776 166.529 11.64 166.305 11.56C166.081 11.464 165.857 11.416 165.633 11.416H162.561V16.072ZM176.245 25.24C175.621 25.24 175.037 25.144 174.493 24.952C173.965 24.744 173.509 24.464 173.125 24.112C172.741 23.744 172.437 23.32 172.213 22.84C171.989 22.344 171.877 21.808 171.877 21.232C171.877 20.608 172.005 20.04 172.261 19.528C172.533 19.016 172.909 18.576 173.389 18.208C173.869 17.84 174.437 17.552 175.093 17.344C175.749 17.136 176.477 17.032 177.277 17.032C177.805 17.032 178.317 17.08 178.813 17.176C179.309 17.256 179.741 17.384 180.109 17.56V16.984C180.109 15.528 179.269 14.8 177.589 14.8C176.901 14.8 176.245 14.92 175.621 15.16C174.997 15.384 174.341 15.728 173.653 16.192L172.525 13.792C173.357 13.248 174.221 12.84 175.117 12.568C176.013 12.296 176.965 12.16 177.973 12.16C179.877 12.16 181.349 12.608 182.389 13.504C183.429 14.4 183.949 15.712 183.949 17.44V20.68C183.949 21.064 184.005 21.336 184.117 21.496C184.245 21.64 184.461 21.728 184.765 21.76V25C184.429 25.08 184.125 25.128 183.853 25.144C183.581 25.176 183.333 25.192 183.109 25.192C182.389 25.192 181.845 25.056 181.477 24.784C181.109 24.496 180.877 24.096 180.781 23.584L180.709 23.008C180.149 23.728 179.477 24.28 178.693 24.664C177.925 25.048 177.109 25.24 176.245 25.24ZM177.373 22.48C177.789 22.48 178.189 22.408 178.573 22.264C178.973 22.12 179.301 21.928 179.557 21.688C179.925 21.4 180.109 21.096 180.109 20.776V19.576C179.773 19.448 179.405 19.352 179.005 19.288C178.621 19.208 178.261 19.168 177.925 19.168C177.221 19.168 176.637 19.328 176.173 19.648C175.725 19.968 175.501 20.384 175.501 20.896C175.501 21.36 175.677 21.744 176.029 22.048C176.381 22.336 176.829 22.48 177.373 22.48ZM186.043 26.896C186.363 27.008 186.659 27.088 186.931 27.136C187.219 27.184 187.475 27.208 187.699 27.208C188.163 27.208 188.523 27.048 188.779 26.728C189.035 26.408 189.267 25.832 189.475 25L184.675 12.4H188.635L191.563 21.712L194.083 12.4H197.683L192.883 27.04C192.547 28.08 191.947 28.92 191.083 29.56C190.219 30.216 189.195 30.544 188.011 30.544C187.691 30.544 187.363 30.512 187.027 30.448C186.707 30.4 186.379 30.312 186.043 30.184V26.896Z" fill="#1F1F29"/>
</svg>
