<svg width="296" height="594" viewBox="0 0 296 594" fill="none" xmlns="http://www.w3.org/2000/svg">
<path fill-rule="evenodd" clip-rule="evenodd" d="M291.456 136.548H292.137C292.89 136.548 293.5 137.159 293.5 137.914V203.48C293.5 204.235 292.89 204.846 292.137 204.846H291.456V136.548Z" fill="#121515"/>
<path fill-rule="evenodd" clip-rule="evenodd" d="M2.5 177.527C2.5 176.772 3.11023 176.161 3.863 176.161H4.5445V219.189H3.863C3.11023 219.189 2.5 218.577 2.5 217.823V177.527Z" fill="#121515"/>
<path fill-rule="evenodd" clip-rule="evenodd" d="M2.5 123.571C2.5 122.817 3.11023 122.205 3.863 122.205H4.5445V165.233H3.863C3.11023 165.233 2.5 164.622 2.5 163.867V123.571Z" fill="#121515"/>
<path fill-rule="evenodd" clip-rule="evenodd" d="M2.5 81.9092C2.5 81.1548 3.11023 80.5432 3.863 80.5432H4.5445V103.082H3.863C3.11023 103.082 2.5 102.47 2.5 101.716V81.9092Z" fill="#121515"/>
<g filter="url(#filter0_dd_175_261)">
<path fill-rule="evenodd" clip-rule="evenodd" d="M4.54443 45.028C4.54443 21.2643 23.7668 2 47.4789 2H248.521C272.233 2 291.455 21.2643 291.455 45.028V544.972C291.455 568.736 272.233 588 248.521 588H47.4789C23.7668 588 4.54443 568.736 4.54443 544.972V45.028Z" fill="#3A4245"/>
</g>
<path fill-rule="evenodd" clip-rule="evenodd" d="M7.95215 45.0281C7.95215 23.1504 25.649 5.41504 47.4791 5.41504H248.521C270.351 5.41504 288.048 23.1504 288.048 45.0281V544.972C288.048 566.85 270.351 584.585 248.521 584.585H47.4791C25.649 584.585 7.95215 566.85 7.95215 544.972V45.0281Z" fill="#121515"/>
<path fill-rule="evenodd" clip-rule="evenodd" d="M179.008 29.3193C182.019 29.3193 184.46 26.8731 184.46 23.8555C184.46 20.8379 182.019 18.3916 179.008 18.3916C175.997 18.3916 173.556 20.8379 173.556 23.8555C173.556 26.8731 175.997 29.3193 179.008 29.3193Z" fill="#262C2D"/>
<path fill-rule="evenodd" clip-rule="evenodd" d="M179.008 27.2705C180.89 27.2705 182.416 25.7416 182.416 23.8556C182.416 21.9696 180.89 20.4407 179.008 20.4407C177.126 20.4407 175.601 21.9696 175.601 23.8556C175.601 25.7416 177.126 27.2705 179.008 27.2705Z" fill="#121515"/>
<path opacity="0.4" fill-rule="evenodd" clip-rule="evenodd" d="M179.008 23.1726C179.385 23.1726 179.69 22.8668 179.69 22.4896C179.69 22.1124 179.385 21.8066 179.008 21.8066C178.632 21.8066 178.327 22.1124 178.327 22.4896C178.327 22.8668 178.632 23.1726 179.008 23.1726Z" fill="#636F73"/>
<path fill-rule="evenodd" clip-rule="evenodd" d="M130.622 23.8556C130.622 22.724 131.539 21.8066 132.671 21.8066H163.329C164.461 21.8066 165.378 22.724 165.378 23.8556V23.8556C165.378 24.9872 164.461 25.9045 163.329 25.9045H132.671C131.539 25.9045 130.622 24.9872 130.622 23.8556V23.8556Z" fill="#262C2D"/>
<path fill-rule="evenodd" clip-rule="evenodd" d="M92.4576 38.1983H203.542C212.575 38.1983 219.898 30.8595 219.898 20.9529C219.99 19.2019 221.388 17.8014 223.131 17.7132L249.884 17.7087C264.186 17.7087 275.781 29.3285 275.781 43.6621V546.338C275.781 560.672 264.186 572.292 249.884 572.292H46.1157C31.8132 572.292 20.2188 560.672 20.2188 546.338V43.6621C20.2188 29.3285 31.8132 17.7087 46.1157 17.7087H72.8645C74.6117 17.8014 76.0092 19.2019 76.0973 20.9485C76.1017 30.8595 83.4245 38.1983 92.4576 38.1983Z" fill="white"/>
<defs>
<filter id="filter0_dd_175_261" x="0.544434" y="0" width="294.911" height="594" filterUnits="userSpaceOnUse" color-interpolation-filters="sRGB">
<feFlood flood-opacity="0" result="BackgroundImageFix"/>
<feColorMatrix in="SourceAlpha" type="matrix" values="0 0 0 0 0 0 0 0 0 0 0 0 0 0 0 0 0 0 127 0" result="hardAlpha"/>
<feOffset/>
<feGaussianBlur stdDeviation="1"/>
<feColorMatrix type="matrix" values="0 0 0 0 0 0 0 0 0 0.0823529 0 0 0 0 0.25098 0 0 0 0.14 0"/>
<feBlend mode="normal" in2="BackgroundImageFix" result="effect1_dropShadow_175_261"/>
<feColorMatrix in="SourceAlpha" type="matrix" values="0 0 0 0 0 0 0 0 0 0 0 0 0 0 0 0 0 0 127 0" result="hardAlpha"/>
<feOffset dy="2"/>
<feGaussianBlur stdDeviation="2"/>
<feColorMatrix type="matrix" values="0 0 0 0 0 0 0 0 0 0.0823529 0 0 0 0 0.25098 0 0 0 0.05 0"/>
<feBlend mode="normal" in2="effect1_dropShadow_175_261" result="effect2_dropShadow_175_261"/>
<feBlend mode="normal" in="SourceGraphic" in2="effect2_dropShadow_175_261" result="shape"/>
</filter>
</defs>
</svg>
