<svg width="97" height="90" viewBox="0 0 97 90" fill="none" xmlns="http://www.w3.org/2000/svg">
<path d="M84.8241 4.64024V12.7122H12.1763V4.64024C12.1763 3.56983 12.6015 2.54326 13.3584 1.78636C14.1153 1.02947 15.1418 0.604248 16.2123 0.604248H80.7881C81.8585 0.604248 82.8851 1.02947 83.642 1.78636C84.3989 2.54326 84.8241 3.56983 84.8241 4.64024Z" fill="#3C3B42"/>
<path d="M80.7881 0.604248H74.7341C75.8045 0.604248 76.8311 1.02947 77.588 1.78636C78.3449 2.54326 78.7701 3.56983 78.7701 4.64024C78.7701 5.17544 78.5575 5.68873 78.179 6.06718C77.8006 6.44562 77.2873 6.65823 76.7521 6.65823H12.1763V12.9302H84.8241V4.64024C84.8241 3.56983 84.3989 2.54326 83.642 1.78636C82.8851 1.02947 81.8585 0.604248 80.7881 0.604248Z" fill="#2B2A2F"/>
<path d="M4.10449 24.8201H92.8963V85.3599H4.10449V24.8201Z" fill="#E8E8E8"/>
<path d="M44.4644 45.0005H20.2485C19.178 45.0005 18.1515 45.4257 17.3946 46.1826C16.6377 46.9395 16.2125 47.9661 16.2125 49.0365V73.2524C16.2125 74.3228 16.6377 75.3494 17.3946 76.1063C18.1515 76.8632 19.178 77.2884 20.2485 77.2884H44.4644C45.5348 77.2884 46.5614 76.8632 47.3183 76.1063C48.0752 75.3494 48.5004 74.3228 48.5004 73.2524V49.0365C48.5004 47.9661 48.0752 46.9395 47.3183 46.1826C46.5614 45.4257 45.5348 45.0005 44.4644 45.0005V45.0005ZM44.4644 73.2524H20.2485V49.0365H44.4644V73.2524ZM92.8963 30.8745H4.10449V40.5932C4.73814 40.8192 5.41215 40.9645 6.12249 40.9645C7.7281 40.9645 9.26796 40.3267 10.4033 39.1913C11.5386 38.056 12.1765 36.5161 12.1765 34.9105C12.1765 36.5161 12.8143 38.056 13.9496 39.1913C15.085 40.3267 16.6248 40.9645 18.2305 40.9645C19.8361 40.9645 21.3759 40.3267 22.5113 39.1913C23.6466 38.056 24.2844 36.5161 24.2844 34.9105C24.2844 36.5161 24.9223 38.056 26.0576 39.1913C27.193 40.3267 28.7328 40.9645 30.3384 40.9645C31.944 40.9645 33.4839 40.3267 34.6192 39.1913C35.7546 38.056 36.3924 36.5161 36.3924 34.9105C36.3924 36.5161 37.0302 38.056 38.1656 39.1913C39.3009 40.3267 40.8408 40.9645 42.4464 40.9645C44.052 40.9645 45.5919 40.3267 46.7272 39.1913C47.8626 38.056 48.5004 36.5161 48.5004 34.9105C48.5004 36.5161 49.1382 38.056 50.2736 39.1913C51.4089 40.3267 52.9488 40.9645 54.5544 40.9645C56.16 40.9645 57.6998 40.3267 58.8352 39.1913C59.9705 38.056 60.6084 36.5161 60.6084 34.9105C60.6084 36.5161 61.2462 38.056 62.3815 39.1913C63.5169 40.3267 65.0567 40.9645 66.6623 40.9645C68.268 40.9645 69.8078 40.3267 70.9432 39.1913C72.0785 38.056 72.7163 36.5161 72.7163 34.9105C72.7163 36.5161 73.3542 38.056 74.4895 39.1913C75.6249 40.3267 77.1647 40.9645 78.7703 40.9645C80.3759 40.9645 81.9158 40.3267 83.0511 39.1913C84.1865 38.056 84.8243 36.5161 84.8243 34.9105C84.8243 36.5161 85.4621 38.056 86.5975 39.1913C87.7328 40.3267 89.2727 40.9645 90.8783 40.9645C91.5886 40.9645 92.2626 40.8192 92.8963 40.5932V30.8745Z" fill="#A0A4A8"/>
<path d="M16.2124 49.0355V69.2155C16.2124 70.2859 16.6376 71.3124 17.3945 72.0693C18.1514 72.8262 19.178 73.2514 20.2484 73.2514H44.4643C45.5347 73.2514 46.5613 72.8262 47.3182 72.0693C48.0751 71.3124 48.5003 70.2859 48.5003 69.2155V49.0355C48.5003 47.9651 48.0751 46.9385 47.3182 46.1816C46.5613 45.4247 45.5347 44.9995 44.4643 44.9995H20.2484C19.178 44.9995 18.1514 45.4247 17.3945 46.1816C16.6376 46.9385 16.2124 47.9651 16.2124 49.0355Z" fill="#EFF2FA"/>
<path opacity="0.7" d="M84.8241 57.1075V85.3594H60.6082V57.1075C60.6082 53.8963 61.8838 50.8165 64.1545 48.5459C66.4252 46.2752 69.5049 44.9995 72.7161 44.9995C75.9274 44.9995 79.0071 46.2752 81.2778 48.5459C83.5484 50.8165 84.8241 53.8963 84.8241 57.1075V57.1075Z" fill="#BF9219"/>
<path d="M74.3382 45.165C73.8125 45.0647 73.2791 45.0107 72.744 45.0035L72.7158 44.9995C72.6673 44.9995 72.6229 45.0076 72.5785 45.0116C72.0467 45.0202 71.5164 45.0702 70.9924 45.161C70.5525 45.2336 70.1206 45.3224 69.6928 45.4314C72.2871 46.0962 74.5869 47.6043 76.2306 49.7186C77.8744 51.8328 78.769 54.4334 78.7738 57.1115V73.2555C78.7738 74.3259 78.3486 75.3525 77.5917 76.1094C76.8348 76.8662 75.8082 77.2915 74.7378 77.2915H60.6118V85.3635H84.8237V57.1115C84.8196 54.1879 83.7543 51.3653 81.8258 49.168C79.8972 46.9707 77.2366 45.5483 74.3382 45.165Z" fill="#BF9219"/>
<path d="M96.9319 89.3957H0.0681152V85.3597C0.0681152 84.2893 0.493334 83.2627 1.25023 82.5058C2.00712 81.7489 3.03369 81.3237 4.10411 81.3237H92.8959C93.9663 81.3237 94.9929 81.7489 95.7498 82.5058C96.5067 83.2627 96.9319 84.2893 96.9319 85.3597V89.3957Z" fill="#3C3B42"/>
<path d="M92.896 81.3237H84.824C85.8944 81.3237 86.921 81.7489 87.6779 82.5058C88.4347 83.2627 88.86 84.2893 88.86 85.3597V89.3957H96.9319V85.3597C96.9319 84.2893 96.5067 83.2627 95.7498 82.5058C94.9929 81.7489 93.9664 81.3237 92.896 81.3237Z" fill="#2B2A2F"/>
<path d="M18.2302 47.0181H46.4822V71.234H18.2302V47.0181Z" fill="#90CFF1"/>
<path opacity="0.25" d="M47.2036 55.1952C46.8252 54.8169 46.312 54.6044 45.7769 54.6044C45.2418 54.6044 44.7286 54.8169 44.3502 55.1952L39.3617 60.1837C38.9833 60.5626 38.7709 61.0764 38.7713 61.6119C38.7717 62.1474 38.9848 62.6608 39.3637 63.0392C39.7426 63.4176 40.2563 63.6299 40.7918 63.6296C41.3273 63.6292 41.8408 63.4161 42.2192 63.0372L47.2076 58.0487C47.5844 57.6692 47.7956 57.1559 47.7948 56.6211C47.794 56.0863 47.5815 55.5736 47.2036 55.1952ZM35.2208 64.3206L34.4378 65.1036C34.0588 65.4825 33.846 65.9964 33.846 66.5323C33.846 67.0682 34.0588 67.5821 34.4378 67.9611C34.8167 68.34 35.3306 68.5529 35.8665 68.5529C36.4024 68.5529 36.9163 68.34 37.2953 67.9611L38.0782 67.1781C38.4572 66.7992 38.67 66.2852 38.67 65.7493C38.67 65.2135 38.4572 64.6995 38.0782 64.3206C37.8906 64.133 37.6679 63.9841 37.4227 63.8826C37.1776 63.7811 36.9148 63.7288 36.6495 63.7288C36.1136 63.7288 35.5997 63.9417 35.2208 64.3206V64.3206ZM40.6653 54.7271C41.0329 54.3465 41.2363 53.8367 41.2317 53.3076C41.2271 52.7785 41.0149 52.2723 40.6407 51.8982C40.2666 51.524 39.7604 51.3118 39.2313 51.3072C38.7022 51.3026 38.1925 51.506 37.8119 51.8736L31.2897 58.3958C31.1023 58.5834 30.9538 58.8061 30.8525 59.0511C30.7512 59.2962 30.6991 59.5588 30.6993 59.8239C30.6995 60.0891 30.7519 60.3516 30.8536 60.5965C30.9552 60.8414 31.1041 61.0639 31.2917 61.2512C31.4793 61.4386 31.702 61.5872 31.9471 61.6885C32.1921 61.7898 32.4547 61.8418 32.7199 61.8416C32.985 61.8414 33.2475 61.789 33.4924 61.6874C33.7373 61.5857 33.9598 61.4368 34.1472 61.2492L40.6653 54.7271ZM26.3658 63.3197L25.5828 64.1027C25.2044 64.4816 24.9921 64.9953 24.9924 65.5308C24.9928 66.0663 25.2059 66.5797 25.5848 66.9581C25.9638 67.3365 26.4775 67.5489 27.013 67.5485C27.5485 67.5481 28.0619 67.335 28.4403 66.9561L29.2233 66.1731C29.6017 65.7942 29.814 65.2805 29.8136 64.745C29.8133 64.2095 29.6002 63.6961 29.2213 63.3177C28.8423 62.9393 28.3286 62.7269 27.7931 62.7273C27.2576 62.7277 26.7442 62.9408 26.3658 63.3197Z" fill="#EFF2FA"/>
<path d="M44.4643 44.9995H20.2484C19.178 44.9995 18.1514 45.4247 17.3945 46.1816C16.6376 46.9385 16.2124 47.9651 16.2124 49.0355V69.2155C16.2124 70.2859 16.6376 71.3124 17.3945 72.0693C18.1514 72.8262 19.178 73.2514 20.2484 73.2514H44.4643C45.5347 73.2514 46.5613 72.8262 47.3182 72.0693C48.0751 71.3124 48.5003 70.2859 48.5003 69.2155V49.0355C48.5003 47.9651 48.0751 46.9385 47.3182 46.1816C46.5613 45.4247 45.5347 44.9995 44.4643 44.9995V44.9995ZM44.4643 69.2155H20.2484V49.0355H44.4643V69.2155Z" fill="#EFF2FA"/>
<path d="M66.6623 72.0248C67.7768 72.0248 68.6803 71.1213 68.6803 70.0068C68.6803 68.8923 67.7768 67.9888 66.6623 67.9888C65.5478 67.9888 64.6443 68.8923 64.6443 70.0068C64.6443 71.1213 65.5478 72.0248 66.6623 72.0248Z" fill="#3C3B42"/>
<path d="M89.5218 11.0732C89.2048 10.3595 88.6875 9.75318 88.0327 9.32765C87.378 8.90212 86.6138 8.67568 85.8329 8.67578H10.7635C9.16927 8.67578 7.72439 9.61617 7.07459 11.0732L0.0681152 26.8377V30.8737C0.0681152 32.4793 0.705944 34.0192 1.84129 35.1545C2.97663 36.2899 4.51648 36.9277 6.1221 36.9277C7.72772 36.9277 9.26757 36.2899 10.4029 35.1545C11.5383 34.0192 12.1761 32.4793 12.1761 30.8737C12.1761 32.4793 12.8139 34.0192 13.9493 35.1545C15.0846 36.2899 16.6245 36.9277 18.2301 36.9277C19.8357 36.9277 21.3755 36.2899 22.5109 35.1545C23.6462 34.0192 24.2841 32.4793 24.2841 30.8737C24.2841 32.4793 24.9219 34.0192 26.0572 35.1545C27.1926 36.2899 28.7324 36.9277 30.338 36.9277C31.9437 36.9277 33.4835 36.2899 34.6189 35.1545C35.7542 34.0192 36.392 32.4793 36.392 30.8737C36.392 32.4793 37.0299 34.0192 38.1652 35.1545C39.3005 36.2899 40.8404 36.9277 42.446 36.9277C44.0516 36.9277 45.5915 36.2899 46.7268 35.1545C47.8622 34.0192 48.5 32.4793 48.5 30.8737C48.5 32.4793 49.1378 34.0192 50.2732 35.1545C51.4085 36.2899 52.9484 36.9277 54.554 36.9277C56.1596 36.9277 57.6995 36.2899 58.8348 35.1545C59.9701 34.0192 60.608 32.4793 60.608 30.8737C60.608 32.4793 61.2458 34.0192 62.3811 35.1545C63.5165 36.2899 65.0563 36.9277 66.662 36.9277C68.2676 36.9277 69.8074 36.2899 70.9428 35.1545C72.0781 34.0192 72.7159 32.4793 72.7159 30.8737C72.7159 32.4793 73.3538 34.0192 74.4891 35.1545C75.6245 36.2899 77.1643 36.9277 78.7699 36.9277C80.3755 36.9277 81.9154 36.2899 83.0507 35.1545C84.1861 34.0192 84.8239 32.4793 84.8239 30.8737C84.8239 34.2155 87.5361 36.9277 90.8779 36.9277C94.2197 36.9277 96.5283 34.2155 96.5283 30.8737V26.8377L89.5218 11.0732V11.0732Z" fill="#BF9219"/>
<path d="M58.59 8.67578H48.5V30.8737C48.5 32.4793 49.1378 34.0192 50.2732 35.1545C51.4085 36.2899 52.9484 36.9277 54.554 36.9277C56.1596 36.9277 57.6995 36.2899 58.8348 35.1545C59.9701 34.0192 60.608 32.4793 60.608 30.8737V26.8377L58.59 8.67578ZM18.2301 8.67578H10.7635C9.16927 8.67578 7.72439 9.61617 7.07459 11.0732L0.0681152 26.8377V30.8737C0.0681152 32.4793 0.705944 34.0192 1.84129 35.1545C2.97663 36.2899 4.51648 36.9277 6.1221 36.9277C7.72772 36.9277 9.26757 36.2899 10.4029 35.1545C11.5383 34.0192 12.1761 32.4793 12.1761 30.8737V26.8377L18.2301 8.67578Z" fill="#BF9219"/>
<path d="M28.3202 8.67578H18.2303L12.1763 26.8377V30.8737C12.1763 32.4793 12.8141 34.0192 13.9494 35.1545C15.0848 36.2899 16.6246 36.9277 18.2303 36.9277C19.8359 36.9277 21.3757 36.2899 22.5111 35.1545C23.6464 34.0192 24.2842 32.4793 24.2842 30.8737V26.8377L28.3202 8.67578ZM48.5002 8.67578H38.4102L36.3922 26.8377V30.8737C36.3922 32.4793 37.03 34.0192 38.1654 35.1545C39.3007 36.2899 40.8406 36.9277 42.4462 36.9277C44.0518 36.9277 45.5917 36.2899 46.727 35.1545C47.8624 34.0192 48.5002 32.4793 48.5002 30.8737V8.67578ZM68.6801 8.67578H58.5902L60.6082 26.8377V30.8737C60.6082 32.4793 61.246 34.0192 62.3813 35.1545C63.5167 36.2899 65.0565 36.9277 66.6621 36.9277C68.2678 36.9277 69.8076 36.2899 70.9429 35.1545C72.0783 34.0192 72.7161 32.4793 72.7161 30.8737V26.8377L68.6801 8.67578Z" fill="#EFF2FA"/>
<path d="M78.7697 8.67578H68.6797L72.7157 26.8377V30.8737C72.7157 32.4793 73.3535 34.0192 74.4889 35.1545C75.6242 36.2899 77.164 36.9277 78.7697 36.9277C80.3753 36.9277 81.9151 36.2899 83.0505 35.1545C84.1858 34.0192 84.8237 32.4793 84.8237 30.8737V26.8377L78.7697 8.67578Z" fill="#BF9219"/>
<path d="M89.9253 11.0732C89.6082 10.3595 89.0909 9.75318 88.4362 9.32765C87.7814 8.90212 87.0173 8.67568 86.2364 8.67578H78.7698L84.8238 26.8377V30.8737C84.8238 32.4793 85.4616 34.0192 86.5969 35.1545C87.7323 36.2899 89.2721 36.9277 90.8777 36.9277C92.4834 36.9277 94.0232 36.2899 95.1586 35.1545C96.2939 34.0192 96.9317 32.4793 96.9317 30.8737V26.8377L89.9253 11.0732V11.0732Z" fill="#EFF2FA"/>
<path d="M38.4099 8.67578H28.3199L24.2839 26.8377V30.8737C24.2839 32.4793 24.9218 34.0192 26.0571 35.1545C27.1924 36.2899 28.7323 36.9277 30.3379 36.9277C31.9435 36.9277 33.4834 36.2899 34.6187 35.1545C35.7541 34.0192 36.3919 32.4793 36.3919 30.8737V26.8377L38.4099 8.67578Z" fill="#BF9219"/>
<path d="M12.1761 26.8379V30.8739C12.1761 32.4795 11.5383 34.0194 10.4029 35.1547C9.26757 36.29 7.72772 36.9279 6.1221 36.9279C4.51648 36.9279 2.97663 36.29 1.84129 35.1547C0.705944 34.0194 0.0681152 32.4795 0.0681152 30.8739V26.8379" fill="#BF9219"/>
<path d="M24.2842 26.8379V30.8739C24.2842 32.4795 23.6464 34.0194 22.5111 35.1547C21.3757 36.29 19.8359 36.9279 18.2303 36.9279C16.6246 36.9279 15.0848 36.29 13.9494 35.1547C12.8141 34.0194 12.1763 32.4795 12.1763 30.8739V26.8379" fill="#D5E5F1"/>
<path d="M36.3919 26.8379V30.8739C36.3919 32.4795 35.7541 34.0194 34.6187 35.1547C33.4834 36.29 31.9435 36.9279 30.3379 36.9279C28.7323 36.9279 27.1924 36.29 26.0571 35.1547C24.9218 34.0194 24.2839 32.4795 24.2839 30.8739V26.8379" fill="#BF9219"/>
<path d="M48.5001 26.8379V30.8739C48.5001 32.4795 47.8622 34.0194 46.7269 35.1547C45.5915 36.29 44.0517 36.9279 42.4461 36.9279C40.8405 36.9279 39.3006 36.29 38.1653 35.1547C37.0299 34.0194 36.3921 32.4795 36.3921 30.8739V26.8379" fill="#D5E5F1"/>
<path d="M60.608 26.8379V30.8739C60.608 32.4795 59.9701 34.0194 58.8348 35.1547C57.6995 36.29 56.1596 36.9279 54.554 36.9279C52.9484 36.9279 51.4085 36.29 50.2732 35.1547C49.1378 34.0194 48.5 32.4795 48.5 30.8739V26.8379" fill="#BF9219"/>
<path d="M72.7161 26.8379V30.8739C72.7161 32.4795 72.0783 34.0194 70.943 35.1547C69.8076 36.29 68.2678 36.9279 66.6621 36.9279C65.0565 36.9279 63.5167 36.29 62.3813 35.1547C61.246 34.0194 60.6082 32.4795 60.6082 30.8739V26.8379" fill="#D5E5F1"/>
<path d="M84.8238 26.8379V30.8739C84.8238 32.4795 84.186 34.0194 83.0506 35.1547C81.9153 36.29 80.3754 36.9279 78.7698 36.9279C77.1642 36.9279 75.6243 36.29 74.489 35.1547C73.3537 34.0194 72.7158 32.4795 72.7158 30.8739V26.8379" fill="#BF9219"/>
<path d="M96.9319 26.8379V30.8739C96.9319 32.4795 96.2941 34.0194 95.1588 35.1547C94.0234 36.29 92.4836 36.9279 90.878 36.9279C89.2723 36.9279 87.7325 36.29 86.5971 35.1547C85.4618 34.0194 84.824 32.4795 84.824 30.8739V26.8379" fill="#D5E5F1"/>
</svg>
