<svg width="113" height="94" viewBox="0 0 113 94" fill="none" xmlns="http://www.w3.org/2000/svg">
<path d="M110.78 57.5554L49.2895 1.02464C47.7309 -0.408586 46.093 -0.157878 44.643 0.67782L7.55057 22.0842C7.10298 22.3408 6.71408 22.6882 6.40894 23.1042C6.1038 23.5201 5.88917 23.9954 5.77889 24.4994L1.24105 42.6842C0.725459 45.0258 0.799477 47.4588 1.45646 49.7647C2.11344 52.0707 3.33282 54.1774 5.0051 55.8956C6.67739 57.6139 8.75023 58.89 11.0375 59.6092C13.3248 60.3285 15.7549 60.4685 18.1096 60.0166C19.3446 59.779 20.6164 59.8125 21.8371 60.1148C23.0578 60.4171 24.1983 60.981 25.1796 61.7674L68.9744 93.432C69.4213 93.7557 69.9491 93.9493 70.4993 93.9913C71.0495 94.0334 71.6006 93.9222 72.0915 93.6701L110.421 71.5659C110.898 71.2544 111.295 70.8355 111.581 70.3428C111.867 69.8501 112.033 69.2973 112.067 68.7287C112.067 66.6102 112.067 63.2716 112.067 61.7506C112.084 59.3104 112.322 58.9803 110.78 57.5554Z" fill="#37474F"/>
<path d="M112.084 61.7466C112.084 63.2676 112.084 66.6062 112.084 68.7247C112.05 69.2933 111.883 69.8461 111.597 70.3388C111.311 70.8315 110.914 71.2503 110.437 71.5619L72.0955 93.6619C71.605 93.9231 71.0482 94.0336 70.4951 93.9795V82.9065C70.6568 82.9318 70.8203 82.9444 70.984 82.9441C71.6028 82.9486 72.212 82.7917 72.7515 82.4886L109.94 61.0196C110.284 60.8426 110.581 60.5868 110.807 60.2731C111.032 59.9593 111.181 59.5965 111.24 59.2144C111.271 58.8812 111.223 58.5452 111.098 58.2347C110.973 57.9242 110.775 57.6483 110.521 57.4302L70.5077 20.6595V20.5383L110.792 57.5806C112.326 58.9804 112.084 59.3105 112.084 61.7466Z" fill="#263238"/>
<path d="M110.124 57.8608L48.734 1.42195C47.8481 0.607149 46.1893 0.485971 45.0402 1.14617L8.85026 22.0386C7.29586 22.937 7.00337 24.575 8.2026 25.6781L69.2086 81.7618C69.6675 82.1189 70.2217 82.3325 70.8016 82.3756C71.3814 82.4187 71.9611 82.2895 72.4678 82.0042L109.656 60.5393C110.793 59.8791 111.01 58.6715 110.124 57.8608Z" fill="#455A64"/>
<path d="M53.8649 8.26154L107.049 57.1499C107.884 57.9271 107.692 59.0803 106.598 59.7071L72.9565 79.1329C71.8617 79.7681 70.2864 79.6511 69.4382 78.8697L15.8449 29.6053C15.6863 29.4767 15.5572 29.3155 15.4663 29.1327C15.3754 28.9498 15.3249 28.7496 15.3182 28.5455C15.3114 28.3415 15.3486 28.1383 15.4272 27.9499C15.5059 27.7615 15.624 27.5921 15.7738 27.4534L15.9201 27.3071C16.0383 27.2108 16.164 27.1241 16.2961 27.048L49.2101 8.04426L49.4065 7.92726C50.7937 7.12917 52.7952 7.27959 53.8649 8.26154Z" fill="black"/>
<path d="M16.0162 28.6238C15.8841 28.6999 15.7584 28.7866 15.6402 28.8829C15.59 28.9289 15.5441 28.979 15.4939 29.0291C15.4438 29.0793 15.4689 29.0668 15.4521 29.0835C15.5488 29.2809 15.6821 29.4581 15.8449 29.6058L69.4382 78.8869C70.2739 79.6683 71.8618 79.7853 72.9565 79.1501L106.581 59.7243C106.792 59.6047 106.982 59.4524 107.145 59.2731C107.05 59.0724 106.916 58.8921 106.752 58.7424L53.5683 9.85404C52.4987 8.87209 50.4972 8.72167 49.1099 9.52394L48.9135 9.63676L16.0162 28.6238Z" fill="#F5F5F5"/>
<path d="M112.067 68.7284C112.067 67.2367 112.067 65.1432 112.067 63.5011L70.4786 87.5065L56.0211 74.2147L51.0988 74.5365L29.2328 54.4379L28.9528 49.336L15.7195 37.1682L7.45864 38.8062L3.21747 34.8032L1.24105 42.6839C0.725459 45.0255 0.799477 47.4585 1.45646 49.7644C2.11344 52.0703 3.33282 54.177 5.0051 55.8953C6.67739 57.6136 8.75023 58.8896 11.0375 59.6089C13.3248 60.3282 15.7549 60.4681 18.1096 60.0162C19.3446 59.7787 20.6164 59.8122 21.8371 60.1145C23.0578 60.4168 24.1983 60.9806 25.1796 61.767L68.9744 93.4316C69.4213 93.7553 69.9491 93.9489 70.4993 93.991C71.0495 94.033 71.6006 93.9218 72.0915 93.6698L110.421 71.5656C110.898 71.254 111.295 70.8352 111.581 70.3425C111.867 69.8498 112.033 69.297 112.067 68.7284Z" fill="#BF9219"/>
<path opacity="0.3" d="M51.1072 74.5365L29.2411 54.438L28.9612 49.336L15.7195 37.1682L7.45864 38.8062L3.21747 34.8032L1.24105 42.6839C0.725459 45.0255 0.799477 47.4585 1.45646 49.7644C2.11344 52.0704 3.33282 54.177 5.0051 55.8953C6.67739 57.6136 8.75023 58.8896 11.0375 59.6089C13.3248 60.3282 15.7549 60.4681 18.1096 60.0162C19.3446 59.7787 20.6164 59.8122 21.8371 60.1145C23.0578 60.4168 24.1983 60.9806 25.1796 61.767L68.9744 93.4316C69.4156 93.7633 69.9445 93.958 70.4954 93.9916V87.5065L56.0211 74.2147L51.1072 74.5365Z" fill="white"/>
<path d="M30.8589 51.1416V53.327L51.0661 71.9338V69.7484L30.8589 51.1416Z" fill="black"/>
<path d="M30.8589 53.3266L51.0661 71.9167V69.7314L32.3255 52.4951L30.8589 53.3266Z" fill="#263238"/>
<path d="M89.1346 54.1249L91.0567 53.0134L88.0733 50.2723H88.0231C87.4214 50.6191 86.8239 50.9659 86.218 51.3086C86.1303 51.3629 86.1679 51.4047 86.218 51.4506C86.6581 51.8518 87.0955 52.2543 87.5301 52.6582C87.5441 52.6729 87.561 52.6845 87.5796 52.6925C87.5983 52.7005 87.6184 52.7046 87.6387 52.7046C87.659 52.7046 87.6791 52.7005 87.6978 52.6925C87.7164 52.6845 87.7333 52.6729 87.7473 52.6582C87.9771 52.5203 88.2153 52.3908 88.4451 52.2404C88.5496 52.1777 88.6206 52.1693 88.7042 52.2404C88.8797 52.4075 89.0594 52.5746 89.2474 52.7334C89.3352 52.8128 89.3143 52.8546 89.2098 52.9131C88.9675 53.0468 88.7335 53.1889 88.4911 53.331C88.4034 53.3811 88.395 53.4229 88.4619 53.4814C88.6875 53.6819 88.8797 53.8992 89.1179 54.0831L88.1443 54.6472L84.3837 51.2041L83.6524 51.622C83.3599 51.7849 83.4351 51.7891 83.2095 51.5843C82.9839 51.3796 82.846 51.2501 82.6538 51.0746L81.6844 51.6387L80.928 50.945C80.6481 51.0871 80.4099 51.2417 80.1383 51.3921C79.9503 51.5008 79.9503 51.5008 79.8082 51.3712L79.3569 50.9534C79.2023 50.8113 79.2023 50.8113 79.4071 50.6943L80.1634 50.2556L79.4196 49.6288C79.1396 49.7918 78.8639 49.9464 78.5839 50.1135C78.5687 50.1292 78.5505 50.1416 78.5304 50.1501C78.5103 50.1587 78.4887 50.163 78.4669 50.163C78.4451 50.163 78.4235 50.1587 78.4034 50.1501C78.3833 50.1416 78.3651 50.1292 78.3499 50.1135C78.1911 49.9547 78.0198 49.8085 77.8569 49.6539C77.6939 49.4993 77.7022 49.516 77.907 49.3948L78.6758 48.9519C78.446 48.7388 78.2246 48.534 78.0156 48.3418C77.9362 48.2624 77.8736 48.275 77.7816 48.3418C77.5476 48.4839 77.3053 48.6176 77.0713 48.7597C77.0551 48.774 77.0362 48.7848 77.0156 48.7915C76.9951 48.7982 76.9734 48.8007 76.9519 48.7987C76.9304 48.7968 76.9095 48.7904 76.8905 48.7801C76.8715 48.7698 76.8548 48.7558 76.8415 48.7388C76.6618 48.5675 76.4696 48.4003 76.2941 48.229C76.2189 48.1538 76.1562 48.158 76.0601 48.229C75.8261 48.3669 75.5921 48.5048 75.3456 48.6469C75.2411 48.7054 75.2453 48.7513 75.3205 48.8182C75.5127 48.9853 75.6966 49.1608 75.8846 49.3321C75.9473 49.3823 75.9556 49.4241 75.8846 49.47C75.5879 49.633 75.2996 49.8001 75.0113 49.9673L71.4805 46.6704C71.2674 46.4741 71.2674 46.474 70.9832 46.637L70.3021 47.0298L69.5542 46.3403C69.8383 46.1774 70.1099 46.0144 70.3899 45.8598C70.4944 45.8013 70.4943 45.7595 70.4191 45.6927C70.0013 45.2957 69.5458 44.8946 69.1196 44.4976C69.104 44.4805 69.0849 44.4669 69.0637 44.4575C69.0425 44.4482 69.0195 44.4434 68.9964 44.4434C68.9732 44.4434 68.9502 44.4482 68.929 44.4575C68.9078 44.4669 68.8888 44.4805 68.8731 44.4976C68.6558 44.6272 68.4302 44.7442 68.2171 44.8779C68.0834 44.9614 68.0082 44.9698 67.8953 44.857C67.4775 44.4767 67.0596 44.1007 66.6669 43.7204C66.5707 43.6285 66.5081 43.616 66.3702 43.6954C65.5094 44.1968 64.6445 44.6968 63.7753 45.1954C63.6416 45.2665 63.6291 45.3166 63.7335 45.4085C64.1514 45.7888 64.5692 46.1732 64.9871 46.5534C65.0957 46.6454 65.079 46.6997 64.9453 46.7707C64.7155 46.8919 64.494 47.0214 64.2726 47.1551C64.2574 47.1708 64.2392 47.1833 64.2191 47.1918C64.199 47.2003 64.1774 47.2047 64.1556 47.2047C64.1338 47.2047 64.1121 47.2003 64.092 47.1918C64.072 47.1833 64.0538 47.1708 64.0386 47.1551C63.8673 46.9922 63.6834 46.8334 63.5163 46.6663C63.5001 46.6461 63.48 46.6294 63.4572 46.6171C63.4345 46.6049 63.4095 46.5974 63.3837 46.5951C63.358 46.5927 63.332 46.5956 63.3074 46.6035C63.2828 46.6115 63.26 46.6243 63.2405 46.6412C63.019 46.7791 62.7892 46.9128 62.5552 47.0381C62.4508 47.0966 62.4382 47.1426 62.5218 47.2178C62.714 47.3808 62.8979 47.5521 63.0733 47.7234C63.1026 47.7527 63.111 47.8362 63.0733 47.8529C62.785 48.0284 62.4925 48.1956 62.1791 48.3753L60.6833 46.9964C60.3699 47.1802 60.0732 47.3473 59.789 47.5228C59.764 47.5228 59.789 47.6106 59.789 47.6357C59.9687 47.8112 60.1526 47.9867 60.349 48.1538C60.4284 48.2248 60.4158 48.2666 60.3155 48.3251C60.0774 48.4588 59.8434 48.6009 59.601 48.743C59.5007 48.7973 59.4924 48.8433 59.5718 48.9143C59.7431 49.0605 59.9019 49.2151 60.069 49.3656C60.2362 49.516 60.2236 49.5076 60.4284 49.3906C60.959 49.0814 61.4897 48.7722 62.0287 48.4672C62.0747 48.4421 62.1959 48.4212 62.2168 48.4421C62.4507 48.6427 62.6764 48.86 62.9146 49.0731C62.6262 49.2402 62.3588 49.399 62.0789 49.5494C61.9619 49.6121 61.9577 49.6622 62.0454 49.7375C62.2669 49.9338 62.4633 50.1553 62.6931 50.3308L63.6709 49.7751L64.4188 50.4645L63.4494 51.0244L64.1932 51.7097C64.4731 51.5509 64.7531 51.3921 65.0289 51.2292C65.1333 51.1665 65.1918 51.1665 65.2712 51.2292C65.4802 51.4339 65.6891 51.6261 65.9147 51.8267L66.9343 51.2501C67.1643 51.4925 67.407 51.7227 67.6613 51.9395L69.4497 50.9116C69.4957 50.8865 69.621 50.8656 69.6419 50.8865C69.8759 51.0871 70.1016 51.3044 70.3397 51.5175L67.561 53.1262C67.5067 53.1554 67.3981 53.1847 67.4775 53.2557L68.1669 53.895C68.4552 53.7279 68.731 53.5775 69.0026 53.4145C69.1154 53.3477 69.1865 53.3435 69.2742 53.4145C69.4455 53.5817 69.6336 53.7363 69.8007 53.9034C69.8885 53.9953 69.9553 53.9912 70.0723 53.9034L71.7103 52.9549C71.8189 52.8922 71.8858 52.888 71.9694 52.9549C72.1407 53.122 72.3162 53.2808 72.5 53.4396C72.592 53.519 72.5669 53.5691 72.4582 53.6318L71.7563 54.0497C71.6643 54.0998 71.656 54.1416 71.7312 54.2084C71.9067 54.363 72.0696 54.526 72.2535 54.6806C72.358 54.7725 72.3663 54.831 72.2159 54.9104C71.9903 55.0274 71.798 55.1653 71.5557 55.2865C71.4387 55.3492 71.4387 55.3951 71.5223 55.4745C71.9944 55.8924 72.4708 56.3102 72.9179 56.7657L71.961 57.3089C72.1783 57.5094 72.3788 57.7058 72.6045 57.9064C72.6197 57.9221 72.6379 57.9345 72.658 57.943C72.6781 57.9515 72.6997 57.9559 72.7215 57.9559C72.7433 57.9559 72.7649 57.9515 72.785 57.943C72.8051 57.9345 72.8233 57.9221 72.8385 57.9064C73.1101 57.7434 73.3859 57.5847 73.6742 57.4217C74.1756 57.8395 74.6018 58.2574 75.0823 58.6752C75.1701 58.7546 75.1617 58.8006 75.0489 58.8633C74.7648 59.0221 74.489 59.185 74.2132 59.348C74.4263 59.5444 74.6311 59.7408 74.8525 59.9288C74.9528 60.0165 74.9277 60.0625 74.8107 60.1252C74.5893 60.2422 74.3929 60.3801 74.1631 60.4929C74.0043 60.5723 74.0168 60.6308 74.1296 60.7269C74.3386 60.9066 74.5266 61.0946 74.7272 61.2826C75.0071 61.1238 75.2954 60.9692 75.5629 60.8063C75.5793 60.7889 75.599 60.7751 75.6209 60.7657C75.6428 60.7563 75.6665 60.7514 75.6903 60.7514C75.7142 60.7514 75.7378 60.7563 75.7597 60.7657C75.7816 60.7751 75.8013 60.7889 75.8177 60.8063C76.2356 61.1949 76.6534 61.5877 77.0713 61.9721C77.1758 62.0598 77.1757 62.11 77.0379 62.1852C76.4403 62.532 75.8428 62.8621 75.262 63.2214C75.4793 63.422 75.6799 63.61 75.893 63.8064C75.9075 63.8244 75.9255 63.8393 75.9459 63.8501C75.9663 63.8609 75.9887 63.8675 76.0118 63.8695C76.0348 63.8714 76.058 63.8687 76.0799 63.8615C76.1019 63.8542 76.1221 63.8426 76.1395 63.8273C76.3693 63.6894 76.6075 63.5599 76.8373 63.4095C76.9376 63.3468 77.0044 63.3426 77.0838 63.4095C77.2551 63.5808 77.439 63.7438 77.6229 63.9067C77.7106 63.9819 77.6981 64.0279 77.5894 64.0864C77.3471 64.2201 77.1089 64.358 76.8791 64.5042C76.8373 64.5293 76.7997 64.6045 76.8248 64.6254C77.0379 64.8343 77.2635 65.0433 77.4933 65.2522L79.4405 64.1282C79.2232 63.9318 79.0226 63.7396 78.8137 63.5557C78.726 63.4805 78.7176 63.4304 78.8388 63.3677C79.0811 63.234 79.3193 63.0947 79.5533 62.9498C79.5681 62.9343 79.586 62.9219 79.6057 62.9135C79.6255 62.905 79.6467 62.9006 79.6682 62.9006C79.6897 62.9006 79.711 62.905 79.7307 62.9135C79.7505 62.9219 79.7683 62.9343 79.7831 62.9498C79.9628 63.1253 80.1508 63.2883 80.3305 63.4596C80.3428 63.476 80.3583 63.4897 80.376 63.4999C80.3938 63.5102 80.4134 63.5166 80.4337 63.519C80.4541 63.5213 80.4747 63.5195 80.4943 63.5136C80.5139 63.5077 80.5321 63.4979 80.5478 63.4847C81.1049 63.1504 81.676 62.8203 82.261 62.4944C82.3487 62.4442 82.3529 62.4025 82.286 62.344C82.098 62.1768 81.9225 62.0055 81.7303 61.8384C81.6509 61.7673 81.6509 61.7172 81.7596 61.6587C81.9977 61.525 82.2317 61.3913 82.4615 61.2408C82.4792 61.2258 82.4996 61.2145 82.5217 61.2076C82.5439 61.2006 82.5671 61.1983 82.5902 61.2006C82.6132 61.203 82.6356 61.21 82.6558 61.2212C82.6761 61.2324 82.6939 61.2476 82.7081 61.2659C82.871 61.4247 83.0507 61.5709 83.2095 61.7339C83.3683 61.8969 83.385 61.8342 83.5229 61.7548C84.4296 61.2158 85.3656 60.706 86.2682 60.1586C85.562 59.5068 84.8642 58.8633 84.1538 58.2156C84.0535 58.1279 84.041 58.0777 84.1831 58.0025C84.4087 57.8813 84.6009 57.7476 84.8433 57.6264C84.9645 57.5638 84.9853 57.5136 84.8851 57.4301C84.6929 57.2671 84.5174 57.0916 84.3293 56.9244C84.2541 56.8576 84.2667 56.82 84.3586 56.7657C84.6051 56.6278 84.8516 56.4899 85.0898 56.3478C85.1188 56.3192 85.1578 56.3032 85.1984 56.3032C85.2391 56.3032 85.2782 56.3192 85.3071 56.3478C85.4951 56.5275 85.6915 56.6988 85.8754 56.8743C85.9034 56.9014 85.9409 56.9165 85.9798 56.9165C86.0188 56.9165 86.0563 56.9014 86.0843 56.8743C86.3684 56.703 86.6484 56.5484 86.9409 56.3771L88.3699 57.6933C88.4368 57.7518 88.3908 57.7852 88.3281 57.8228C88.0816 57.9649 87.8309 58.1028 87.5885 58.2407C87.5741 58.2555 87.5569 58.2672 87.5379 58.2752C87.5189 58.2832 87.4985 58.2874 87.4778 58.2874C87.4572 58.2874 87.4368 58.2832 87.4177 58.2752C87.3987 58.2672 87.3815 58.2555 87.3671 58.2407C87.1916 58.0694 86.9994 57.9022 86.8197 57.7309C86.8063 57.7139 86.7897 57.6999 86.7707 57.6896C86.7517 57.6792 86.7308 57.6729 86.7093 57.671C86.6878 57.669 86.6661 57.6715 86.6456 57.6782C86.625 57.6849 86.6061 57.6957 86.5899 57.71C86.3559 57.8521 86.1219 57.99 85.8754 58.1279C85.7626 58.1905 85.7709 58.2365 85.8545 58.3075C86.0258 58.4621 86.2013 58.6126 86.3601 58.7755C86.5189 58.9385 86.5356 58.8842 86.6693 58.8006C86.92 58.6418 87.1874 58.4956 87.4674 58.3368L88.207 59.0179L89.1806 58.4538C88.9925 58.2783 88.8087 58.1153 88.6332 57.9482C88.4577 57.781 88.3992 57.7978 88.6791 57.6348C89.1973 57.3339 89.7154 57.0331 90.2377 56.7364C90.3673 56.6654 90.3714 56.6153 90.2711 56.5317C89.3895 55.7796 89.9076 55.8798 88.7794 56.4523C88.7227 56.4727 88.6606 56.4727 88.6039 56.4523C88.3699 56.2517 88.1526 56.0344 87.9187 55.8339C88.4911 55.4787 89.0845 55.157 89.6694 54.8143C89.8658 54.6973 89.8658 54.6973 89.707 54.5511C89.5483 54.4048 89.3226 54.3422 89.1346 54.1416V54.1249ZM63.6959 49.7082L62.9355 49.0104C63.2614 48.8224 63.5622 48.6343 63.8798 48.4421C63.6709 48.2415 63.462 48.0243 63.2572 47.8362C63.1862 47.7819 63.1903 47.736 63.2781 47.69C63.5288 47.5479 63.7795 47.4059 64.0219 47.2721C64.0504 47.246 64.0876 47.2315 64.1263 47.2315C64.165 47.2315 64.2023 47.246 64.2308 47.2721L66.32 49.1775C66.3911 49.2444 66.3785 49.2862 66.2866 49.3363C66.0443 49.47 65.8061 49.6093 65.5721 49.7542C65.476 49.8127 65.4133 49.8127 65.3423 49.7542C65.125 49.5536 64.9244 49.3572 64.6862 49.165L63.6959 49.7082ZM67.7491 50.7361C67.4817 50.8865 67.2226 51.0411 66.9593 51.1957C66.9186 51.1783 66.8795 51.1573 66.8423 51.1331L66.2699 50.6233C66.1989 50.5606 66.1947 50.523 66.2908 50.4687C66.5373 50.3308 66.7797 50.1929 67.0178 50.0508C67.0347 50.0367 67.0542 50.0261 67.0752 50.0196C67.0962 50.0132 67.1183 50.0111 67.1402 50.0134C67.162 50.0158 67.1832 50.0225 67.2024 50.0333C67.2216 50.044 67.2384 50.0585 67.2518 50.0759C67.4273 50.243 67.6028 50.4102 67.7909 50.569C67.8828 50.6442 67.8577 50.6901 67.7491 50.7528V50.7361ZM80.8278 52.1819L81.6969 51.6888C81.9434 51.9103 82.1858 52.1359 82.4407 52.3741C82.1314 52.5496 81.8389 52.7251 81.5339 52.8922C81.4905 52.9003 81.4456 52.8914 81.4086 52.8671C81.1996 52.6833 80.9907 52.4953 80.7985 52.3114C80.7358 52.2947 80.7609 52.2404 80.8278 52.1986V52.1819ZM75.8762 50.5481L76.6284 50.1093C76.6564 50.0823 76.6939 50.0671 76.7328 50.0671C76.7718 50.0671 76.8093 50.0823 76.8373 50.1093C77.0212 50.2848 77.2134 50.4603 77.4097 50.6358C77.4766 50.6985 77.4641 50.7403 77.3805 50.7863C77.134 50.9241 76.8916 51.062 76.6534 51.2041C76.619 51.2316 76.5751 51.2444 76.5313 51.2397C76.4875 51.235 76.4473 51.2132 76.4194 51.179C76.2147 50.9868 76.0016 50.7988 75.7885 50.6066C75.8164 50.5899 75.8457 50.5759 75.8762 50.5648V50.5481ZM77.3596 52.0607C77.2886 51.998 77.3095 51.9562 77.393 51.9103C77.4766 51.8643 77.6437 51.7682 77.7649 51.6972L78.1368 51.4841C78.1632 51.4588 78.1984 51.4447 78.235 51.4447C78.2716 51.4447 78.3068 51.4588 78.3332 51.4841L78.914 52.0231C78.9809 52.0816 78.96 52.1192 78.8848 52.161C78.634 52.303 78.3833 52.4451 78.141 52.5788C78.1129 52.6059 78.0755 52.621 78.0365 52.621C77.9976 52.621 77.9601 52.6059 77.9321 52.5788C77.7482 52.4284 77.556 52.2529 77.3596 52.0774V52.0607ZM71.7061 48.3C71.773 48.3585 71.7688 48.4003 71.681 48.4463C71.4262 48.5884 71.1754 48.7346 70.9247 48.8641C70.8579 48.9059 70.8077 48.9143 70.7492 48.8641C70.5278 48.651 70.3021 48.4463 70.0807 48.2374C70.3565 48.0744 70.6406 47.9156 70.9164 47.7527C70.9316 47.737 70.9498 47.7245 70.9699 47.716C70.99 47.7075 71.0115 47.7031 71.0334 47.7031C71.0552 47.7031 71.0768 47.7075 71.0969 47.716C71.117 47.7245 71.1352 47.737 71.1504 47.7527C71.3259 47.9908 71.5139 48.1622 71.7061 48.3335V48.3ZM69.738 49.4157C69.8132 49.4826 69.8174 49.5285 69.713 49.587C69.4706 49.7166 69.2324 49.8544 68.9984 50.0049C68.9672 50.0355 68.9252 50.0526 68.8814 50.0526C68.8377 50.0526 68.7957 50.0355 68.7645 50.0049L67.4649 48.8056C67.419 48.7639 67.3605 48.7221 67.4649 48.6636L69.3369 47.5855L70.0849 48.275C69.8091 48.4338 69.5417 48.5967 69.2492 48.7513C69.1113 48.8265 69.1113 48.8809 69.2157 48.9686C69.3912 49.1274 69.5625 49.2945 69.738 49.4491V49.4157ZM65.2127 46.7415C65.1333 46.6704 65.1459 46.6245 65.2462 46.5701C65.4551 46.4573 65.664 46.3362 65.8604 46.2192C66.0568 46.1022 66.1028 46.1105 65.9064 45.9225C65.71 45.7345 65.6013 45.6383 65.4425 45.5046C65.359 45.4294 65.3632 45.3835 65.4718 45.3208C65.71 45.1912 65.944 45.0575 66.1696 44.9029C66.1864 44.8848 66.2068 44.8704 66.2294 44.8605C66.2521 44.8507 66.2765 44.8456 66.3012 44.8456C66.3259 44.8456 66.3504 44.8507 66.373 44.8605C66.3957 44.8704 66.416 44.8848 66.4329 44.9029C66.6376 45.1077 66.8507 45.2874 67.068 45.4921L68.0374 44.9322C68.2798 45.1536 68.5096 45.35 68.7268 45.5715C68.7268 45.5715 68.6976 45.6676 68.6558 45.6927C68.0583 46.0437 67.4482 46.3863 66.8716 46.754C67.0805 46.9546 67.2894 47.1719 67.4984 47.3599C67.5778 47.4184 67.5652 47.4644 67.4691 47.5187C67.2268 47.6524 66.9886 47.7903 66.7546 47.9365C66.7394 47.9522 66.7212 47.9647 66.7011 47.9732C66.681 47.9817 66.6594 47.986 66.6376 47.986C66.6158 47.986 66.5942 47.9817 66.5741 47.9732C66.554 47.9647 66.5358 47.9522 66.5206 47.9365C66.086 47.5437 65.6306 47.1426 65.2127 46.7415ZM72.9555 56.7698C73.2522 56.5943 73.5488 56.423 73.8497 56.2559C73.8939 56.2459 73.9404 56.2533 73.9792 56.2768C74.1923 56.4648 74.3971 56.6529 74.5935 56.8451C74.6185 56.8451 74.5935 56.9245 74.5935 56.9412L73.7076 57.4551L72.9555 56.7698ZM80.577 62.3231C80.6481 62.3899 80.6314 62.4359 80.5436 62.486C80.2971 62.6239 80.0547 62.7618 79.8166 62.9039C79.7881 62.93 79.7508 62.9445 79.7121 62.9445C79.6734 62.9445 79.6362 62.93 79.6076 62.9039C79.5199 62.812 79.4196 62.7284 79.3235 62.6406C79.2274 62.5529 79.1188 62.461 79.031 62.3649C79.0207 62.3441 79.0176 62.3206 79.0221 62.2979C79.0267 62.2752 79.0386 62.2547 79.0561 62.2395C79.2984 62.0891 79.5575 61.947 79.8082 61.8008C79.8228 61.7882 79.8398 61.7788 79.8582 61.7731C79.8766 61.7673 79.8959 61.7654 79.9151 61.7673C79.9342 61.7693 79.9528 61.7751 79.9696 61.7844C79.9864 61.7938 80.0012 61.8064 80.013 61.8216C80.201 61.9762 80.3848 62.1517 80.577 62.3231ZM78.3165 60.2338C78.3457 60.2631 78.3541 60.3425 78.3165 60.3592C78.0365 60.5305 77.744 60.6935 77.4306 60.8773L76.9125 60.4219C76.6743 60.2046 76.6743 60.2046 76.9835 60.0291L77.6855 59.6321C77.877 59.8515 78.0882 60.053 78.3165 60.2338ZM78.4669 59.1683C78.2037 59.3104 77.9571 59.465 77.7022 59.6154C77.4527 59.4401 77.2204 59.2414 77.0086 59.0221C76.9785 58.9942 76.9389 58.9787 76.8979 58.9787C76.8568 58.9787 76.8173 58.9942 76.7872 59.0221C76.549 59.1641 76.3066 59.3062 76.0601 59.4399C76.0037 59.4622 75.941 59.4622 75.8846 59.4399C75.6506 59.2393 75.4333 59.0221 75.191 58.8131L75.9431 58.3953C76.1854 58.2532 76.1813 58.2866 75.9891 58.107L74.6603 56.891L75.2954 56.5275C75.6297 56.3311 75.6297 56.3311 75.8888 56.5693L78.5003 58.9803C78.609 59.0555 78.609 59.1056 78.4669 59.185V59.1683ZM82.7039 60.0959C81.6008 60.6767 82.0813 60.7352 81.208 59.9748C81.194 59.9601 81.1771 59.9484 81.1584 59.9405C81.1397 59.9325 81.1197 59.9284 81.0994 59.9284C81.0791 59.9284 81.059 59.9325 81.0403 59.9405C81.0216 59.9484 81.0048 59.9601 80.9907 59.9748C79.8751 60.5848 80.3598 60.6015 79.4906 59.8745C79.4029 59.7951 79.4154 59.7491 79.5282 59.6864L81.3375 58.6418L82.7331 59.9246C82.8209 60.004 82.8167 60.05 82.7039 60.1126V60.0959ZM82.286 58.061L81.3208 58.6209L79.9001 57.3214C79.8374 57.2671 79.85 57.2295 79.9294 57.1835C80.1843 57.0415 80.435 56.8952 80.6857 56.7657C80.7098 56.7424 80.742 56.7295 80.7755 56.7295C80.809 56.7295 80.8412 56.7424 80.8654 56.7657L82.286 58.061ZM79.9377 55.8965C80.0171 55.9718 80.0213 56.0135 79.9085 56.0762C79.6703 56.2057 79.4363 56.3395 79.2107 56.4941C79.1947 56.5106 79.1755 56.5238 79.1544 56.5328C79.1332 56.5418 79.1104 56.5464 79.0874 56.5464C79.0644 56.5464 79.0416 56.5418 79.0204 56.5328C78.9993 56.5238 78.9801 56.5106 78.9641 56.4941C78.7928 56.3227 78.6048 56.164 78.4293 55.9968C78.416 55.9778 78.3987 55.962 78.3786 55.9505C78.3585 55.9389 78.3361 55.9319 78.313 55.9299C78.2899 55.9279 78.2666 55.931 78.2449 55.9389C78.2231 55.9469 78.2033 55.9595 78.1869 55.9759C77.9529 56.118 77.7106 56.2475 77.4724 56.3938C77.4572 56.4095 77.4391 56.4219 77.419 56.4304C77.3989 56.4389 77.3773 56.4433 77.3554 56.4433C77.3336 56.4433 77.312 56.4389 77.2919 56.4304C77.2718 56.4219 77.2536 56.4095 77.2384 56.3938C77.0546 56.2183 76.8707 56.047 76.6785 55.8757C76.5991 55.8088 76.6242 55.767 76.7119 55.7169L77.4599 55.299C77.5351 55.2572 77.5602 55.2196 77.4933 55.1611C77.2719 54.9647 77.0755 54.7642 76.8289 54.5511C76.2063 54.8812 75.6255 55.2363 75.0238 55.5832C74.9068 55.6542 74.8358 55.6542 74.7481 55.5832C74.5767 55.4118 74.3929 55.2489 74.209 55.0859C74.1296 55.0149 74.138 54.9689 74.2383 54.9146C74.4765 54.7851 74.7021 54.643 74.9403 54.4967C75.0447 54.4382 75.0656 54.3965 74.982 54.3171C73.9959 53.4354 73.0641 52.5287 72.0571 51.6554C71.7813 51.8183 71.5097 51.9646 71.2507 52.1234C71.2323 52.1416 71.2103 52.1557 71.186 52.1647C71.1618 52.1736 71.1358 52.1772 71.1101 52.1752C71.0843 52.1732 71.0592 52.1657 71.0366 52.1532C71.014 52.1406 70.9944 52.1233 70.979 52.1025C70.7785 51.9103 70.5612 51.7264 70.3481 51.5217L72.3036 50.3935L71.7186 49.7876C71.5724 49.6539 71.5724 49.6539 71.7646 49.5411C71.9568 49.4282 72.1825 49.2945 72.4081 49.1692C72.4248 49.1534 72.4446 49.1414 72.4663 49.1338C72.488 49.1262 72.5111 49.1233 72.534 49.1253C72.5568 49.1273 72.579 49.1341 72.5991 49.1452C72.6192 49.1564 72.6367 49.1717 72.6504 49.1901L74.0419 50.4687L75.0113 49.9088L75.7801 50.6275C75.7445 50.6375 75.7095 50.65 75.6757 50.6651C75.0698 51.0244 74.4221 51.3587 73.8497 51.7306L74.5893 52.4117L75.3456 51.9938C75.5503 51.8768 75.5503 51.8768 75.7049 52.0147L77.7942 53.9494C78.4 53.5984 78.9976 53.2599 79.5951 52.9089C79.7037 52.8421 79.7664 52.8379 79.8542 52.9089C80.0157 53.0705 80.187 53.2293 80.3681 53.3853C80.4684 53.4688 80.4684 53.5148 80.3389 53.59C79.7288 53.9327 79.148 54.2753 78.5463 54.6221C79.0268 55.065 79.4823 55.4871 79.9544 55.9133L79.9377 55.8965ZM85.4325 55.1319L82.6705 56.7281C82.6529 56.7464 82.6318 56.761 82.6085 56.7709C82.5852 56.7809 82.56 56.786 82.5347 56.786C82.5093 56.786 82.4842 56.7809 82.4608 56.7709C82.4375 56.761 82.4164 56.7464 82.3989 56.7281C81.7331 56.1041 81.0617 55.4857 80.3848 54.8728C80.2804 54.7809 80.3054 54.7391 80.4266 54.6681C81.2957 54.1694 82.1621 53.6694 83.0256 53.168C83.151 53.0928 83.2095 53.1011 83.3056 53.1889C84.0159 53.8449 84.7388 54.4926 85.4492 55.1486L85.4325 55.1319ZM66.0108 61.8718C65.9147 61.9303 65.8562 61.9303 65.781 61.8718C65.3632 61.4539 64.9119 61.0695 64.4731 60.6684C64.3938 60.5974 64.4021 60.5556 64.5024 60.4971L66.1989 59.5193C66.2148 59.5044 66.2337 59.4931 66.2543 59.486C66.2749 59.4789 66.2968 59.4763 66.3185 59.4783C66.3402 59.4802 66.3612 59.4868 66.3802 59.4974C66.3992 59.5081 66.4157 59.5227 66.4287 59.5402C66.6418 59.7408 66.8674 59.958 67.0889 60.1419C67.6822 59.7951 68.2756 59.4524 68.8773 59.1098C68.9901 59.0471 69.0193 59.0012 68.9191 58.9134C68.6976 58.7254 68.5012 58.529 68.2797 58.3368C67.5945 58.6752 66.9928 59.0889 66.3159 59.4399C66.0944 59.2352 65.898 59.043 65.6724 58.8424C65.6427 58.8135 65.603 58.7974 65.5616 58.7974C65.5203 58.7974 65.4806 58.8135 65.4509 58.8424C65.2169 58.9845 64.9746 59.114 64.7406 59.2602C64.7246 59.2768 64.7054 59.29 64.6843 59.2989C64.6631 59.3079 64.6403 59.3126 64.6173 59.3126C64.5943 59.3126 64.5715 59.3079 64.5503 59.2989C64.5292 59.29 64.51 59.2768 64.494 59.2602C64.0344 58.8424 63.5748 58.4245 63.1026 57.9774C62.5051 58.3243 61.9076 58.6627 61.3142 59.0137C61.1889 59.0889 61.1136 59.0847 61.0217 59.0137C60.8601 58.8493 60.6888 58.6906 60.5078 58.5374C60.4075 58.4538 60.4242 58.4078 60.5412 58.341C61.4646 57.8061 62.4048 57.288 63.3115 56.7322L61.8908 55.4244C61.866 55.4009 61.8331 55.3878 61.7989 55.3878C61.7647 55.3878 61.7318 55.4009 61.707 55.4244C61.4563 55.5706 61.2056 55.7169 60.9507 55.8422C60.8671 55.8882 60.8671 55.9258 60.9298 55.9801L61.5983 56.5944L60.9507 56.9704C60.6164 57.1626 60.6164 57.1626 60.3531 56.9244L59.8643 56.4732C59.576 56.6361 59.3211 56.7907 59.0536 56.937C58.9116 57.0122 58.9199 57.0623 59.016 57.1543C59.4757 57.5721 59.9478 57.99 60.3824 58.4078L58.4603 59.5151C58.6525 59.7366 58.8781 59.933 59.1038 60.1252C59.1874 60.2087 59.25 60.2004 59.3503 60.1252C59.5843 59.9873 59.8267 59.8536 60.0607 59.7073C60.0887 59.6803 60.1262 59.6651 60.1651 59.6651C60.2041 59.6651 60.2415 59.6803 60.2696 59.7073C60.4534 59.8828 60.6415 60.0541 60.8337 60.2213C60.9172 60.2965 60.888 60.3383 60.7919 60.3926C60.5621 60.5221 60.3406 60.66 60.1066 60.7854C59.9813 60.8522 59.9813 60.9024 60.0732 60.9818C60.5454 61.3996 60.9799 61.8384 61.4646 62.2353C61.7529 62.0682 62.0204 61.9094 62.3003 61.7506C62.3532 61.7331 62.4104 61.7331 62.4633 61.7506C62.7015 61.9554 62.9313 62.1685 63.1736 62.3941L62.2209 62.9457L62.9689 63.6351L63.8046 63.1546C63.9049 63.0961 63.9634 63.1003 64.0344 63.1546C64.2183 63.3301 64.4105 63.5014 64.5943 63.6727C64.6079 63.6866 64.6242 63.6977 64.6421 63.7052C64.6601 63.7127 64.6793 63.7166 64.6988 63.7166C64.7182 63.7166 64.7375 63.7127 64.7554 63.7052C64.7734 63.6977 64.7896 63.6866 64.8032 63.6727C65.0456 63.5265 65.2963 63.3844 65.547 63.2549C65.6348 63.2006 65.6306 63.1588 65.5679 63.1003C65.3506 62.8997 65.1208 62.7075 64.9244 62.4944L65.8771 61.947C66.1069 62.135 66.295 62.3314 66.5248 62.532C66.5385 62.5491 66.5556 62.5632 66.5749 62.5736C66.5943 62.584 66.6155 62.5903 66.6373 62.5922C66.6592 62.5942 66.6812 62.5917 66.7021 62.5849C66.7229 62.5782 66.7422 62.5673 66.7588 62.5529C66.997 62.4108 67.2393 62.2687 67.4858 62.135C67.5861 62.0765 67.5903 62.0348 67.5151 61.9637C67.2936 61.7715 67.0972 61.5709 66.8632 61.3704C66.5916 61.5459 66.3033 61.7047 66.0234 61.8718H66.0108ZM64.9035 62.5069C64.5943 62.6866 64.3018 62.8579 64.0051 63.0209C63.9635 63.0374 63.9172 63.0374 63.8756 63.0209L63.1862 62.3941C63.4996 62.2144 63.7795 62.0473 64.072 61.8885C64.1193 61.8716 64.171 61.8716 64.2183 61.8885L64.9035 62.5069ZM63.4912 59.9497C63.2906 60.0583 63.0984 60.1711 62.9062 60.2881C62.6221 60.4511 62.6263 60.4093 62.8394 60.6099C63.0525 60.8104 63.1444 60.894 63.3032 61.0277C63.3742 61.0904 63.37 61.1364 63.2781 61.1907C63.0316 61.3286 62.7892 61.4665 62.551 61.6085C62.5214 61.6374 62.4817 61.6535 62.4403 61.6535C62.3989 61.6535 62.3592 61.6374 62.3296 61.6085L61.6736 60.9985C61.4604 60.8063 61.2557 60.6141 61.0426 60.426C60.959 60.3508 60.9507 60.3007 61.0677 60.2338C61.6248 59.9163 62.1819 59.5959 62.7391 59.2728C62.7715 59.2428 62.814 59.2262 62.8582 59.2262C62.9023 59.2262 62.9448 59.2428 62.9772 59.2728C63.1527 59.4441 63.3366 59.6154 63.5246 59.7784C63.6124 59.8494 63.5998 59.8954 63.5037 59.9497H63.4912ZM73.9124 47.1844L80.5394 43.3569L75.45 38.6686C75.2954 38.5266 75.2954 38.5266 75.0949 38.6394L68.6683 42.3499C68.4803 42.4585 68.4803 42.4585 68.6224 42.5922L73.5948 47.1593C73.7369 47.2805 73.7369 47.2805 73.9249 47.1844H73.9124ZM70.3565 42.4878C71.8649 41.6228 73.3775 40.7495 74.8818 39.8762C74.9047 39.856 74.9316 39.8406 74.9607 39.8311C74.9898 39.8216 75.0205 39.8181 75.051 39.8209C75.0815 39.8236 75.1111 39.8325 75.138 39.847C75.165 39.8616 75.1887 39.8815 75.2077 39.9055C75.7801 40.4445 76.3651 40.9752 76.9459 41.51C77.5267 42.0448 78.1034 42.5755 78.6884 43.1062C78.797 43.2065 78.7803 43.2566 78.6424 43.3318L74.1171 45.9476C73.9917 46.0186 73.9249 46.0228 73.8204 45.9267C72.6532 44.8514 71.4846 43.7789 70.3147 42.7092C70.2269 42.6131 70.2269 42.563 70.369 42.4878H70.3565ZM56.3836 57.3089L62.8394 53.5817C63.0232 53.473 63.0232 53.473 62.8811 53.3393L57.9087 48.7722C57.7667 48.6385 57.7667 48.6385 57.5828 48.7471C55.3807 50.0258 53.1578 51.2877 50.9683 52.5746C52.6397 54.1583 54.3821 55.7127 56.0744 57.288C56.0928 57.3104 56.1157 57.3288 56.1415 57.342C56.1673 57.3553 56.1955 57.3631 56.2245 57.3651C56.2534 57.367 56.2825 57.3631 56.3098 57.3534C56.3372 57.3437 56.3623 57.3286 56.3836 57.3089V57.3089ZM52.7901 52.8128C52.6982 52.7292 52.7107 52.6791 52.8277 52.6123C54.3514 51.7348 55.8752 50.8559 57.399 49.9756C57.4182 49.9588 57.4406 49.9461 57.4648 49.9382C57.4891 49.9303 57.5147 49.9275 57.5401 49.9298C57.5656 49.9322 57.5902 49.9397 57.6126 49.9518C57.6351 49.964 57.6548 49.9807 57.6706 50.0007C58.2555 50.5481 58.8489 51.0913 59.4422 51.6345C60.0356 52.1777 60.5997 52.7 61.1847 53.2307C61.2849 53.3226 61.2724 53.3686 61.1471 53.4396C59.6261 54.3115 58.1079 55.1876 56.5925 56.0679C56.4755 56.1347 56.4087 56.1389 56.3167 56.0679C55.1468 54.9787 53.9712 53.895 52.7901 52.817V52.8128ZM71.1169 61.1698L64.4857 65.0015C66.1571 66.5851 67.9037 68.1395 69.6001 69.719C69.7046 69.8151 69.7715 69.8235 69.9094 69.7441C72.1184 68.4599 74.3316 67.1799 76.549 65.904C74.8414 64.3329 73.1338 62.7618 71.4261 61.1907C71.3217 61.0988 71.2548 61.0946 71.1169 61.174V61.1698ZM74.6645 65.8706C73.1491 66.7425 71.6365 67.6172 70.1266 68.4947C69.9929 68.5699 69.9219 68.5615 69.8258 68.4696C68.6642 67.3999 67.4984 66.3261 66.3326 65.2605C66.2281 65.1644 66.2281 65.1143 66.3702 65.0307C67.1348 64.6129 67.8953 64.1532 68.6558 63.7145C69.4163 63.2758 70.1601 62.8496 70.908 62.4108C71.0376 62.3356 71.1002 62.344 71.1963 62.4108C72.3621 63.493 73.5321 64.5669 74.7104 65.645C74.8233 65.762 74.7857 65.8079 74.6645 65.8748V65.8706ZM82.0395 44.7358L81.0785 45.2915L80.4266 44.6898C80.397 44.661 80.3572 44.6448 80.3159 44.6448C80.2745 44.6448 80.2348 44.661 80.2052 44.6898C79.967 44.8319 79.7246 44.974 79.4781 45.1077C79.382 45.162 79.3862 45.2038 79.453 45.2665C79.6452 45.4378 79.8333 45.6091 80.0171 45.7846C80.084 45.8515 80.1425 45.8515 80.2344 45.7846C80.4684 45.6467 80.7149 45.513 80.9447 45.3668C80.9618 45.3509 80.982 45.3388 81.004 45.3312C81.0261 45.3236 81.0494 45.3207 81.0726 45.3226C81.0959 45.3246 81.1184 45.3314 81.1388 45.3426C81.1593 45.3538 81.1771 45.3691 81.1913 45.3876C81.3626 45.5548 81.5423 45.7219 81.7303 45.8849C81.8181 45.9601 81.7972 46.0019 81.6927 46.0604C81.0826 46.4072 80.4977 46.7498 79.8918 47.1008C80.1299 47.3223 80.3598 47.5187 80.5979 47.7443C80.6504 47.7642 80.7084 47.7642 80.7609 47.7443C80.9865 47.6231 81.208 47.4894 81.4336 47.3599C81.6593 47.2304 81.6175 47.2554 81.7637 47.3891L83.0173 48.534C83.0333 48.5506 83.0524 48.5638 83.0736 48.5728C83.0948 48.5817 83.1175 48.5864 83.1405 48.5864C83.1636 48.5864 83.1863 48.5817 83.2075 48.5728C83.2287 48.5638 83.2478 48.5506 83.2638 48.534C83.4895 48.3962 83.7234 48.2708 83.9449 48.1371C84.0535 48.0702 84.1246 48.0702 84.2081 48.1371C84.3669 48.2917 84.5299 48.4463 84.7054 48.5925C84.8809 48.7388 84.8224 48.743 84.672 48.8265C84.0661 49.1566 83.5062 49.5118 82.8961 49.8377C82.4365 49.4199 81.9768 49.002 81.5214 48.5842C81.5053 48.5644 81.4854 48.5482 81.4628 48.5364C81.4402 48.5246 81.4155 48.5175 81.3901 48.5155C81.3647 48.5136 81.3391 48.5168 81.315 48.525C81.2909 48.5332 81.2687 48.5462 81.2498 48.5633C81.0283 48.7012 80.7985 48.8349 80.5645 48.9602C80.4517 49.0229 80.4392 49.0689 80.5269 49.1483C81.0074 49.5661 81.4378 50.0049 81.9309 50.4018C82.2484 50.2096 82.5702 50.0425 82.9045 49.867C83.1677 50.0884 83.4101 50.2848 83.6608 50.5355C83.9407 50.3768 84.2082 50.2347 84.4505 50.0759C84.5968 49.984 84.6761 50.0007 84.7764 50.1052C84.8767 50.2096 85.1191 50.4227 85.2904 50.5815C85.3177 50.6083 85.3545 50.6233 85.3928 50.6233C85.431 50.6233 85.4678 50.6083 85.4951 50.5815L86.2389 50.1637C86.3267 50.1135 86.3308 50.0717 86.264 50.0132C86.0885 49.8586 85.9213 49.6957 85.7458 49.5369C85.5703 49.3781 85.6038 49.4073 85.7918 49.2987L86.5606 48.8558C85.8795 48.1663 85.1107 47.5228 84.4045 46.8501C84.3335 46.7833 84.2792 46.7916 84.1956 46.8501C83.9616 46.9922 83.7193 47.1259 83.4853 47.268C83.4498 47.2977 83.4039 47.3123 83.3577 47.3083C83.3115 47.3044 83.2688 47.2824 83.2387 47.2471C83.0633 47.0758 82.8836 46.9128 82.6955 46.7498C82.6161 46.6788 82.6287 46.6328 82.729 46.5785C82.9546 46.4532 83.1719 46.3153 83.4017 46.1941C83.5312 46.1231 83.5563 46.0729 83.4477 45.9768C82.9588 45.6091 82.5284 45.1536 82.0395 44.74V44.7358ZM70.2269 57.2002L69.6879 56.6946C69.4748 56.4982 69.4748 56.4983 69.7548 56.3353L70.4358 55.9425L68.94 54.5678L68.0123 55.1068C68.0123 55.1068 68.0123 55.1361 67.9831 55.1528C68.0028 55.1591 68.0213 55.169 68.0374 55.182L69.3954 56.4356C69.4623 56.4982 69.4372 56.5317 69.362 56.5735C69.1154 56.7155 68.8647 56.8576 68.6224 56.9913C68.5901 57.0175 68.5488 57.03 68.5074 57.0261C68.466 57.0222 68.4277 57.0022 68.4009 56.9704C68.2213 56.7991 68.0332 56.6361 67.8535 56.4648C67.8402 56.4478 67.8235 56.4338 67.8045 56.4235C67.7855 56.4132 67.7646 56.4068 67.7431 56.4049C67.7216 56.4029 67.6999 56.4054 67.6794 56.4121C67.6589 56.4188 67.6399 56.4296 67.6237 56.4439C67.0666 56.7698 66.5095 57.0944 65.9523 57.4175C65.8562 57.4718 65.8353 57.5136 65.9189 57.5847C66.1069 57.7518 66.2908 57.9189 66.4663 58.0903C66.4812 58.1065 66.4992 58.1194 66.5194 58.1283C66.5395 58.1371 66.5613 58.1417 66.5833 58.1417C66.6053 58.1417 66.627 58.1371 66.6472 58.1283C66.6673 58.1194 66.6854 58.1065 66.7003 58.0903C66.9343 57.9524 67.1766 57.8186 67.4106 57.6724C67.4272 57.658 67.4465 57.6471 67.4673 57.6403C67.4882 57.6336 67.5102 57.6311 67.5321 57.633C67.5539 57.635 67.5752 57.6413 67.5945 57.6517C67.6138 57.662 67.6309 57.6762 67.6446 57.6933L68.3006 58.2992C68.9232 57.9315 69.5793 57.5679 70.2269 57.2002ZM91.7503 54.8854C91.9885 54.7558 92.2141 54.6138 92.4523 54.4675C92.5442 54.4132 92.5526 54.3714 92.4774 54.3087L91.9049 53.7822C91.8792 53.7572 91.8447 53.7432 91.8088 53.7432C91.7729 53.7432 91.7385 53.7572 91.7127 53.7822C91.4662 53.9327 91.2113 54.0789 90.9564 54.221C90.8645 54.2711 90.8812 54.3129 90.9564 54.3714C91.1403 54.5385 91.3199 54.7098 91.508 54.877C91.5957 54.948 91.579 54.994 91.4746 55.0525C91.2364 55.1862 91.0107 55.3241 90.7726 55.4703C90.6765 55.5247 90.6556 55.5706 90.7391 55.6417C91.157 56.0386 91.6083 56.4356 92.0345 56.8367C92.0504 56.8533 92.0696 56.8664 92.0908 56.8754C92.112 56.8844 92.1347 56.889 92.1577 56.889C92.1807 56.889 92.2035 56.8844 92.2247 56.8754C92.2459 56.8664 92.265 56.8533 92.281 56.8367L93.1167 56.3562L93.9733 55.8631C94.0569 55.8172 94.0819 55.7795 94.0067 55.7169L93.4343 55.1904C93.3632 55.1193 93.3047 55.1235 93.217 55.1904L92.5025 55.6082C92.4873 55.6239 92.4691 55.6364 92.449 55.6449C92.4289 55.6534 92.4073 55.6578 92.3855 55.6578C92.3636 55.6578 92.342 55.6534 92.3219 55.6449C92.3018 55.6364 92.2837 55.6239 92.2685 55.6082C92.0971 55.4411 91.9217 55.2781 91.7378 55.1193C91.6292 55.0024 91.6291 54.9522 91.7545 54.8854H91.7503ZM66.5499 53.7989C66.5248 53.7781 66.4914 53.7613 66.4537 53.7363L65.5888 54.2335C65.4969 54.2878 65.5387 54.3296 65.5888 54.3756L66.8967 55.579C66.9802 55.6625 67.0471 55.6542 67.1432 55.579C67.4089 55.407 67.6884 55.2575 67.9789 55.1319C67.9604 55.1 67.9379 55.0705 67.912 55.0441L66.5499 53.7989ZM73.3357 58.7755L71.5181 59.816C71.7312 60.0124 71.9359 60.2088 72.1574 60.4093C72.2368 60.4887 72.2995 60.4845 72.4039 60.4093L74.2007 59.3647C73.9834 59.1641 73.7619 58.9468 73.553 58.7588C73.5224 58.7318 73.4825 58.718 73.4418 58.7204C73.4011 58.7227 73.363 58.741 73.3357 58.7713V58.7755ZM65.1751 55.6082L64.4063 56.0553C64.3353 56.0971 64.3185 56.1305 64.377 56.1849L64.9829 56.7406C65.0091 56.7647 65.0434 56.778 65.079 56.778C65.1146 56.778 65.1489 56.7647 65.1751 56.7406L65.5595 56.515C65.6849 56.4439 65.8144 56.3771 65.9273 56.3019C65.9607 56.2768 65.9774 56.2016 65.9523 56.1765C65.7601 55.9885 65.5554 55.8046 65.3548 55.6166C65.3323 55.5916 65.301 55.5763 65.2675 55.574C65.234 55.5716 65.2009 55.5824 65.1751 55.6041V55.6082ZM57.8335 57.6055C57.5703 57.7476 57.3154 57.8939 57.0647 58.0485C57.0313 58.0694 57.0104 58.1404 57.0312 58.1613C57.2485 58.3702 57.4742 58.5791 57.7123 58.7964C58.0257 58.6167 58.3141 58.4496 58.5982 58.2783C58.6101 58.2635 58.6165 58.245 58.6165 58.2261C58.6165 58.2071 58.6101 58.1886 58.5982 58.1738C58.4018 57.9858 58.2012 57.7978 57.9923 57.6181C57.9434 57.5926 57.8866 57.5866 57.8335 57.6014V57.6055ZM65.6264 52.9465C65.6382 52.9617 65.6529 52.9744 65.6698 52.9838C65.6866 52.9931 65.7051 52.9989 65.7243 53.0009C65.7434 53.0028 65.7628 53.0009 65.7812 52.9951C65.7995 52.9894 65.8165 52.9799 65.8312 52.9674L66.5833 52.5496C66.6627 52.5036 66.6752 52.466 66.6125 52.4117C66.3827 52.2111 66.1612 51.9938 65.9398 51.8016L64.9704 52.3615C65.2127 52.5579 65.4133 52.7543 65.6306 52.9591L65.6264 52.9465ZM63.6625 54.2001C63.416 54.3463 63.1653 54.4926 62.9104 54.6179C62.8268 54.6639 62.8268 54.7057 62.8853 54.76C63.0859 54.9397 63.3032 55.1193 63.4787 55.3032C63.5028 55.3264 63.535 55.3394 63.5685 55.3394C63.602 55.3394 63.6342 55.3264 63.6583 55.3032L64.4272 54.8603C64.5024 54.8185 64.5107 54.7851 64.4522 54.7307C64.3937 54.6764 64.2517 54.5511 64.1514 54.4591C64.0511 54.3672 63.9508 54.2795 63.8589 54.1875C63.8273 54.1671 63.7889 54.16 63.7521 54.1678C63.7152 54.1756 63.683 54.1978 63.6625 54.2293V54.2001ZM66.1362 60.6851L66.8841 61.3704L67.8494 60.8105L67.1056 60.1252L66.1362 60.6851ZM61.8532 50.7779C61.7738 50.8239 61.7697 50.8615 61.8323 50.9158C62.0245 51.0913 62.2168 51.2626 62.4006 51.4423C62.48 51.5175 62.5427 51.5049 62.6346 51.4423C62.9104 51.2793 63.1903 51.1205 63.4703 50.9617L62.7056 50.2932L61.8532 50.7779ZM63.3826 52.1443C63.2823 52.1986 63.2697 52.2404 63.3491 52.3114C63.5372 52.4785 63.721 52.6457 63.9007 52.817C63.9759 52.8922 64.0344 52.8922 64.1305 52.817L64.9662 52.3323L64.2183 51.6428L63.3826 52.1443ZM77.3011 46.3487L76.5448 46.7665C76.4654 46.8083 76.4529 46.8459 76.5197 46.9044C76.7203 47.0841 76.9125 47.268 77.1173 47.4476C77.137 47.4615 77.1596 47.471 77.1834 47.4753C77.2073 47.4796 77.2317 47.4788 77.2551 47.4727C77.556 47.3097 77.8485 47.1384 78.1577 46.9588L77.4808 46.332C77.4181 46.3069 77.3638 46.3194 77.2969 46.3571L77.3011 46.3487ZM73.8371 61.9512C74.0461 62.1392 74.255 62.3314 74.4597 62.5153C74.48 62.5246 74.5021 62.5295 74.5245 62.5295C74.5469 62.5295 74.569 62.5246 74.5893 62.5153C74.8859 62.3523 75.1784 62.181 75.4793 62.0055L74.723 61.3119L73.8873 61.8008C73.8246 61.8593 73.7578 61.9052 73.833 61.9595L73.8371 61.9512ZM82.8836 54.3839C82.7499 54.4508 82.6245 54.5302 82.495 54.6012L82.1106 54.8227C82.0437 54.8645 82.0144 54.8979 82.0771 54.9522C82.2819 55.1361 82.495 55.3241 82.6872 55.5079C82.7381 55.5288 82.7951 55.5288 82.846 55.5079C83.1092 55.3659 83.3725 55.2113 83.6273 55.0567C83.6438 55.0435 83.6549 55.0249 83.6588 55.0041C83.6626 54.9834 83.6589 54.962 83.6482 54.9438C83.4518 54.7516 83.2513 54.5678 83.0424 54.3839C82.9912 54.3647 82.9348 54.3647 82.8836 54.3839ZM71.6017 58.6585C71.7186 58.5917 71.7395 58.5499 71.6434 58.4621C71.422 58.2741 71.2256 58.0777 71.0041 57.8855L71.9694 57.3214L71.2256 56.6403L70.2269 57.2002L70.9707 57.8897C70.6907 58.0485 70.415 58.2114 70.135 58.366C70.0264 58.4287 70.0264 58.4705 70.1057 58.5457C70.3272 58.7379 70.5236 58.9385 70.7534 59.1391L67.8285 60.8105C68.0458 61.0152 68.2672 61.2283 68.4803 61.4205C68.5514 61.4874 68.6098 61.4832 68.6976 61.4205L71.4847 59.8076L70.7409 59.1223C71.0376 58.9803 71.3092 58.8173 71.5849 58.6627L71.6017 58.6585ZM74.3678 44.6898L77.1131 43.102C76.432 42.4334 75.7007 41.8025 75.0029 41.1423C74.8985 41.042 74.8274 41.042 74.6895 41.1172C73.7828 41.6604 72.8468 42.166 71.9485 42.7176C72.6588 43.3694 73.3692 44.0171 74.0711 44.6731C74.1547 44.7734 74.2216 44.7734 74.3511 44.694L74.3678 44.6898ZM56.5382 54.8018C56.5726 54.836 56.6192 54.8552 56.6677 54.8552C56.7163 54.8552 56.7628 54.836 56.7973 54.8018C57.2151 54.5427 57.6831 54.292 58.126 54.0329C58.5689 53.7739 58.9868 53.5315 59.4255 53.285C59.5383 53.2223 59.5676 53.1805 59.4673 53.0886C58.7862 52.4702 58.1051 51.8351 57.4282 51.2166C57.4137 51.1993 57.3959 51.185 57.3759 51.1745C57.3558 51.164 57.3339 51.1577 57.3114 51.1557C57.2888 51.1538 57.2662 51.1563 57.2446 51.1632C57.2231 51.17 57.2031 51.1811 57.1859 51.1957C56.3 51.7097 55.4183 52.2237 54.5283 52.7293C54.4197 52.7919 54.4239 52.8379 54.5033 52.9089C55.1844 53.5482 55.8655 54.1834 56.5382 54.8018ZM70.6824 63.6644C69.7673 64.1992 68.8522 64.7215 67.9329 65.2522C68.6099 65.9207 69.3453 66.5517 70.0222 67.2119C70.0403 67.2352 70.0632 67.2545 70.0892 67.2686C70.1152 67.2826 70.1439 67.2911 70.1734 67.2934C70.2028 67.2958 70.2325 67.292 70.2604 67.2823C70.2883 67.2725 70.3139 67.2571 70.3356 67.237C71.2465 66.698 72.1783 66.1882 73.0808 65.6408C72.3705 64.9889 71.6643 64.3413 70.9623 63.6853C70.8788 63.6017 70.8161 63.5766 70.6824 63.6727V63.6644Z" fill="#263238"/>
<path d="M75.8061 35.8102L97.7682 56.0007L69.1748 72.5099L47.2127 52.3194L75.8061 35.8102ZM75.9022 34.9536L46.0469 52.1899L69.0787 73.3665L98.934 56.1302L75.9022 34.9536V34.9536Z" fill="#BF9219"/>
<path d="M30.1851 30.0478L29.1363 28.5728C29.126 28.5558 29.1205 28.5362 29.1205 28.5163C29.1205 28.4965 29.126 28.4769 29.1363 28.4599C29.1518 28.4247 29.1782 28.3955 29.2116 28.3764L29.9094 27.9585C29.9416 27.938 29.98 27.9291 30.018 27.9334C30.0545 27.9355 30.0895 27.9486 30.1183 27.971L30.1475 28.0045L32.0571 30.7915C32.0732 30.8127 32.0836 30.8377 32.0873 30.864C32.091 30.8904 32.0878 30.9172 32.078 30.942C32.0677 30.974 32.0509 31.0035 32.0286 31.0287C32.0063 31.0539 31.979 31.0742 31.9485 31.0882L31.5055 31.3473C31.4382 31.3856 31.3615 31.4044 31.2841 31.4016C31.2149 31.3991 31.1469 31.3835 31.0835 31.3556L29.7506 30.733L30.2812 31.8194C30.2985 31.8681 30.2985 31.9212 30.2812 31.9699C30.2732 32.0017 30.2581 32.0313 30.2371 32.0566C30.2162 32.0819 30.1899 32.1022 30.1601 32.1161L29.7172 32.371C29.6472 32.4108 29.5678 32.431 29.4873 32.4295C29.4196 32.4338 29.3522 32.4162 29.2951 32.3794L26.0067 30.3904L25.969 30.3612C25.9575 30.3517 25.9488 30.3394 25.9436 30.3254C25.9385 30.3115 25.9372 30.2964 25.9398 30.2818C25.9427 30.2665 25.9492 30.2522 25.9586 30.2398C25.968 30.2275 25.9802 30.2176 25.9941 30.2107L26.6961 29.7929C26.7354 29.7738 26.7779 29.7625 26.8215 29.7594C26.8748 29.7564 26.9277 29.7711 26.9719 29.8012L28.7018 30.8835L28.2839 30.0143C28.269 29.9859 28.2604 29.9545 28.2589 29.9224C28.2589 29.8764 28.2839 29.8388 28.3466 29.8012L28.848 29.5129C28.8739 29.4949 28.9033 29.4826 28.9343 29.4768C28.9652 29.471 28.9971 29.472 29.0277 29.4795C29.0691 29.4884 29.1097 29.501 29.1489 29.5171L30.1851 30.0478Z" fill="#455A64"/>
<path d="M35.4222 28.1057C35.4586 28.0785 35.5022 28.0625 35.5475 28.0597C35.5917 28.0621 35.6341 28.0781 35.6687 28.1057L36.0866 28.5235C36.1004 28.536 36.111 28.5517 36.1175 28.5691C36.1241 28.5865 36.1263 28.6053 36.1242 28.6238C36.119 28.6425 36.11 28.66 36.0977 28.675C36.0855 28.6901 36.0703 28.7026 36.0531 28.7116L33.546 30.1698C33.5052 30.1922 33.4588 30.2024 33.4123 30.1991C33.3672 30.1975 33.3242 30.1797 33.2912 30.149L30.6336 27.7087C30.6199 27.6971 30.6092 27.6822 30.6027 27.6654C30.5961 27.6486 30.5938 27.6305 30.596 27.6126C30.5999 27.5933 30.6083 27.5752 30.6207 27.56C30.6331 27.5447 30.649 27.5326 30.6671 27.5249L33.1491 26.0875C33.1906 26.067 33.2365 26.0569 33.2828 26.0582C33.3279 26.0598 33.3709 26.0776 33.404 26.1084L33.8427 26.5262C33.8567 26.5375 33.8673 26.5525 33.8732 26.5695C33.8791 26.5865 33.8801 26.6048 33.8761 26.6223C33.8716 26.6407 33.8634 26.6581 33.8519 26.6732C33.8404 26.6883 33.8259 26.7008 33.8093 26.7101L32.1755 27.6419L32.6184 28.0597L34.1436 27.178C34.1842 27.1552 34.2308 27.145 34.2773 27.1488C34.3224 27.1504 34.3654 27.1682 34.3985 27.1989L34.8163 27.6168C34.8304 27.6282 34.8412 27.643 34.8478 27.6599C34.8544 27.6767 34.8565 27.695 34.8539 27.7129C34.8495 27.7325 34.8408 27.7508 34.8285 27.7667C34.8163 27.7826 34.8007 27.7956 34.7829 27.8048L33.2619 28.6823L33.7215 29.1002L35.4222 28.1057Z" fill="#455A64"/>
<path d="M38.7889 26.1624C38.8288 26.1376 38.876 26.1272 38.9226 26.1331C38.9671 26.1336 39.0101 26.1499 39.0438 26.1791L39.4616 26.5969C39.476 26.608 39.4871 26.6228 39.4937 26.6398C39.5003 26.6567 39.5022 26.6751 39.4992 26.693C39.4952 26.7117 39.4872 26.7292 39.4756 26.7444C39.464 26.7595 39.4493 26.772 39.4324 26.7808L36.9629 28.2056C36.9249 28.2303 36.8807 28.2434 36.8354 28.2434C36.7902 28.2434 36.7459 28.2303 36.708 28.2056L34.0505 25.7612C34.0365 25.7499 34.0259 25.7349 34.02 25.718C34.0141 25.701 34.0131 25.6827 34.017 25.6651C34.0201 25.6461 34.0278 25.6282 34.0395 25.6129C34.0511 25.5976 34.0664 25.5854 34.0839 25.5774L34.7817 25.1595C34.8216 25.1347 34.8688 25.1244 34.9154 25.1303C34.96 25.1307 35.0029 25.147 35.0366 25.1762L37.1467 27.1151L38.7889 26.1624Z" fill="#455A64"/>
<path d="M39.0683 24.2989L39.2104 24.441L39.4026 24.6207L39.6032 24.8004L39.7578 24.9341C39.8294 24.9879 39.9064 25.0341 39.9876 25.072C40.0732 25.1122 40.165 25.1377 40.2592 25.1472C40.3596 25.1569 40.4608 25.1527 40.56 25.1346C40.6808 25.105 40.7964 25.0571 40.9027 24.9926C41.0033 24.9425 41.0939 24.8746 41.1701 24.792C41.2178 24.7375 41.2559 24.6754 41.2829 24.6082C41.2973 24.5548 41.2973 24.4986 41.2829 24.4452C41.2733 24.3989 41.2579 24.3539 41.2369 24.3115C41.2148 24.275 41.2032 24.233 41.2035 24.1903C41.2035 24.1611 41.2411 24.1318 41.2996 24.0942L41.9974 23.6764C42.031 23.6592 42.0683 23.6506 42.1061 23.6513C42.1434 23.653 42.1789 23.6678 42.2064 23.6931C42.3338 23.8108 42.4239 23.9633 42.4654 24.1318C42.5064 24.2967 42.4962 24.4701 42.4362 24.629C42.3679 24.8153 42.2627 24.9858 42.127 25.1305C41.9625 25.3116 41.769 25.4641 41.5545 25.5817C41.313 25.7223 41.0527 25.8278 40.7815 25.8951C40.5343 25.9565 40.2796 25.9818 40.0252 25.9703C39.7919 25.9641 39.5614 25.9175 39.3441 25.8325C39.1405 25.7596 38.9511 25.6522 38.7842 25.5149C38.6644 25.4146 38.539 25.306 38.4081 25.189L38.0488 24.8422C37.9147 24.7107 37.8119 24.5507 37.7479 24.3742C37.6904 24.2075 37.6803 24.0281 37.7186 23.856C37.7693 23.6643 37.8637 23.487 37.9944 23.3379C38.1638 23.145 38.3662 22.9837 38.592 22.8615C38.8218 22.7264 39.0693 22.6237 39.3274 22.5565C39.5688 22.4922 39.8171 22.4571 40.067 22.4521C40.2946 22.4477 40.5216 22.4787 40.7397 22.544C40.9338 22.5993 41.1134 22.6962 41.2662 22.8281C41.2781 22.8372 41.2871 22.8495 41.2923 22.8636C41.2974 22.8776 41.2985 22.8929 41.2954 22.9075C41.2932 22.923 41.287 22.9376 41.2775 22.9501C41.268 22.9625 41.2555 22.9723 41.2411 22.9785L40.5433 23.3964C40.4987 23.426 40.4464 23.442 40.3929 23.4424C40.3405 23.4335 40.2897 23.4166 40.2425 23.3922L40.0753 23.3295C40.0032 23.309 39.9288 23.2978 39.8539 23.2961C39.7621 23.2977 39.671 23.3103 39.5823 23.3337C39.4667 23.367 39.3558 23.4147 39.2522 23.4758C39.1514 23.5308 39.0609 23.6029 38.9847 23.6889C38.9342 23.75 38.901 23.8236 38.8886 23.902C38.8817 23.9734 38.8932 24.0453 38.9221 24.1109C38.9626 24.1795 39.0118 24.2427 39.0683 24.2989V24.2989Z" fill="#455A64"/>
<path d="M41.8135 22.6985C41.6799 22.565 41.5772 22.4038 41.5127 22.2263C41.451 22.0619 41.4408 21.8827 41.4834 21.7124C41.5299 21.5212 41.6233 21.3446 41.755 21.1984C41.9264 21.002 42.1316 20.8378 42.3609 20.7137C42.6046 20.5706 42.8678 20.4637 43.1423 20.3961C43.3896 20.3357 43.6441 20.309 43.8986 20.3167C44.1299 20.3279 44.3582 20.3744 44.5755 20.4546C44.7811 20.5296 44.972 20.6399 45.1396 20.7806C45.265 20.885 45.3903 20.9937 45.5198 21.1106C45.6494 21.2276 45.7664 21.3446 45.8708 21.4533C46.0056 21.5866 46.1097 21.7478 46.1759 21.9255C46.2355 22.0903 46.2457 22.2689 46.2051 22.4394C46.158 22.6325 46.0632 22.8106 45.9293 22.9575C45.7556 23.1504 45.5508 23.3129 45.3234 23.4381C45.0794 23.5816 44.8164 23.6899 44.5421 23.7598C44.2963 23.8212 44.043 23.8465 43.7899 23.835C43.5568 23.8245 43.3268 23.7765 43.1088 23.693C42.9052 23.6158 42.7149 23.5072 42.5447 23.3712L42.1729 23.0453C42.0392 22.9283 41.9222 22.8113 41.8135 22.6985ZM44.8638 22.0007L44.7134 21.8461L44.5337 21.6706L44.3457 21.5076L44.1744 21.3655C44.0986 21.3078 44.0158 21.2601 43.9278 21.2235C43.8393 21.1899 43.7464 21.1688 43.652 21.1608C43.5497 21.1528 43.4467 21.1613 43.347 21.1859C43.2324 21.2141 43.1225 21.2591 43.0211 21.3196C42.9253 21.3696 42.8402 21.4377 42.7704 21.5201C42.7177 21.5793 42.6816 21.6514 42.6659 21.7291C42.6543 21.8007 42.6615 21.8742 42.6868 21.9422C42.7183 22.0181 42.7637 22.0875 42.8205 22.1469C42.8659 22.2016 42.9147 22.2532 42.9668 22.3015L43.1465 22.4728L43.3345 22.64L43.51 22.782C43.6614 22.9015 43.8444 22.9741 44.0365 22.991C44.257 23.0062 44.4766 22.9506 44.6632 22.8322C44.8847 22.7027 45.0059 22.5689 45.0184 22.4143C45.023 22.338 45.0113 22.2616 44.9839 22.1903C44.9565 22.1189 44.9141 22.0543 44.8596 22.0007H44.8638Z" fill="#455A64"/>
<path d="M48.3993 20.5093C48.3513 20.5073 48.3037 20.5003 48.2572 20.4884L47.0789 20.1541L48.4411 21.4076C48.4551 21.4189 48.4656 21.4339 48.4715 21.4509C48.4774 21.4679 48.4785 21.4862 48.4745 21.5037C48.4714 21.5227 48.4637 21.5407 48.4521 21.556C48.4404 21.5713 48.4251 21.5835 48.4076 21.5915L47.7098 22.0093C47.6686 22.0303 47.6222 22.039 47.5761 22.0344C47.5539 22.0352 47.5317 22.0315 47.5109 22.0237C47.4901 22.0158 47.4711 22.0038 47.4549 21.9885L44.7974 19.5482C44.7834 19.536 44.773 19.5202 44.7671 19.5026C44.7612 19.485 44.7601 19.4661 44.764 19.4479C44.7682 19.4294 44.7764 19.412 44.7879 19.3968C44.7995 19.3817 44.8141 19.3692 44.8308 19.3602L45.4493 19.005C45.5098 18.9655 45.582 18.9478 45.654 18.9549C45.6984 18.949 45.7433 18.949 45.7877 18.9549L47.7934 19.5023L47.5176 17.9562C47.5117 17.923 47.5117 17.8891 47.5176 17.8559C47.5176 17.8058 47.5594 17.764 47.6304 17.7222L48.2488 17.367C48.2887 17.3422 48.336 17.3319 48.3826 17.3378C48.4271 17.3383 48.4701 17.3546 48.5037 17.3838L51.1613 19.824C51.1752 19.8362 51.1857 19.852 51.1916 19.8696C51.1975 19.8872 51.1985 19.9061 51.1947 19.9243C51.1904 19.9428 51.1823 19.9602 51.1707 19.9754C51.1592 19.9905 51.1446 20.003 51.1278 20.012L50.43 20.4299C50.3921 20.4545 50.3478 20.4676 50.3026 20.4676C50.2573 20.4676 50.2131 20.4545 50.1751 20.4299L48.8129 19.1763L48.9884 20.0914C48.9945 20.126 48.9945 20.1613 48.9884 20.1959C48.9884 20.2335 48.955 20.2669 48.9007 20.3003L48.5581 20.4967C48.5075 20.5162 48.4523 20.5205 48.3993 20.5093V20.5093Z" fill="#455A64"/>
<path d="M54.0362 17.3584C54.0769 17.3355 54.1234 17.3254 54.1699 17.3292C54.2148 17.3318 54.2575 17.3495 54.2911 17.3793L54.709 17.7763C54.7229 17.7885 54.7334 17.8042 54.7393 17.8219C54.7452 17.8395 54.7462 17.8584 54.7424 17.8765C54.7381 17.8951 54.73 17.9125 54.7184 17.9276C54.7069 17.9428 54.6923 17.9553 54.6755 17.9643L52.1684 19.4226C52.1278 19.4454 52.0812 19.4556 52.0347 19.4518C51.9899 19.4492 51.9472 19.4315 51.9135 19.4017L49.2602 16.9615C49.2458 16.9503 49.2347 16.9355 49.2281 16.9186C49.2215 16.9017 49.2196 16.8833 49.2226 16.8653C49.2266 16.8467 49.2347 16.8292 49.2462 16.814C49.2578 16.7988 49.2725 16.7864 49.2895 16.7776L51.7965 15.3402C51.8377 15.3188 51.8842 15.3101 51.9303 15.3151C51.9748 15.3156 52.0178 15.3319 52.0514 15.3611L52.4693 15.7789C52.4833 15.7903 52.4942 15.8052 52.5008 15.822C52.5074 15.8389 52.5095 15.8571 52.5069 15.875C52.5031 15.8943 52.4946 15.9124 52.4822 15.9277C52.4698 15.943 52.4539 15.955 52.4359 15.9628L50.7937 16.9113L51.2408 17.3292L52.766 16.4475C52.8066 16.4246 52.8532 16.4145 52.8997 16.4182C52.9445 16.4209 52.9872 16.4386 53.0208 16.4684L53.4387 16.8862C53.4527 16.8985 53.4632 16.9142 53.469 16.9318C53.4749 16.9495 53.476 16.9683 53.4721 16.9865C53.4679 17.0051 53.4597 17.0225 53.4482 17.0376C53.4366 17.0527 53.422 17.0652 53.4053 17.0743L51.8801 17.9518L52.3398 18.3696L54.0362 17.3584Z" fill="#455A64"/>
<path d="M36.5151 34.745C36.7345 34.6156 36.9707 34.5171 37.2171 34.4525C37.4252 34.3935 37.6402 34.3626 37.8564 34.3605C38.0315 34.3555 38.2064 34.3781 38.3745 34.4274C38.5028 34.4613 38.6233 34.5195 38.7297 34.5987C38.7461 34.6081 38.759 34.6225 38.7665 34.6399C38.774 34.6572 38.7758 34.6765 38.7715 34.6948C38.7666 34.7143 38.7573 34.7323 38.7442 34.7476C38.7312 34.7628 38.7147 34.7748 38.6963 34.7826L38.3244 34.9999C38.2747 35.0298 38.2191 35.0483 38.1614 35.0542C38.1102 35.0618 38.0581 35.0618 38.0068 35.0542C37.8697 35.0239 37.7284 35.0168 37.589 35.0333C37.2931 35.0843 37.0169 35.2159 36.7909 35.4135C36.7308 35.4671 36.6787 35.529 36.6363 35.5974C36.6052 35.6535 36.5907 35.7172 36.5945 35.7812C36.605 35.8426 36.6359 35.8985 36.6822 35.94C36.7395 35.9948 36.8101 36.0337 36.887 36.0528C36.978 36.0715 37.0718 36.0715 37.1628 36.0528C37.297 36.024 37.4295 35.9877 37.5597 35.9442L38.1364 35.7395C38.3571 35.656 38.5833 35.5876 38.8133 35.5347C38.9943 35.4942 39.1794 35.4746 39.3648 35.4762C39.5193 35.4787 39.672 35.5084 39.8161 35.564C39.9533 35.6186 40.0793 35.6979 40.188 35.7979C40.3016 35.8973 40.383 36.0282 40.422 36.174C40.4568 36.3132 40.4451 36.46 40.3886 36.5919C40.3201 36.7598 40.2161 36.911 40.0835 37.0348C39.912 37.2005 39.7178 37.3412 39.5069 37.4526C39.3085 37.568 39.0984 37.6618 38.8801 37.7326C38.671 37.7989 38.4552 37.8424 38.2366 37.8621C38.0395 37.8796 37.8408 37.8669 37.6475 37.8245C37.4745 37.7885 37.3118 37.7142 37.1711 37.6072C37.1552 37.5966 37.143 37.5811 37.1362 37.5631C37.1295 37.5451 37.1285 37.5255 37.1335 37.507C37.1453 37.4698 37.1707 37.4385 37.2046 37.4192L37.5764 37.2061C37.6268 37.1739 37.6841 37.1538 37.7436 37.1476C37.7933 37.1385 37.8443 37.1385 37.894 37.1476C37.9597 37.1678 38.0267 37.1831 38.0946 37.1936C38.1735 37.2063 38.2539 37.2063 38.3327 37.1936C38.4322 37.181 38.5302 37.1586 38.6252 37.1267C38.753 37.0814 38.8761 37.024 38.993 36.9554C39.0935 36.8967 39.1898 36.8311 39.2813 36.759C39.3584 36.7017 39.4261 36.6326 39.4818 36.5543C39.5246 36.4939 39.5505 36.4232 39.557 36.3495C39.5581 36.3131 39.5502 36.2769 39.5342 36.2442C39.5182 36.2115 39.4945 36.1831 39.4651 36.1615C39.4036 36.107 39.3257 36.0746 39.2437 36.0696C39.1336 36.0674 39.0237 36.0815 38.9177 36.1113C38.7647 36.1516 38.614 36.2004 38.4665 36.2576C38.291 36.3203 38.0862 36.3913 37.8522 36.4665C37.6619 36.532 37.468 36.5864 37.2714 36.6295C37.1078 36.6618 36.9408 36.6744 36.7742 36.6671C36.6304 36.6566 36.4892 36.6227 36.3563 36.5668C36.2164 36.5015 36.088 36.4141 35.9761 36.3077C35.8611 36.2096 35.7793 36.0782 35.7421 35.9317C35.708 35.793 35.7168 35.6474 35.7672 35.5138C35.8288 35.3578 35.9212 35.2157 36.0388 35.096C36.1807 34.9577 36.341 34.8396 36.5151 34.745Z" fill="#BF9219"/>
<path d="M42.9882 34.0307C42.975 34.0164 42.9657 33.9988 42.9613 33.9797C42.9569 33.9607 42.9575 33.9408 42.9631 33.9221C42.9772 33.8884 43.0023 33.8605 43.0342 33.8427L43.452 33.592C43.4927 33.5691 43.5392 33.559 43.5857 33.5627C43.6084 33.5617 43.631 33.5657 43.6519 33.5743C43.6728 33.583 43.6916 33.5962 43.7069 33.6129C43.8061 33.7206 43.8829 33.847 43.9325 33.9848C43.9767 34.1291 43.9767 34.2834 43.9325 34.4277C43.8841 34.6077 43.7939 34.7737 43.6693 34.9124C43.492 35.1105 43.2812 35.276 43.0467 35.4013C42.8182 35.5373 42.5702 35.6374 42.3113 35.698C42.0778 35.7557 41.8367 35.7768 41.5968 35.7606C41.3685 35.745 41.1441 35.6928 40.9324 35.606C40.7201 35.5216 40.5216 35.4061 40.3432 35.2634C40.2346 35.1715 40.1134 35.067 39.988 34.95C39.8627 34.833 39.7499 34.7285 39.6538 34.6283C39.514 34.4852 39.4033 34.3163 39.3278 34.131C39.2626 33.9709 39.2437 33.7957 39.2735 33.6254C39.3125 33.4428 39.3973 33.2731 39.5201 33.1324C39.6805 32.9503 39.8713 32.7976 40.0841 32.6811C40.332 32.5314 40.6011 32.4201 40.8822 32.351C41.1125 32.2906 41.3506 32.2652 41.5884 32.2758C41.7901 32.2803 41.9895 32.3199 42.1776 32.3928C42.3486 32.4533 42.5083 32.5423 42.6497 32.656C42.6659 32.6655 42.6783 32.6801 42.6852 32.6976C42.692 32.715 42.6927 32.7342 42.6873 32.7521C42.6826 32.771 42.6738 32.7887 42.6615 32.8039C42.6493 32.819 42.6338 32.8313 42.6163 32.8399L42.1985 33.0906C42.159 33.1129 42.1143 33.1244 42.0689 33.124C42.0199 33.1284 41.971 33.1151 41.931 33.0864C41.8581 33.0384 41.7776 33.0031 41.6929 32.9819C41.5962 32.9558 41.4963 32.9431 41.3962 32.9443C41.2746 32.9475 41.1539 32.9658 41.0368 32.9986C40.8908 33.0397 40.7505 33.0986 40.619 33.1741C40.499 33.238 40.3926 33.3246 40.3056 33.429C40.2421 33.5063 40.199 33.5982 40.1803 33.6964C40.1658 33.7901 40.1789 33.8859 40.2179 33.9722C40.26 34.0686 40.3195 34.1564 40.3934 34.2313C40.4895 34.3316 40.6023 34.4402 40.7276 34.5572C40.853 34.6742 40.9742 34.7787 41.0828 34.8664C41.1771 34.9447 41.2828 35.0081 41.3962 35.0545C41.5091 35.1027 41.629 35.1323 41.7514 35.1422C41.8816 35.1509 42.0125 35.1411 42.14 35.113C42.287 35.0811 42.428 35.0261 42.5578 34.95C42.6771 34.8849 42.7856 34.8017 42.8796 34.7035C42.9486 34.6344 43.0026 34.552 43.0383 34.4611C43.0666 34.3909 43.0753 34.3144 43.0634 34.2397C43.0547 34.1652 43.029 34.0937 42.9882 34.0307V34.0307Z" fill="#BF9219"/>
<path d="M44.0911 30.4494C44.1398 30.4191 44.1967 30.4045 44.254 30.4076C44.3169 30.4139 44.3779 30.4323 44.4337 30.462L48.3406 32.0958C48.3536 32.1013 48.3651 32.1099 48.374 32.1208C48.388 32.1321 48.3986 32.1471 48.4045 32.1641C48.4104 32.1811 48.4114 32.1994 48.4075 32.2169C48.4044 32.2359 48.3967 32.2539 48.385 32.2692C48.3734 32.2845 48.3581 32.2967 48.3406 32.3047L47.9562 32.5261C47.9018 32.5625 47.8377 32.5815 47.7723 32.5805C47.7294 32.5766 47.6872 32.5667 47.647 32.5512L46.9617 32.2629L45.2903 33.2365L45.516 33.788C45.5268 33.8192 45.5268 33.853 45.516 33.8841C45.516 33.9218 45.4742 33.9635 45.4031 34.0011L45.0187 34.2268C44.9776 34.2482 44.9311 34.2569 44.885 34.2519C44.8404 34.2514 44.7975 34.2351 44.7638 34.2059C44.7542 34.1984 44.7469 34.1882 44.7429 34.1766L43.4476 31.0344C43.4259 30.9903 43.4158 30.9414 43.4183 30.8923C43.4183 30.8547 43.4518 30.8213 43.5103 30.7879L44.0911 30.4494ZM46.1803 31.9411L44.4212 31.2015L45.0062 32.6181L46.1803 31.9411Z" fill="#BF9219"/>
<path d="M51.3917 30.5665C51.3387 30.5981 51.2778 30.614 51.2162 30.6124H51.0866L47.8859 29.8979L49.5782 31.4565C49.5923 31.4679 49.6031 31.4827 49.6097 31.4996C49.6163 31.5164 49.6184 31.5347 49.6158 31.5526C49.612 31.5719 49.6035 31.5899 49.5911 31.6052C49.5788 31.6205 49.5629 31.6326 49.5448 31.6403L49.1269 31.8911C49.087 31.9159 49.0398 31.9262 48.9932 31.9203C48.949 31.9179 48.9067 31.9019 48.872 31.8743L46.2145 29.4299C46.2005 29.4186 46.19 29.4036 46.184 29.3866C46.1781 29.3697 46.1771 29.3513 46.1811 29.3338C46.1842 29.3148 46.1919 29.2969 46.2035 29.2816C46.2152 29.2663 46.2305 29.2541 46.248 29.2461L46.6198 29.0288C46.6728 28.9972 46.7337 28.9812 46.7953 28.9828H46.9249L50.1298 29.6973L48.4333 28.1388C48.4198 28.1269 48.4094 28.112 48.4029 28.0953C48.3963 28.0786 48.3939 28.0605 48.3957 28.0427C48.4001 28.0231 48.4088 28.0047 48.4211 27.9888C48.4333 27.973 48.4489 27.96 48.4667 27.9507L48.8846 27.7042C48.9245 27.6794 48.9717 27.6691 49.0183 27.6749C49.0625 27.6773 49.1048 27.6934 49.1395 27.7209L51.797 30.1653C51.811 30.1766 51.8216 30.1916 51.8275 30.2086C51.8334 30.2256 51.8344 30.2439 51.8304 30.2614C51.8273 30.2804 51.8196 30.2984 51.808 30.3137C51.7963 30.329 51.7811 30.3412 51.7636 30.3492L51.3917 30.5665Z" fill="#BF9219"/>
<path d="M53.4254 25.059C53.4668 25.0381 53.5128 25.0281 53.5592 25.0297C53.6043 25.0313 53.6473 25.0491 53.6803 25.0799L53.9728 25.3473C53.9868 25.3586 53.9974 25.3736 54.0033 25.3905C54.0092 25.4075 54.0102 25.4258 54.0063 25.4434C54.0032 25.4624 53.9955 25.4803 53.9838 25.4956C53.9722 25.5109 53.9569 25.5231 53.9394 25.5311L52.9783 26.0869L55.2347 28.1761C55.2487 28.1874 55.2593 28.2024 55.2652 28.2194C55.2711 28.2364 55.2721 28.2547 55.2682 28.2722C55.2651 28.2912 55.2574 28.3092 55.2457 28.3245C55.2341 28.3398 55.2188 28.352 55.2013 28.36L54.7835 28.6107C54.7406 28.6315 54.6932 28.6416 54.6456 28.6399C54.6018 28.6381 54.5601 28.6202 54.5286 28.5898L52.2722 26.5005L51.3153 27.0563C51.2743 27.0782 51.228 27.0884 51.1816 27.0855C51.1363 27.0847 51.0931 27.0668 51.0604 27.0354L50.7679 26.768C50.7532 26.7572 50.7418 26.7424 50.7351 26.7254C50.7285 26.7084 50.7268 26.6898 50.7303 26.6719C50.7341 26.6526 50.7426 26.6345 50.755 26.6192C50.7674 26.6039 50.7833 26.5919 50.8013 26.5841L53.4254 25.059Z" fill="#BF9219"/>
<path d="M54.9764 25.7736C54.8416 25.6399 54.7326 25.4827 54.6546 25.3097C54.5842 25.1555 54.5623 24.9836 54.5919 24.8167C54.6281 24.6327 54.7116 24.4613 54.8343 24.3194C54.9997 24.1241 55.2012 23.9624 55.4276 23.8431C55.6637 23.7015 55.9202 23.5972 56.1881 23.5339C56.423 23.4759 56.6657 23.4562 56.9068 23.4754C57.1296 23.492 57.3483 23.5442 57.5545 23.63C57.7552 23.7135 57.9424 23.8261 58.1102 23.9643L58.2899 24.1189L58.4863 24.2944L58.6785 24.4782L58.8456 24.6412C58.9787 24.7753 59.0863 24.9324 59.1632 25.105C59.2336 25.2592 59.2555 25.4312 59.2259 25.5981C59.1907 25.7832 59.1054 25.9552 58.9793 26.0953C58.8116 26.2871 58.6106 26.447 58.386 26.5675C58.1466 26.7093 57.8875 26.8149 57.6172 26.8809C57.3834 26.9369 57.1424 26.9567 56.9026 26.9394C56.6806 26.9237 56.463 26.87 56.2592 26.7806C56.0616 26.6979 55.8771 26.5866 55.7118 26.4505L55.5279 26.2959L55.3315 26.1162L55.1393 25.9365L54.9764 25.7736ZM57.4082 24.3988C57.2109 24.229 56.9622 24.1304 56.7021 24.1189C56.4349 24.109 56.1706 24.1772 55.9416 24.3153C55.8384 24.3638 55.7462 24.433 55.6708 24.5185C55.5953 24.604 55.5382 24.7041 55.5028 24.8125C55.4865 24.9169 55.4975 25.0238 55.5348 25.1227C55.5722 25.2216 55.6346 25.3091 55.716 25.3766C55.8121 25.4769 55.9249 25.5855 56.0502 25.7025C56.1756 25.8195 56.2968 25.924 56.4096 26.0159C56.6088 26.182 56.8567 26.2788 57.1157 26.2917C57.3816 26.301 57.6443 26.2328 57.8721 26.0953C57.976 26.0472 58.069 25.9782 58.1452 25.8927C58.2214 25.8072 58.2792 25.7069 58.315 25.5981C58.3311 25.4946 58.3204 25.3888 58.2838 25.2908C58.2472 25.1927 58.186 25.1057 58.1061 25.0381L57.7676 24.7122C57.6381 24.5952 57.5211 24.4908 57.4082 24.3988Z" fill="#BF9219"/>
<path d="M42.7502 37.5987C43.24 37.3126 43.7599 37.0814 44.3004 36.9093C44.7806 36.7585 45.2805 36.6796 45.7838 36.6753C46.2547 36.6756 46.7218 36.7605 47.1627 36.926C47.6104 37.0936 48.0208 37.3477 48.3703 37.674C48.6979 37.9527 48.9507 38.3089 49.1057 38.7102C49.2206 39.0432 49.2206 39.4051 49.1057 39.7381C48.97 40.1189 48.7467 40.4624 48.4538 40.741C48.0803 41.1106 47.6586 41.4283 47.2003 41.6853L45.6292 42.592L47.5638 44.3679C47.5958 44.3952 47.6199 44.4304 47.6339 44.47C47.6478 44.5097 47.651 44.5523 47.6432 44.5935C47.635 44.6368 47.6167 44.6774 47.5899 44.7123C47.563 44.7471 47.5283 44.7752 47.4886 44.7941L45.8799 45.7259C45.7851 45.7765 45.6776 45.7982 45.5707 45.7886C45.4671 45.7883 45.3673 45.7496 45.2907 45.6799L39.1692 40.0557C39.1376 40.0291 39.1136 39.9946 39.0997 39.9557C39.0857 39.9168 39.0823 39.8749 39.0898 39.8342C39.0974 39.7903 39.1154 39.7487 39.1423 39.7131C39.1692 39.6775 39.2042 39.6488 39.2444 39.6295L42.7502 37.5987ZM44.1416 41.234L45.6542 40.3607C45.942 40.2189 46.1786 39.9911 46.3311 39.7089C46.4398 39.4707 46.3604 39.2284 46.0972 38.986C45.977 38.8699 45.8339 38.7802 45.677 38.7226C45.5202 38.6651 45.353 38.6409 45.1862 38.6517C44.8224 38.6822 44.4705 38.7966 44.1583 38.986L42.6499 39.8593L44.1416 41.234Z" fill="#BF9219"/>
<path d="M51.2742 32.681C51.4154 32.5896 51.5827 32.547 51.7505 32.5599C51.884 32.5675 52.0153 32.5971 52.1391 32.6476L60.7844 36.5879C60.8529 36.6139 60.9176 36.649 60.9766 36.6924C61.0025 36.7139 61.0223 36.7418 61.034 36.7733C61.0458 36.8048 61.049 36.8389 61.0435 36.8721C61.0365 36.9081 61.0212 36.9421 60.9987 36.9711C60.9762 37.0001 60.9471 37.0235 60.9139 37.0392L59.3679 37.9334C59.2444 38.0162 59.0988 38.0599 58.95 38.0587C58.8503 38.0573 58.752 38.0345 58.6617 37.9919L57.5335 37.4654L54.2534 39.3415L54.6963 40.2608C54.7312 40.3292 54.7401 40.4079 54.7214 40.4823C54.7214 40.57 54.6169 40.662 54.454 40.7581L52.9079 41.6481C52.8309 41.6929 52.7416 41.7119 52.6531 41.7024C52.57 41.6998 52.4904 41.6688 52.4274 41.6146C52.3869 41.5681 52.3556 41.5142 52.3355 41.4559L49.0428 34.4235C49.0049 34.3294 48.9948 34.2264 49.0136 34.1268C49.0316 34.0582 49.065 33.9947 49.1114 33.9411C49.1578 33.8875 49.2158 33.8453 49.281 33.8176L51.2742 32.681ZM53.4219 37.6367L55.4109 36.4876L52.1433 34.9708L53.4219 37.6367Z" fill="#BF9219"/>
<path d="M65.4977 34.0098C65.5293 34.0364 65.5533 34.0709 65.5672 34.1098C65.5812 34.1487 65.5846 34.1906 65.5771 34.2312C65.5695 34.2752 65.5515 34.3167 65.5246 34.3524C65.4977 34.388 65.4627 34.4167 65.4225 34.436L63.8138 35.3678C63.719 35.4183 63.6115 35.4401 63.5045 35.4305C63.401 35.4302 63.3012 35.3915 63.2246 35.3218L61.2064 33.4666L54.3495 31.4024C54.2867 31.3881 54.2281 31.3595 54.1782 31.3188C54.1516 31.2979 54.1313 31.2701 54.1195 31.2384C54.1077 31.2067 54.1048 31.1724 54.1113 31.1392C54.1183 31.1031 54.1336 31.0692 54.1561 31.0401C54.1786 31.0111 54.2076 30.9877 54.2408 30.972L55.9122 29.9984C56.05 29.9129 56.2097 29.8694 56.3719 29.8731C56.4709 29.8762 56.5691 29.8917 56.6644 29.919L60.542 31.1726L59.7815 28.1265C59.7652 28.055 59.7652 27.9807 59.7815 27.9092C59.7815 27.8047 59.8901 27.7044 60.0531 27.6083L61.7245 26.6389C61.801 26.5967 61.8881 26.5778 61.9752 26.5846C62.0582 26.5875 62.1377 26.6185 62.2009 26.6723C62.2395 26.7112 62.2657 26.7606 62.2761 26.8144L63.4669 32.1545L65.4977 34.0098Z" fill="#BF9219"/>
<g opacity="0.4">
<path d="M73.2861 26.1251L65.9654 19.3936L50.8936 61.8387L58.2143 68.566L73.2861 26.1251Z" fill="white"/>
<path d="M95.2991 48.1792L82.8932 36.772L68.3145 77.834L69.4594 78.887C70.2951 79.6684 71.8829 79.7854 72.9776 79.1502L87.2263 70.9228L95.2991 48.1792Z" fill="white"/>
<path d="M44.2333 55.7125L59.3051 13.2716L53.8731 8.25739C52.8034 7.27545 50.8019 7.12502 49.4147 7.92311L49.2183 8.04011L43.64 11.2575L27.7617 40.5488L44.2333 55.7125Z" fill="white"/>
</g>
</svg>
